<mxfile host="65bd71144e">
    <diagram id="G_UBVZ5EzsmckHhRrc2C" name="Page-1">
        <mxGraphModel dx="2667" dy="811" grid="1" gridSize="10" guides="1" tooltips="1" connect="1" arrows="1" fold="1" page="1" pageScale="1" pageWidth="827" pageHeight="1169" math="0" shadow="0">
            <root>
                <mxCell id="0"/>
                <mxCell id="1" parent="0"/>
                <mxCell id="3" value="" style="shape=image;verticalLabelPosition=bottom;labelBackgroundColor=#ffffff;verticalAlign=top;aspect=fixed;imageAspect=0;image=data:image/png,iVBORw0KGgoAAAANSUhEUgAAAnQAAAFxCAIAAAB1LqK2AAAgAElEQVR4AeydB1gUV9fH9ZO2u3R1EUVFxBJ71ISYRKMGU9RoopJQBFQUUBQVCypib9g1qBGNYqVLERGRphSpgqzsZiyxRSBAWDJv8uaNCHzPzLaZ3ZndRQZF58zjE2d2bjnnf87e39w7d2OHZjhAAVAAFAAFQAFQgFEFOjDaGjQGCoACoAAoAAqAAs1SuP7zz//+AwcoAAq0lQJ/tVXD0C4oAAq0MwVevHjR3CyD642b2T+fPnPyVCj80V6Bn0+fOXchTPvyUJK1CkRExcD3i7XRB8dZpcCp0LOFRcUKuGZl5y73W+EIR0sUWLBgQciJn1tSA8qyVIG4hMQ5c+ey1HlwGxRgkwLr1gUUFd8GuLYq5gDXVsnHpsoAVzZFG3xltQIAVwbCD3BlQER2NAFwZUecwUtQwBHgykASAFwZEJEdTQBc2RFn8BIUALgykQMAVyZUZEUbAFdWhBmcBAUcAa5MJAHAlQkVWdEGwJUVYQYnQQENcHVeERyfmp4ac8DXSa6V8+pjiWnp18N2eik+k99Uc+Lk4eu7oGVV5K25bjidkp6WfGbTPOlHziuCE1JT44NXOMvLvMqJ08KgiNT0lDOb3F+ltqKOKlzdN4ampGNHWlpqakpyUnz4sU2LZitqaDqbs/ns9fTrYbvUiaxNGU39KN+nbXPOygPhqfkC5MEDRJB/PWyvXyslU+6YLddKcJXnCZYo168lxpw9sNZTU1K7rz52tVB475c7t6KDfDUnilJMFV9EpRtsCQH4CQq8HgXUv3Odu++muLGp4X64nwyLLhsTK142NzyNXadpCCDY77Ts8PV7dRVXN7cAL4TqjnOPFb9obm5qeJa4WTKmz96RWtvYWJuy7RUblDbuvDLiYUPzi9ITC4i9tfxcFa7zQ0qwHw8TjqaG2vyjvlq27eR1sqyhmai7akVtyqjWUv8JTZtOy06W/NnY3NT473/E4r8bmpqaGsXFIUtlOaG+TbhLVEAJrpR5UnRqlZq8dlp4SvBvU9M/v9+7UxyzfbHGRCHGlPRFJN4gmgjnoAAowIQC6uHq6L4744/GpoYHESslLHXZkFjxsqnh16jVzo6OTu6L123fHbRl9UJXkinO8/027Nyze9u6xe7Y+OvkvvBo3l+NjdVpe33m4584OjrO9l61edfunRuWe8gh7eQ+38vLc+7suUs37tzs50EYuiVwbW5u+vfXmACsLyJcndw8vLy9PKQNz57n5eW1YI6Lo6Oj85wF2Kmzk4ffxl27Ni6bh7Xovnj9zqCtq72wAo5yuHrN8Vm7defW1d7EQU3VPToLaeDaWJux38d7oc+ydQcu3/u7EXskkeikuWUnD99Vq1cv9ZyNyefh5eU1b7aT2+KAHUFb/WU2KsZGd6/VW4N2BvrOVUimuQfMktleqzbv2rM3aKs0Uo6KNhVNOTo6rQh/0NDc8PjyRiwozouDc//AnVE8X6lGkzYqVBoqJYw0mVR9kN54m/+igqssT5b67wzNqcDAWX52mTQAyiI4z/Halvjby+YXd0KXenm4ORETxQ1PFFfH2Vg+yBLe0VFehPxFJNyQCUodRi+veSptymrA36AAKECngAa4Orphc8SmhodRqzAIugRefv4Sm8mucJqz/kLpHw1N2Nys6d/qwtA1kjml87LgzKd/N0o+bxDfDd/gsSrqYYN0CtfwMGKls5P3zrjyP15IijT+97fskFVuMtI1/oncefB3Y3Nj9bWtCtDhcG1qfNnY1PQPcnGVCxGuTovPChuaG0TnlmDDkduB7L+aXlYlbXJxxJ8DXlaX5SF/vmzC5r21+TExhdV4v41/348OdJfC9WWFsLwG96Tpn2fpBxfjwxqVeziLqSykg2tNitQJiZGN4gxHR0etWl4kn5A4+Z7/paHxL2FuQdW/mGSN/zxNO4DZKAHhy6q7Jc/+24hFoeGPwpDlmPFa9eDqG5xV8T88CFjdujtnV7vQwXXJWVFDU6P4TtTeVQtcHB2dl2w+HBx8cMMirDPqaNJERfo8Q9TQTSVh8P/FApUPdDn8Nn1OCVd5njg6ztl7o66xuQG5sJQykC7rE357KVsPabhz0kuxxOG08PTdhqZ/RFk3n/0jyQdxyemVzoqYrlxN+iIqbmDLUjRhpGnzbVIcbAUF3pACmuDq6Lo1+ffGpoZfo1c7O7oEJvz2sunFL+eXzQ6IfdLQ9OL5zZ937fwp9fE/jf8iF1c4OTot/vnO39gwHH1w6/af0p/+2/TiQcSGdYeS7/3T1Pin4PLP+9fO9z58S9zY+PevaSd3bdsfVljd0PTiSXygq5R0GKnLb+Xnx2zDgCs9cLg2/Hoz/cE/TY1/lZ1e5q5YFqYZxqVwbW7635OMk0E7Q/NrG5ubG/+8G39456HkX180Nf6RumO2ZOba9PKP2xH7twWFZle8aGoU39w3z9GF0j1JcQoL6eBal3dq88aNm7cfOJv1279NTS+QC1q27E4YMzG4Njc3igWXDm0POnXzt38xG/d7SMfG5sa6O1H7Nm87mVP1srnhccwaZ+1sn7suQlT31+8F53Zt2Lg/8cG/TQ2PY9Y6U89cHZ289qVX4k8lTS//rv31zo3YnzZ44ysOTl7U0aSJimyxQK7hdj+KhFlFo5IsHd7mvzXB1cnnTHlDc2Nd+i5KEVZ6BR6OKcYWDn5NPx0StMKNkCgYCJubG+tKo/ZvliQ8/vZGHtMV80lfRCJcacNI0+bbHAGwHRR4TQpohKuj9C3r45g1buvjf3vZ9O/d0CUuq6N/bWhuuHt6ITZ58Tha+E9Tg/DsYqcFx2//r+llReJGfNXVfZHf8kUerk6Orvuz/9PYWIW9c3XyPH77n6bGquQt+MTUyQu/xOapEnQ11qbuIGBVooIErvfD12yMe/yiqfHPwhNH02TvXGmGcRlcpTZ6/HT7RXPjH2k7Zzs6umxKqnzZ9M+tQ26SLhseRKzA52CeISX/NjX+nrzZjdo9F/wVLYWFNHCVzTDw2X3jf+7HbvFw1q5l+YDo54TPXJsbnkhfcnscKfi7CTNhtnTmWpmEi+269+afjY1/pO5sge1O7j4Bu4+ei8sor3nRhK8VEPpVyj8nz/VHojNKHtb8LZnjN9TeOrLYiTaartTrCTK4yjWkThgalbAgve2HRrh6/VzW0Nz4n6x9dCI4r4t92tD8ojAY+5oQAobPXJtfViRuwL58rvuy/tOIJzyhCPGLSKzrTPeldMXhqtrm2x4FsB8UeA0KaIarowvG1OaGJ/HHLz972fTPnZ8XOc3ellLT2Nz08sX/8ONFQxOG1A2zl128R7UPhwjXFRHY+zvROekG5Nnbr9c2Nv2Tf1hGuvKzknVZou8yuPo5z9l69XlDU2N9ReVfjZINTUpwPZj7N3FZuOnfgmBsvdotuPBF88tn8QEujo740hqhyxclIfPx3lx3Z4obG/+8uXcutXuuOFwbVC2kgWvjX0h6VEREeNj50J92r8a3StMIp9wyYUCUwvVuKL4I6yjR67+3DrpJy0ifDGbvTPujEZvwaGm7k1dQ4gP0ZVNT4//Ez5//8a86uLp6rQjcGrRxKf7Q4zJ/5e5oQT02d4pe7UQXTXcyXGVRkcFVpqETdcLQqIQ/sRHz4i081wRX59XRjxpwRNKJoB6uDffC8M2Hs3emS/LBlZBLtHClDSMOV9U230LhwWRQ4HUroAVcHZ3XxDzGnqb//E9j09+3j3s7OeJDQNOLu+dWent7e/sG7jmwe4v/QlfJHLax9vp2bNeRk9fmkPOhP21bKn2MxmeusiKpO/F3tE6LsK2P+FxXOo28c9JTRQM5XJ0cnebvSa/G3qE2N0vhuij0bkOzdPbp5HXyzgsSXP+X/yPGBByu0j3OynB9+VtCIDZuY5X/bXr5/HKgKzbCqbpHayEdXAnv0qQ+0Qin3DJhQJTAVTLtd3R0XHCs+B9sdr1FOnOV7SiWw9VdK9ud/MLuNTQ1PIzf7DXb0XV3Zn1jY7VKm1KbJTFqFOcelv4wyGk59gyFvdmmjeZs6qjI4SqLMr7ooZIwNCqp5MVb+IEGuLoHxj9uaGr8Iz3InU4EDXBFLuC7uOX5QIYrPp+VfBGJs15pGFS+lLMlcFVp8y0UHkwGBV63AtrA1dF5ZeRDfDWw8a+Co57Y6pzzuhgMP5X5EcEHT6Y//qfpZUXSZldHp4VHC9DGxr8eXD918NC53IqGphcPo1Y7ugZliBsb/7p76fCutZ5eB3PqGpv+rbgVHnzoxOVycWPTP0jYamfF1l3V38UQ4IptvTiM7VaVwdXR/UDOfxqb/n2cfvLAj2F5FS+a8GFfuizcpAVcm5v++zjzbPCRiILfG6R+ULsnQSDFL3e0hyuNcMotq8C1ufHvRxlnDwfjDr6sTtnuThwbsY2/spmrq1a24xFtbqwpDDt86FTK/f80Njf+kb5TCdiyXHRadKzwz8bmxr+eFiRfio5NKf4N23JWmx4019HJkyaa1FGRwVWuIU3CUPsgs+dt/psKrk3/q/qluKio6LbgYe0/Tc2N/xGEYj/gphGhVXAlfBGJCUQXRslSM7a9CvvSK3LsbY4A2A4KvCYFtIKro2Si09z4n1uHPaSGua85dev5f/FtwU0vau9E4D/TcHR0WrQn8Rex5L1c4z8V+aHr3HEeZtdinzVWp2yd7TR/08X83/7Cp59NDX+IEvctxjbHKAOGIAAJro6OTouPF2GDvfR3ru4bIkV/NjQ1NzX+/TQ7MbfiJWG3sBZwbRQXX0t/9FdjE7Zn9m7UZslvgKjco7WwBXB1dNSmZRW4NvxWko9vwm5qEAtjtmJLzIQySgOfVj0sPpyJbxZuahCXJ6Xc/bsRX/xT7I8hyI/1tT3qdqUk2s3NTS//+i3/wqb5+DtQmmg6UkaFIsqUCUOtEsmkt/SCCq7Sd/NNjQ3//eNpaXJIgOxnaFSBdGwNXJ28D8u/iOQEog4jwPUtTTMwuz0ooB1caSx1cl+4Yl2Av+98pbdhsxcsXROwbuWiOYotKE5uXn5r1iz3lP8i1s1ruf+61b4eSlVpetLwsZP7wpVrVy8m/NBTQwXl205zF69eu9KbvJWKzj3lyo6qcFUpQv5A65YdHRXvXF08fP3XrVxItpHcruJKmx5cFixb05IIuHou81+/PmC173zFr6SkPVJGU/uoUCQMtk5Pk14KL9++MyW4anaAaRFUvohEEyjDSCwA56AAKKCtAq2Cq7advOvlWgzXFgiigKviSaUF1aFo+1KgxXBtX+aDNaAAKKCtAgBXbZVSU65N4ep94MrtO7cv733V/zGzGrvh1mtXAOD62iWHDkGBN6MAwJUB3dsSrgyYB020HwUAru0nFmAJKNCmCgBcGZAX4MqAiOxoAuDKjjiDl6AA/HuuTOQAwJUJFVnRBsCVFWEGJ0EBDf+eKwiknQIAV+10glKOAFdIAlCAJQrAsjADgQa4MiAiO5oAuLIjzuAlKKCyLHwjK3vN2nXz5nnAH+0VWOLre/Ln09qXh5KsVSD6UtzCRYtY6z44DgqwR4FNmzYXFhU3Nzd3kPx/Yq4mp0RfiotLSIQ/2isQfSkuLCJK+/JQkrUKhEVEXYpLYK374DgowB4FomNib2bnKOCakXkDuXcPhaMlCjx/XnE5MaklNaAsSxWIjU/4/fffWeo8uA0KsEmBO2WCouLbANdWxRzg2ir52FQZ4MqmaIOvrFYA4MpA+AGuDIjIjiYAruyIM3gJCqAAVwaSAODKgIjsaALgyo44g5egAMCViRwAuDKhIivaALiyIszgJCiAAlyZSAKAKxMqsqINgCsrwgxOggJawbX+18wTG30XeC7dfCrrcT2IpqqAKlzrsn70dnOVHG5u7nMX+KzecS73Ca4e8Z60iKub949ZdXjDteUJu31mfm43apTdhO+8tkWWVEn6o6v127WgebJWFH+7+/1cpGonfPLGFVCCKzGqynmCEm/KQtsWiSJ+46qAAaDAO6iAxneuz5P9hptYfuTis/D7UXzDIUuvVryDKrTSJVW4Vp9zMNUbNMs/AD/W+S91HW/N5Y1Ydb0KRcn3JCXWb71YVIei9Y/C3fqY9Jvm/+OZ8PCzwWu/G2BsMSW4DBv96GpV5pzaiLex1s3OTKfvFD/8InDPpbutdAqqt4UCSnAlR5WcJ7QhZzpRAK5tEWlok/UKaIBr/d29E0z6L0mpxoSqTPbpb/L5gV9g9qqUNtRwNZz2s3TWiRUXF23+UJ/vGlmNj5nke/LmKn6eZmLpGiWvVpfjP8xg+JrcOglcaWpJqtckevY2+GzvPYiOXM52eEIBV3JUFXkCidIO4wcmgQJaK6ABrhUnp5n09IivkbRXk+DRy+y70EqtW2dJQW3gWn//wEQDk5lnq9SNmTXRrpbc4T7RQqngKFpxr7TsAQZbbI5DHoaVxAW4KgnSLi81wlWRJ+pCDonSLqMLRoECBAXUw1V8Z6sdd1RgoXThSFwQOJL78Q4BTI4ICqIoSg1X7rj1idfwI/lyeLDf5z30LL8/87AeHzP1hzpt3KI4tu6LvoNrXFd87Htbbkddc1u7KW4rdoWmCvE1Aylc6Wrh1gBcyUFpn1cUcKXLE0iU9hlCsAoU0E4BDXAt2vgB125LqQyuJVvsuB9sKoKXNGRxqeHaycjStl8/257meh068nqPcVh1Oh9/X43NQXV6fvTdTMXhMPeAdD8TiqJVd6+d2LLY0X5ET6NOHQ2sp+7JwpYKNNVCAa7koLTPKwq40uWJxpBDorTPGINVoACugHq41t/b+xlX8s4PK12X7T+UO24PvNZTSh5quMoWcSsLj8yyMRs8P0yqG/0Cr/ipsOTu41p561V3whaPMuaN31sume/KWpQXIJ4AXIlqtNdzCrjKoqqcJzhcZTfJ/tAnCrw/ICsFV6DAG1NAPVzRmvh5PTvPOivdIfz8zEzzHnMuyV8IvjGr21nH6uGKbQVL83+fZzJm4w1skZcers9OTjPh/3DhucI97OmG039paq2aWtLSAFeFbO33TA1clfNETcjpE0VdekGitN+8AMveQQU0wBWtjJvX2/zj9WnPUPRZ6rqPTHvNiYHf4ijngUa4omjNjYDRPN7odTdqJGPmlCP3nxKPZxXVYrT+0QWn7obvuR7LeYKvvNf+cmnpKJM+HvGV0jGTspbUGoCrclja47V6uJLyBBKlPQYQbAIFtFVAE1zR+vtRvqPN9Y26djXSN/9gafQD2M2koq0WcMWGzXWjeLzRAVnPzjmYduygdHTqvzStFkXrn6TumjXEXFffrEcfa0sTrvnQWbvTn2EdYvNdulq4QQBXlbi0ww80wZWQJzW0IUdfKVFkakCiyJSAv0GBtlRAI1zxziuR/MyMfKQSwEoZC1W4UhbT+sO6p3fzMtMycssI71+1rgwF27MCSnBtpamQKK0UEKqDAm2ngHZwbbv+34mWmYbrOyEKOEGlALNwpeoBPgMFQIF2oQDAlYEwAFwZEJEdTQBc2RFn8BIUgH8Vh4kcALgyoSIr2gC4siLM4CQooNW/igMyaVIA4KpJIbgvVQDgCqkACrBEAVgWZiDQAFcGRGRHEwBXdsQZvAQFYFmYiRwAuDKhIivaALiyIszgJCgAy8KM5ADAlREZ2dAIwJUNUQYfQQFUFa5pGZllgrtVcLREgfsPHl6KjW9JDSjLUgWiYmIfP37MUufBbVCATQoUFhUXFhU3Nzd3aMaP+MuJkdGXYmLj4I/2CkRGXwqLiNK+PJRkrQJhEVFRMbGsdR8cBwXYo0BkdMzN7BwFXK8mX8vLL0DgaIkCpXfuxMYltKQGlGWpAtGX4gQCAUudB7dBATYpkJWdU1R8G+DaqpgDXFslH5sqA1zZFG3wldUKAFwZCD/AlQER2dEEwJUdcQYvQQEE4MpAEgBcGRCRHU0AXNkRZ/ASFAC4MpEDAFcmVGRFGwBXVoQZnAQFEIArE0kAcGVCRVa0AXBlRZjBSVCgBXAtjd7qtSUa9jlSJQ0NXIW5UXuWONiPGTl02IcTZ/kevnIbr1weu9XVYZbkcHBw+MFlzqI1h+MLRIqWaSpiBQQZp9fPmfzpyKFDR3789Wz/4ymlimqImnpYKdHNo77ff7/seJaiK0HkRufvfQ6nChWtCMIDnb32pxA+UdzDz9TVKbu43nGWg8vGyDJipaJza5wcfvA7eQszIu/USiefw2n07RNrvnPnSnBVpyXCtJhqO3t1pTWYqUg2jV2IskOWO/uHFmosiOXyT0ud15wrJhcVZR5d4rzuAvlD6itt8lCQHh5J/GpQt9T6Tyn7EeWdXz3to6FDRv2w72YLNNTWGrqxolWjk7ads6Scdu9cS5N2Tumpa/j1AeJQzhKFtHCTCq5lCRsmWPCsPp2zdndw8P6N3vY2POORvhElCFJ2eKqxbv8pPr74scRn/qwxVhzu4IXhEnHpKyKivGMOPY1svvDZevDYsUPbFn/d17Cr/Xbp119NPYkLwiS/901NTQ1H+CXJyVa6dxKnQ0ezcZuvyz+6vWsip5f7BfrHKHV1inaM1+2ko8ufdbxEoVv+vq/MdTrpjlx1HUEQYar/KH1bzyj69hUV38EzJbiq0xJhWky1nb261hrMlCeW5h6ESX7DOHbrtWFJeaLvYM6YjTlk7JTH+7zHGbtVc0/a5KHgnGvvrt8eJT0matNyS8tQ9yNMXjFC3+or/0NHw9PKW9qkpvJqxopXH500dcq++xrhKsqL2DBjsJmZpQXPCOBKnSCqcBUmrR7F438RlCEfWoRpW8aZcD9cex2HK++LfYTnFOHVFSP0usw8XoYg6ioit/d9YcSfFSKviY0l+oMWx5errSc1oTzGe4DxuBUrxhnZeITL0Fa6dxKXa2bGIeBVG7jS1inaMd6g++gPenUj0DVv9xfWoz+0NQC4IgiiCldaLTG4Miqm5mCX3ow5fezY6eiMEim0hCV5uYUCUXFq+ImfTkamSZZelL4EGsyUpJ+wMDXy9LHgo6ej0hWNlOenRJz+6fi5y7mSfCTBVVB8KzunUII21dpSuN68lXTueMiF5EJJL0pwLcuKC/3p2Kmo9NtkBmMOEB7yKJ0UlmQdmM43n7w7Pa9E0rhKa+W383KLSvOvXjh9IaVIQLwQld/Oyy6QYVlUmp+NNyIsycspFJTnXTkbcuJicgHerGo/mHWC4qwQF2vOuMDU7IIyUj8STygDVSQQFiZfCDl+NvEWhuOS9KiTP52MzpSZIQ+bmjFG2IrRSd4+nEgV0AhXQdjSL6f7nUg+7doL4EqTNipwLU9YPEjXavZZGcPweoKM+OjUIqr0FWVv+kTfaPKhUkRtRUQQMovPGTQnJFPe7u2s66k5pYiGelj3gvPu1sbjt93MCbI36TbruHSEK907idfDIXDJSEM5XrWBK20dbKDt6ew/26bbzJ8kc1fRrV32fab7ew4GuGJhUIUrrZY4XJkUU32wi8L8PrHgGFna2vYw4vDHLLtQgCDlib5DzUbaf9qL32egLZ+jZzVld7qENIRvgoaYCxFh2v5Z/Y2Nug8YOsSmq4Euf/zGJCEiyjs59z1jE6uBQwZYGvKsp+9JEyIKuBZHrRzTtctHfpFF1LUxywbr9Ro23LJLb9veZgZm73uH5osQAlxL4wLtrXhG3fsP6G3G43/sF15EMJkEV0onhdf97Xg6HTvq6Bra+acIqVorj/cZZGo7yIbfs3e3kT6HFioulsTG4DPoPLxLUVbgGM6QpVeE5Ym+Q0yGjf+om1nPvr3NOGYjF57Jv0vuR2qj4MJcW45Oxw6ddA2Mv9oVTuhnSUI5XaDMR4y369W933u9TXU7j/Px+6Z/9z4DrM10DYcujiS5rn6MwWau5Ed/bUcnUidwgWj/zlVwHuBKmzAqcC3d/zVP77Pt1P+nKyx9OR8tPXNBcoQe2+75aTdd/jcHc0WI2ooIUp686xtrTkddU+uR9g5e6w5EyB5LNdRDkJKQWd3MvtqXhyCFh6Z2MbUPysUfgfHx1jm0ON4Pw+smbHFYO7jS1MEHWtfTZ+f2kdJVlLvD3vq7H6OWAFzx9KGCK42WErgyKKa6YAsiFvTl2DodvylEEGH2SdcBXGv382UYwnS4o3yjsXebRaeceumPXK3yElJDzIXlsUtHdftk7VV8cbPkvHsf/WF+V4UFOycaDvCOwR4TBZeXf2Axdn2KUALXgKSIFWO6dh2zMgrrlbo2Dlcd/UFzz9wSIaJboXMG8Pp5RgnkcC1P9Btu1M8lJFuIIKKC8EXDjQd4RZFWVxUzVzonBSccLLrgy8LUrWGd6Zh8vjNLhJSV3iZelEntUIXrYB1dzCqJzQNxmxFFP8QBRhDhYcO13409OJOaVhsov/gyBBGEz7PppDvQ40IhNj9f8yHXei6xYQ1jTCtGJ1IvcAFwZSQHVOBassfegDNpr3z9ltQLlr6deHzrPn2su5vqdujItRo1deH+RHwuqbaipJXS9At7Vs6dPnZwd16njvpW9oGxJQiiqV7Bgcmd+d8G4/s/Sk44WPI+XIsPktLxVoAI5HjVFq6UdSQD7fnbF+b0sZhxrAQRZW+b0PvbI4WXfQGuePio4UqppRSuzImpJtjl8YsHGYzyT5Mun4puBn7E6bsgCuMOtuIgma0Wbf+M08+TzCgMuthqhSutmdKZrqAw43LYyYObfSZa6Q5YGFsuOONipc8fNdNnY3BkhvQFPQZXPashg810LGf9RNrWpFwbhyt3TKD09azw+qqRBkOWXimTvnMVpfmP0rMYvyhwI35s8P2ip97Q5UnEryEZrlROyqFH0xoGPYNR/pKHDdKFbAZNAVeu/JWyKH3NaM4Q30ShvB+ieQgZroR+KANVggVquN9VXOyCbeMMrOeG4ctbZcdmdOXPIrWsfqxo5ehE6ontFxqXhaUCwcxVTaaowFVw3q2X3nC/ZNISmujWlciE7DLSW42SpB1TepkMcD4i3cGrtqKwMDMlPV++JMmBmkIAACAASURBVIyUph6dO9SQOyYwA1FbDxFlb59g1LGTroH00O3UQWfgothyBJGPt4gcrwk7NG9o4vVwDsXnHFIky+tIB1qBQELX4ptbPuv17ZHbskGatBynRtB39xYdXKn0fzUxBaece/EkgTaeFETcTqsm2IKzLlY8e8XTYOnBycZ8hxNY3BTbhrDHLmwrGrkHGVzpYi5EiqMCvuprpKNryLcZNvYrOwlcEaQoLshj0tDuvE4d/s/Qevyyc3kiDK46/2c2/OPBJvwvgjIlpKeujS+xfr1f9vhavHMCx3ruxRIpXMujPG11zQd+OkFx2DtuVwNXVScRxYySpjXS9JR0QQ/XIZ2/+VH2DrR0jz2vt/sFgTZw5YzdKiE1TaAwuHLGbMjGJSvaMZ7T3zsan6iXHZ/JV4Kr+rECg6tsWbhFo9O7+519Zc8Arq8snaKiClyxVVgL7ih/Il2FSX7D9fkzjpHgiu07iPQZwjUa5ReDf+nUVSza+4VRl2mS6aekc+x1joHN/Ah82ZeuwxJhWoAdr4dDcEaW9Lh5bv4AXSuX0FIiXGXDu92YQXqadgvL4KpSR8YDRHBhjrXFt9vWjuv57ZHb+DwD3rliMaOHq4qWcmq1UExBUW62JNCKPTV4uhDgqtyZMNF3iIHiaVCU5j/aoL93DDVcEXIPGmJ+Nz3AjsP/clsSvqsI3wQ7wDumvCzrcsRlDAaC3ITjyz/j64/2T8WXhUf7pwmS/D804n+996YIEVHXxjOKYxcgBTBu/qjVqcSZq76NR4TsQVQkEJDWhEkPeTROKuCKzVwpWiPxlHSBYAsBcl4Lk5YNxabV2DvXwbyPN0oIiAiv+g3nYKsCLYIrTaDuEJ+CNMBV3eBU8uqjk2I4hDOpAgBXBlJBFa5I+ZU1dsam73sEJ+PLvWWpx+aPNOGNWB4vUE5fBBHE+A7jcoctwV9AqakoyguebsHrN3NXvGSjoeDmSY+hRj2dTmOravT1hEnLhxlgj8gKT4VJfiP0zaccLCCNt5IRl9ehQyft4apURz7QIoIL7tbmfH736djDADasAFwx/dXBVUlLBVwZElNdsMtjfAZxe03bm4y9tEs9NLMPx8YjTEDHHUUmKZaFBQi1mWWXlwzWs3Y5jW0oKrt+YGYfXR0bj4jS5FWjOL1mHcvBFncKTjlb88ZsyJS8c8V+iiOIXz6CZzH1QJaAsrYAzygd/cHzz+WLEMH1vVOtDEetThJKEYdtnl81itf1s4A4/GVx1LLRJvxph/KJZpOXheUkxLccSH4pJgh17mE6+WAJXWsknpIuEFHWho85Ft8cyhYhwtwz8wbp68jgqmMwaG5orggRpB38ztpw5IorQkTRD9E+8rKwfOaKaBEoTXBVM1ZIfigom7ni9mg7OhGNh3NcAYArA4lAAVcEEeWcWWZvY6TLMbe07MzV5fUcuzAE2y6iClcMr0uGcrnDfGMxANJWxPZmRKybMsBUV8+kW08rvhHHbOCU9VGybZA09cqjvfrr2cyXP8Xj/orSA8dweWM3J++ZpJiFYnewd688nZbAlVRHAVdspO2t0xlnK8BVnmTq4UrSkgBXZsRUgiu5M6QkbsNkG56uEZ9vbGBk81UAtp2ohXClNFMoTN39TS8DXSN+D76ZxfBZbvZWJvZBeUjRxeVj+AbcLlY9+UaGVhPXRN0m7BZGkLKoRYO5ltMP37xOWRtbFjYe9vlYKzO+hak+z+ab7VcEkr0/0t+5CpJ2zRhgrMvrask31Dcb4nRQaSOWZriKMrdNNNU1tvxoaXQ5VWsknpIuEER0K2TuYGNdQ373rl37T5v1Sdeh0pmrnvWoD3qYdOabcoxsp25NwFariP3I80TpnasCrojmQGmEq7oxhrgsLLVG29FJYTyc4QpoC1eQS40ClHCVlBfkXY+PioxOuin75aCaZki31FQsL0y/HB0ZFZ9KeP8qr6umnrwMnLwxBZTg+sbsoO5YdDvzcnTMlZsUvwulrqDtp4K8lNio2ORbhNUTrKog73pcVFRCuvRnqnSt0dTGipdmJcbEp9HVL81Kio6MScqRveak64Duc0FeckxUfKbsd2stbE2QlxIfnypZZcJ6kD6qZJdkXYlNyCgibMgg90NnDeFzZgL16mPFq9ckOPHOnwJcGQixGrgy0PobaUKUGxW8J0jl2P1jpPSV0Rux6u3vtH3D9e3Xtz17QF4HaM+Wgm2MKABwZUDGdxCu5Qkbvx37scrx6TcB2CZjOF5VAYDrqyr39tcTpu9xmeh5jPrX72+/e+CBsgIAV2VFXuH6HYTrK6gAVbRQAOCqhUhQBBR4FxQAuDIQRYArAyKyowmAKzviDF6CAvDvuTKRAwBXJlRkRRsAV1aEGZwEBbT/3x+CVmoUALiqEQduERUAuBLVgHNQ4B1WAJaFGQguwJUBEdnRBMCVHXEGL0EBlWXhpKvJ2dk5ZXC0RIH8goLomNiW1ICyLFUgIiqmuLiYpc6D26AAmxTIyLxRWFTc3NzcoRk/rianRF+Ki0tIhD/aKxB9KS4sIkr78lCStQqERURdiktgrfvgOCjAHgWiY2JvZuco4JqReQO5dw+FoyUKPH9ecTkxqSU1oCxLFYiNT/j9999Z6jy4DQqwSYE7ZYKi4tsA11bFHODaKvnYVBngyqZog6+sVgDgykD4Aa4MiMiOJgCu7IgzeAkKoABXBpIA4MqAiOxoAuDKjjiDl6AAwJWJHAC4MqEiK9oAuLIizOAkKIACXJlIAoArEyqyog2AKyvCDE6CAlrBtbI4Zv8an/keC1cFhRU8A9FUFVCFa2Xyrnmu+OHm5j5v4Yqtp7Me1Ssq1j/OOrnWdcrYD0fbfTbF1f+ntPt10pu1mQc93bCKbm7uc+Z5Llm7L6LgKaGmog3JmfjuBf95K0NLxKQbtdnBPl57r1dWJu/yWHq8QNa4tEx1yu55rm6e+9OqiZWeJe3wcJu76dKvanojlofzV1GACNc3Ezv1vVL4VC8MWzd/VzJ+p+bu9bQycq5R1GjxR9R52uJmyBWkdleSPlWf+6Simi/q70dtmL/tMl6wjZTRbASUaLcKaHrnWpO1aYyZyXtTvVb4LZgyyNR4xKoUcra2W89eo2GqcH102F7fZLTrmoCAgIA1Kxc6jLbgDfCOe4LbJL5z0tHW0MLONTD4zIUzRzZ7jLXiWX4RlIOjrir0O2ODod/jFdf6L503ZbAZp/f04KJaOndqUhbb6g/1zyYCtOrSnJ4mXxxG6h8dtjfoPudSDbnysyNf6XXS0bV0jSSE8vHP33bR6aRrt6WU+bGT3D2rr4hwRd9M7NT2ShGcuhz/YVz7wyiK1iZ597VwDiM9k1FUaPlH1Hna8nZINaR2PyJ9qD73SUU1X9T/ctZ3+sqItlRGsxFQot0qoAGuNdGulmaTj9zDZzP1j05918V81lnCkNxu/XqthlHClUS1J6EzOhtPDXmGomLBAXvTrl/sJ+BSXH7yu+68Uetz61AUg6vJjDNVcvurc7Z8YmIy6eBdugklNoYYDFiapsDvswuOFl1mnHqMotSD1rMjX3F6fvyJTQ8CXR+FTLP9+NOBHICrXPk2OSHBFX0zsVPXK4qiVb/cSAgPj88sr5SknBRSqLjyXqiTZZcZIXcfVeIPYOKnd9Liwy+GxWfcrVCIVf+kJCUm8vKtBzW1z3799bnsoa/6XvbliPC49LsVFIlMnad4m0r16ioe3X8s6R67XV/15L6sD6WSuLhc+8MqcFWT+3IvlDVAxZWPHj6tqX9+53pMxKU0gdRfceWj+4+rVJVR0RCtq3j08FnV46Lk+GslzygUkPcMJ++OAhrgKn5UlHw1/7E0GyrCXLqZfHsa4KoUf81wrbjoZNHV8WIVKi7aONqgj3cSeTJZl7duhL7t4pRaVbiiaGX4bAvOuN1CpU7ll+KSrWN4fRddlTX5a8g35lZuUViUqActDK595m/z6tfDNUISy/pfj03t57jNbwTAVS5r25yQ4Yq+mdjR9/osZdPE7lwTq4EDe5lwLccHXnuCyiAlLt0+1lCnY0cdPeOx20pqBaddB5ma9Bwy8v3+Fhw9y6/2F4pRtP7R5ZV25lzzvu/ZduUP+3REl/6+KbUoWpW9Z6q1oUnPQYP7mhtaTth0XfnlEnWeUtV7dv4Hi25OF59LolMd79G764zQJ1QlZXarwpU+9/FWKTXIDxjZ2W7q5zaW/YYOtOTq954VcleMf5m5Y3eTlRFT1s/xH24+cHh/yz59e9ituyV74mibHINW24kCGuBKtPLZtRXvG1u5hBFfHhLvs/ecEq76JnbzNm3Bjg2r3Mfa2Ezek1uDolVnZpgYfH1UeXSpiXLtpj9+3/16lZkriopLt9jp91ogebVDJXL9LwftTXrNi8enu/XI4Ukm/Ran4KilHrRwuHonXFkso2v9wyNTbF3Op68DuFLpy+RnSnBF30zsaHqtTV02gDvQIxIRo6j4/iXvITzbRVerZTNXFK2Jce/Ox5eF67LWf9Rj4s4inBKVVxf1Mxi9sUhck+Lb32jE0iRshHiausbOSKefb0ptXf7GD0zeWxB9H6Pvk+urPzAdvCKDjBfKPKWuVxntbsV3OPsUC0plpGsPy9nhFdQlpXZTwJU297EFXmoN8gNG6PA+CsjEqP4szsPGwG7rHTH2pMwduxslKkNTP8d/mI7Z5KP36tHqKuaX1ZnMUGiLMQW0hGv9w8v+H3c2HeWXKJvFMmbBO9AQNVy5tuO+mzlz5swZ0yd/OoDfdYhTcF41+vzo1/pG351WLPtK3K+5PL+X/sfbBVRwrRds/1i/x9w4NUI9Ojm9c3fXiAoUFd/Z+anx8DU5ksGLctBCJXC9WnHNp1/32eGVaP394K/7Ooc9zQsAuKoRmZFbynBF0TcTO6pe63LXDOeM2S6QrlPVI3vGcQcsS6+Sv3NVwFWiRe3T8ryUS2cO+k+21huyKqs6c8Ugztjdv0jrPzk22aSfb0q1YPsY/e5frd67Hz/2BUzroz9qQxHpzT5VntZT10Nrkrz7dvn21BMUfX7BsZu1R3wVTUk1cKXLfRSl0yCf+N14Fvwl9z2/jDoKuNLVz/EfxhmzrQ32gjGSldBImyigDVyr8oId+hlbTtyYAmSlDAIlXEnvXMVlByaZGn1+AK1J8LDSV/2WPT76taHpzDOVVMvCtdd8+uq/v76Asmvph8/DXCwtfjj/rK4gcLTJJ9tlm5KoBi1UBtfaWgldnyOHvrRxDquoIw0g6nqDe6+sgCpc0baKXU3cfBtDDn6YfnNcupAqN5yi15ornr0Np56UP/hVnZlpaukWU0kF1+cZQd8OMNHRNbbsN9r+27HWeoNXZVXGz7Mi1K+OmG3Z3zelKn35QN0uQz//WnFMmRdcSJq6UuVpHXU9FK1NXzbQfGrIr49Pf9e1H/YqhaakOrjS5D6K0mmQHzCCO37/A8lzQ8WxydyBy9NrKeBKV1+iIXkWLY8FnLybCmiEa3Xu7kndTIbOO1Oq2DHzbkrx6l5phitam758oP7glShaEe1uxR29/hZRTXHZvokm5t+EPKyngGt1im9/fdKGJSpDqxM9bbp8d+Lq6mHmX/4o2X+m/p2r99VatPaaj2135+Cdk/o4h1WgAFcqYRn+jAKuaFvFrvbZw/v38OP+E9WlSNVexfkB73M+2FQsnVRiKyacQStvVKvCtf5u0Fiu5fTgInx3krh484cGg1feqCna9AFnxLo8CTfry4PGcqUzV4P+S1NlCV9fW0sCKyYwFVyx+Sh1vbpba0d0nrpn79TOQ1beqENRmpJq4Uqd+yhKp4G2cKWrD3Bl+Iv0NjSnAa61WWvf55p9vPxkVLT0uJRRLts58zb491pspIarpevFh0+x48mDkqTd03rp2y66iqKouOzIVEuj92YfyX6CPQfXVxSdWTjK1PSTLTnY8IO/c512/AFe7+HdnKjtM/oZ9f7htGytjdafugy/QeYjRvazmBkq+cUPVhIbtORmYE0+e15VJ5+5omht8iLbLt269cR3iABcacVl7gYVXNE3EzvVXutu+A/n2fxwsrgaRWvLzrr24/ZfmlIjhRT2ZvHy/F7m2PqKZAOeZwK2daC6NNS1n64Ohk9x6Z4Jpt0mrI8qEBQlbJ/SU6cT9s5VXLjlI0OLL4Oy8feVGYEfm3X74exjkqSUeUpfT1y85SNzC77Z6MACybZlyh7Uw5Uy91EUpdFAE1xlytDVB7iSAs6OC/VwxVYkO3UgHbqf7ZVPjNghkWYvKeGqJ5ft/3SNLAaO9wjOlv1goTIvZNHEviZcc6s+vboYGvawc92TKl1xrwr9zkhWsWMnA7Ne709ddqZIm8cZccGG0br/18M9hrCZ+9Fhe4UZWLMdOzuFEeCKjTB9dbo64rsvAa6aI93qEpRwRd9M7Ch6rczeN6OfkZ5JN0tTjkn/b4Mynst3C2MPgsLgyea6plbj1qeVhHxvw9E1sexl2bn7B64Lp/Y2m3r8EYqKy8OWfW5rpqdr1HOM67ThBoNWZtahaE3hsdlDTPWMLKy6GRuYv+9xRvndI2WeVtPXq7+75zOuwSc77sje3FL1oAGuVLmPh5dSAw1wVSiTWUdZH+Da6q/O29eAeri+ff68EYtV4aqFGfVVv965dSOn6F6FbITQohIUecsVoIZru3KqvkKYl3mjAKH6QSpa+6j4RnquEHtMrH1UkpWeVfyr4slPXJYScV0gfbgTl20bw/t0Z7l0exNada8wM+1G0QPVBWr13mtfT/uS6nvE15PUaEBdm6AMth7V4vrUrcKnb7ECAFcGgvdKcG1hv/UPMy6eOK5yhJxPuy8bvlrYIhR/Awq8BXB9dVVqU5b0Mxo651hSTl5m9PZp1sYfbICfdL66nFDzLVcA4MpAAF8HXOtu7Xe2n6ByfP59UJbK/hAGXIIm2kaBdxquaP2T1D2uYwdade1iafvBt/7hAkjNtkkjaPVtUADgykCUXgdcGTATmnjzCrzbcH3z+oIFoEC7UQDgykAoAK4MiMiOJgCu7IgzeAkKwL/nykQOAFyZUJEVbQBcWRFmcBIU0OrfcwWZNCkAcNWkENyXKgBwhVQABViiACwLMxBogCsDIrKjCYArO+IMXoICKsvCaRmZZYK7VXC0RIH7Dx5eio1vSQ0oy1IFomJiHz9+zFLnwW1QgE0KFBYVFxYVNzc3d2jGj/jLiZHRl2Ji4+CP9gpERl8Ki4jSvjyUZK0CYRFRUTGxrHUfHAcF2KNAZHTMzewcBVyvJl/Lyy9A4GiJAqV37sTGJbSkBpRlqQLRl+IEAgFLnQe3QQE2KZCVnVNUfBvg2qqYA1xbJR+bKgNc2RRt8JXVCgBcGQg/wJUBEdnRBMCVHXEGL0EBBODKQBIAXBkQkR1NAFzZEWfwEhQAuDKRAwBXJlRkRRsAV1aEGZwEBRCAKxNJAHBlQkVWtAFwZUWYwUlQQCu4lqWe3uTj7uLqvTb4cqEIRFNVQBWugujNLg6zsMPBweF7x9nzl209lVIirynKj927eJa93Yhh74+xn+UTFJldLr1XHrvVVVIRr/qDy5xFaw7HF4gQpPRCgCPeIuk/Dp77rgqxuqKbR32//37Z8SyNEdJgG9IGxskdZ/2JElzfQCy0TxRSsDRZSipMcSFID49MxTNV9eYrmqTaEHwCCrQjBTS9cxVe3Tiui5HNRJcF86a/zzd6b8G54nZkfTsxRRWupQe+NtQf+M1iX/xY7OnwsZWB8Qer4jGDhal7p1vzur4/a9m2g8EHd6xwsrPk8scFxJdhN8sOTzXW7T/FR1Jxic/8WWOsONzBC8NLBfH7/SStObxvotPb3hO/WBZ4Mh0bsoRJfu+bmpoajvBLohnB5Fqps61tjJN3DSdKcH39sWhBopCiRWepdj8rEpxz7d3126N4ipOaxS5e1SSVhuADUKA9KaABroILc6x5duskj5zFwdO6mEw5XNqe7G8XtlDD1WjyQYVUgthFA3WtXBBEmLZprHHncRuvKkYlYcbery24Q5fGl0vgyvtin6IiIry6YoRel5nH5QOT4IyLlf6YQNIUtTzGe4DxuBUrxhnZeIQrWqZUBxsmqW1rI+MorWDphxRwfa2xaEmikEJElzVnpaVKb8acPnbsdHRGiXTppPx2Xm5Raf7VC6cvXM26cWA633zy7vS8EtVHv1c2iWQfXIAC7U0BDXBFEFFZUbFktBamBn5i3HP2WQ1jd3vz8DXYowVckfyt4/TMpmNP6cP0e7qeI4tYfnnJYD3ruRcF+MyVDFdR9qZP9I0mH5LzlgKugvPu1sbjt93MCbI36Tbr+G21PqsMkzLb2sg4tcaw7aYmuLZxLFqUKKTY0GVNMIIgRWF+n1hwjCxtbXsYcfhjll0oQJDyeJ9BpraDbPg9e1sM/nQoV6djRx1dQzv/FGW6vrpJJPvgAhRobwpohCtucHHo8q/sbEyM3ptz8pbGd3rtzcW2t0cDXEVlOfEHXQbzzOyDkNKDk430J+wsUjJKEDKLrzdmQ7YIWxbmfLT0zAXJEXpsu+en3XT53xzMleuuCteSkFndzL7al4cghYemdjG1D1IUVuoHuyQNk0TbNBmHk7/FxlFYwOKP1MG17WPRskQhhYkua7IRQcSCvhxbp+M3hQgizD7pOoBr7X6+rDze5z0dk893ZomQstIywQkHiy6Uy8KtMIlkH1yAAu1NAe3gWhgfsm934PxxVsa2Lj+pHbnbm3+vxR5KuPI6KI5OHP5Ae5+QmyKkeOcEPd7X++XTUKl9glDnHnqj/dNwuHbi8a379LHubqrboSPXatTUhfsTiXNRFbgWHJjcmf9tMP4yvOSEgyXvw7V0W0ew7koPfE1tmybjcLi21LjXEoC3pxNVuL7GWLQwUUiq0mZNefziQQaj/NOkD3+im4EfcfouiCqJ93nPYJS/NBFp4doak0j2wQUo0N4U0A6uUqtLTnxvyfkoMFM+iWpv3rwheyjhamj0RVBOYWFhUdFtgWIpTHDayVJPPubI7c3fOYFnPPlgCWlZuCRpx5ReJgOcj5BeryJKcBVlb59g1LGTroH00O3UQWfgoljZ9mN5F/ITfA5CZRvCvHHyTuFEooAqXKnzpA1ioU2iCE459+JJEsl4UhBx7yJt1gjOuljx7PfKHxdLD0425jucwODKGbs1T+I2DVy1MQkyBxR4SxXQANei8/6z3HYmSUfq8hjv/vrD/SS//XhLHW4Ls2ngStzQJO/2doiDJWfY0gTiS1dh6oZPjEwn7c4VkeCKIEhJpM8QrtEovxj5diZECa7CtAA7Xg+H4Iws6XHz3PwBulYuofLRTt619IS0wEe+ybRx5NbhCkGo4EqZJwjTsdAuUQRFudmSRMouIOSc0ssEYiSFib5DDIb7JUsfIEVp/qMN+nvH3NECrtqZROwMzkGBt0cBDXAVRHn207eafiBDgCAlSTsn9+AMXBRNPyl6e/xm1NKWwBURpu6w5/P6zdgRh/16FRHdTjroNtQY+50OxlvsnStpQ5MgxncYlztsSYycxqSZqzBp+TCD3u4X5HfxXzaM0DefcpDu3zZSA1eGjWNU5HejMe3hynAsXiFRSIrTZ015jM8gbq9pe5PLEESQemhmH46NR5gAe+dKmLmGOvcwxVZmiEdrTSK2BeegQLtTQANcEaQ40v/znjyOmQXfSM+o//StCaTn2XbnzxsxqEVwxeajl3e7f9LbiGNq2bOHOY/XbeTMwIh8yVq7ClwRRBCzZCiXO8w3VgpQIlzLo73669nMjyCwFUFE6YFjuLyxm2mW7+mHSVw85ox7I7Fo5522AK6vMVG0EE1d1pTEbZhsw9M14vONDYxsvgqIKsZ3CxPgKsrcNtFU19jyo6WKR3P1uauFSVAEFGjXCmiEK2Z9eWFafFT0lSzZT9jatUdvwDhVuGphhKj0VmpCTPzVrNuKN7JaVHs9Rdq1ca9HgrbpRQmu2nTydsRCdDvzcnTMlZu36TZkCPKSY6LiM4lb87TxHsqAAm+rAlrB9W117nXZ/UpwbWPjRLlRwXuCVI7dP0Zm0w1/bWwRNI+ovHMFTUABUOBdVQDgykBk2yNcyxM2fjv2Y5Xj028C1GwkZkALaEKtAq8wc1XbHtwEBUCBdqoAwJWBwLRHuDLgFjTBvAIAV+Y1hRZBgXapAMCVgbAAXBkQkR1NAFzZEWfwEhSAf8+ViRwAuDKhIivaALiyIszgJCig1b/nCjJpUgDgqkkhuC9VAOAKqQAKsEQBWBZmINAAVwZEZEcTAFd2xBm8BAVUloWTriZnZ+eUwdESBfILCqJjYltSA8qyVIGIqJji4mKWOg9ugwJsUiAj80ZhUXFzc3OHZvy4mpwSfSkuLiER/mivQPSluLCIKO3LQ0nWKhAWEXUpLoG17oPjoAB7FIiOib2ZnaOAa0bmDeTePRSOlijw/HnF5cSkltSAsixVIDY+4ffff2ep8+A2KMAmBe6UCYqKbwNcWxVzgGur5GNTZYArm6INvrJaAYArA+EHuDIgIjuaALiyI87gJSiAAlwZSAKAKwMisqMJgCs74gxeggIAVyZyAODKhIqsaAPgyoowg5OgAApwZSIJAK5MqMiKNgCurAgzOAkKtASudYLEn86kP6oH1VQUUIVrbeZBTzdX7HBzc58zz2tp4OG4kkp5xfrHWSfXuk4Z++Fou8+muPr/lHa/TnqvLutHb0lFvOrcBT6rd5zLfVKPolXXgubhLZL+4+73c5G4MnmX9Jabm/u8hSu2ns5SHycN5qEM2yf3G06U4PqaA9HiRCEFTJOxpMIUFzV3r6eVick3WmcRuS24AgXalQLavnOtygj40Ehn8KosGQXalRdv2BhVuFaFfmdsMPT7NQH4sWa5+wRrjuknW3IwQ8V3TjraGlrYuQYGn7lw5shmj7FWPMsvgnKqsZvV5xxM9QbN8pdUXOe/1HW8NZc3YtX1qpqcUxvxT9e6VSQ9hAAAIABJREFU2Znp9J3ih18E7rl0V/zosL2+yWhXvLc1Kxc6jLbgDfCOe0Kvijrz2sA+ekNYd0cJrq85EC1OFFJ86IytJZWiu6hN8u5r4RyGZ7miTOssUrQDZ6BAu1NAO7g+SVg4pKdlV12AK2UAqeFqMuNMlbx4bdbqoXq9PVFULDhgb9r1i/1FiiFJXH7yu+68Uetz6yRwNZz2s6IiKi7a/KE+3zVSPirVJHr2Nvhs7z3FGsKjw/YG3edcqpH19iR0RmfjqSHPZNcqf2PDJLV5bWKfSv/s/YACrq8xEC1OFFKg6LLmirRU1S83EsLD4zPLK6WpWVfx6OGzqsdFyfHXipBfQp0su8wIufuokjh5bZ1FJPPgAhRoXwpoAdd65Iyj7ZBFF3dO4gJcKaOnBVzRx4cn6Zs7ouKijaMN+ngnyUGIN1iXt26Evu3ilFp85kqGa/39AxMNTGaelfNWM1wrLjpZdHW8KK+hYrTKMCkzr23sU+mfvR9ogmvbBkIZZRoThRQouqy5iKLos5RNE7tzTawGDuxlwrUcH3jtCYrW5fgPNx84vL9ln77dh38+0lCnY0cdPeOx20oIdG2dRSTz4AIUaF8KaIRrXfGBL/vYrc+sehL8BcCVOnga4Fpf/SD3jOcIQ/OpP6FVZ2aYGHx9VHlSWRPl2k1//L779diyMHfc+sRr+JF8OTzY7/Meepbfn3kon6hSwlXfxG7epi3YsWGV+1gbm8l7csn8JllOGiaJ5mmyD4d/i+0j9c3uC3VwbftA4IuwLUkUUrDosuY+Wpu6bAB3oEckIkZR8f1L3kN4touuVtfl+A/TMZt89F49Wl1VXRPj3p1PvSz8yhaRzIMLUKB9KaABrlWZ6z+ynrSvqA5FnwJc6UJHCVejDoqjE7fb0Cn+0b/Uo8+Pfq1v9N1p5UllzeX5vfQ/3i7A4drJyNK2Xz/bnuZ6HTryeo9xWHU6v4LQNTVcubbjvps5c+bMGdMnfzqA33WIU3CefCGZUFlyWhX6HbV5muzD4dpi+1T6Z+8HqnB9nYHA4NqiRCEFijZr6nLXDOeM2S6QPv/VI3vGcQcsS6/K8R/GGbNNuoeJHq6vbhHJPLgABdqXAmrhKi7eOoZnPnLm/AULFiyYM8Fap/PoWV7b43+VT6Laly9vzBpKuBqbTDv+4OnTp8+eVdQo1sFqEjys9OUDjtzix0e/NjSdeaaStCxcWXhklo3Z4PlhhNerKIpSwpX0zlVcdmCSqdHnB36Rt690gs9BqMxD28Q+pd7ZfKkKV+o8aZtAKC/CyhKFGJGauPk2hhz8MP3m+HPCLdqsqbni2dtw6kn5E2PVmZmmlm4xlTn+w7j2hx9JmqCFa8tSl2APnIIC7VoBDXA94m4/QXqMG9Slk5GNnf3CUATgSo4pDVyJG5rkFSqi3a24o9ffUuxnQlFx2b6JJubfhDysJ8EVRdHKNP/3eSZjNt4gzEI1wxWtTV8+UH/wyhvyXpVOSAt85HttYR+5B1ZfUcGVMk/QtgiEMlxliUIKSe2zh/fv4cf9J4S0Q1HarBHnB7zP+WBTsfQZsl6w/WPOoJU3ql8BrjKLaFOXZCpcgALtWAG1cCXZDcvCJDmIFy2BKyouOzLV0ui92UeysV+vovUVRWcWjjLFfqeD8RZ750ra0FRzI2A0jzd63Q35K1RquFq6Xnz4FDuePChJ2j2tlz721otoJPGcdpjEfinEvH3Erll+rj1c2yIQGFypEkW7oNBnTd0N/+E8mx9OFlejaG3ZWdd+3P5LU2qwd66Emevl+b3MscUZ0kFnEW3qkmrDBSjQjhUAuDIQnBbBFZuP5oUsmtjXhGtu1adXF0PDHnaue1IfS5YDVOCKojU31o3i8UYHZEnxSglXPfkL3v/TNbIYON4jOJv4nlbJSfphEi/ItH1KvbP5sgVwbQ+JQgqVuqypzN43o5+Rnkk3S1OOSf9vgzKe47uFCXCtFwZPNtc1tRq3PpPwW/lHh+1blroki+ACFGjHCmgP13bsxJs2TRWuWlhUX/XrnVs3coruVSjeyGpR7bUVae/2vTYhGO1ICa7atP3WBKK+QpiXeaMAqaB7bVT7qPhGeq5QzVOfNnpAGVDg7VAA4MpAnF4Jrgz0q6GJ+ocZF08cVzlCzqfdpxv+NLQIt1urwCvAtbVdQn1QABR4EwoAXBlQvZ3Cte7Wfmf5fjTZvrQJEz7/Pgj+J5YMRP2VmgC4vpJsUAkUePsUALgyELN2ClcGPIMmGFYA4MqwoNAcKNBeFQC4MhAZgCsDIrKjCYArO+IMXoIC8O+5MpEDAFcmVGRFGwBXVoQZnAQFWvLvuYJatAoAXGmlgRtkBQCuZD3gChR4ZxWAZWEGQgtwZUBEdjQBcGVHnMFLUEBlWTgtI7NMcLcKjpYocP/Bw0ux8S2pAWVZqkBUTOzjx49Z6jy4DQqwSYHCouLCouLm5uYOzfgRfzkxMvpSTGwc/NFegcjoS2ERUdqXh5KsVSAsIioqJpa17oPjoAB7FIiMjrmZnaOA69Xka3n5BQgcLVGg9M6d2LiEltSAsixVIPpSnEAgYKnz4DYowCYFsrJziopvA1xbFXOAa6vkY1NlgCubog2+sloBgCsD4Qe4MiAiO5oAuLIjzuAlKIAAXBlIAoArAyKyowmAKzviDF6CAgBXJnIA4MqEiqxoA+DKijCDk6AAAnBlIgkArkyoyIo2AK6sCDM4CQpoB9ey1NObFs9xcfH0D75SDKKpKqAK1/LYra4OsySHg4PDDy5zFq05HF8gQpDSCwGO0huEvxw8910VYg0Lc6P2LHGwHzNy6LAPJ87yPXzltmp3Sp/QVRFEbnT+3udwKt6upI4gPNDZa3+KUIMRSh3AJXMKKMGVPk/aIFFkXqjpVFZEu79FmUeXOK+7UEIoTZdZey4cW+7sH0oo2cpTuqxvZbOS6oL08Eji94aRRqERtimg8Z2rIHaVnZnpwC/dPN2/HGhq+qF/AvyQQDlJVOFadniqsW7/KT6++LHEZ/6sMVYc7uCF4aWC+P1++IeLHd430elt74lfLAs8mS5EyhI2TLDgWX06Z+3u4OD9G73tbXjGI30jiIOXctdqqpTuncTp0NFs3Obrcrze3jWR08v9gkCdEco9wDWTCijBlT5PEHUxUhN1LYxV06kWtQlFyuN93uOM3ZpH+IjO6pCIA/O+9P6JULI1p63zX1PPgnOuvbt+e7RMUzm4DwqoVUADXEU5OyaaWjufwn/5Ksre9VWPwV7hQFclSanhyvtiX6mioPDqihF6XWYel39lBWdcrPTHBGaJZGWESatH8fhfBGXIWShM2zLOhPvhWgUdZWWlf6utUrp3EpdrZsYh4FUGV3kzKkbI78BJmyhAAVcNeYKoxEht1LWwGoOr+k7LsuJCfzp2Kir9tjw7sVWVwtTI08eCj56OSpesp1DAVd69stXCkrzsfOz7ICzJyy0SCAuTL4QcP5t4qxxBkJL0qJM/nYzOlH83EITaAknravyXdl96M+b0sWOnozNKpPaX387LLpA1LyrNz84rwb5lmC2FAlFxaviJn05GpuFeCUuyDkznm0/enS4pQ2FL+e283KLS/KsXTl9IKSIqJPceTkABjcvCtw98bdbfM0pQnBZ9/nxMejFkElXSaANXUfamT/SNJh+S81Z59ClPWDxI12r2WdKjiyAjPjq1SE5bpc7VVyndO4nXwyFwyUhDOV4BrkoKvvZLjXBVyRMVuKqPuhYeqcKV2GlpXKC9Fc+oe/8Bvc14/I/9wouwJoVp+2f1NzbqPmDoEJuuBrr88RuThEgL4CpM8hvGsVuPIOWJvkPNR4y369W933u9TXU7j/Px+6Z/9z4DrM10DYcujsT6orZA7pgG/4vC/D6x4BhZ2tr2MOLwxyy7UICQDRVlBY7hDFl6RYjbYjbS/tNe/D4DbfkcPaspu9MF1/3teDodO+roGtr5pwipbCmP9xlkajvIht+zd7eRSxKwxwM4QAFVBdTPXIVJy4cZDP3m++F88x5WfJ5e5w8Wn8NeHMJBUoAarpyPlp65IDlCj233/LSbLv+bg7ly9ZThWrr/a57eZ9tb8n/HUl8Fh6tzaHG8H4bXTdj0F+BKitsbuKCAq4Y8UYGr+qhr4RMGV7pOyxP9hhv1cwnJFiKIqCB80XDjAV5R5Uh57NJR3T5ZexUHScl59z76w/yuCl8RroN1uKP84ssQRBA+z6aT7kCPC4UIIkxd8yHXei5GX0oLFH6p9V8QsaAvx9bp+E0hggizT7oO4Fq7ny8jGUqCK2aLbzS2k6TolFMv/ZGrU4WI4ISDRRd8WZjaFqw1HZPPd2aJkLJS2XRYYR+cgQISBdTDtTzGe4DO//Htt14pRRBh1gmX/hwbD1gWVk4earh24vGt+/Sx7m6q26Ej12rU1IX7E4m7k5ThWrLH3oAzaa98ZqvcCcW1+ipSuAoQgRyvAFcKFV/rRxRw1ZAnKnBVH3UtvMHgStOpKM1/lJ7F+EWBG/Fjg+8XPfWGLk+SLp0ICjMuh508uNlnopXugIWx5SRmKXWslN7Emetgg+F+ku17BdvGGVjPDcMXa8qOzejKn4XQWEBoXZ3/5fGLBxmM8k+TPsKKbgZ+xOm7IKqE+HKYDFeDkaukb12Ktn/G6ecZVa6AK40tZfE+7xmM8ocdT4SgwCmFAurhKkxaNlS3u9Np6VKl8KrfcI48GSlaY+lH1HCVvdYqSdoxpZfJAOcjitermE5Kow8iOO/WS2+4XzJpDVh060pkQjbd07H6KnK4InK8JuyQbGiSx0nZCPkNOGkbBSjgqiFPXjVRBKece/EM8MN4UhDRG+KysFJylkd52uqaD/x0guKwd9yeVI4URwV81ddIR9eQbzNs7Fd2rYMrZ8yGbBx/RTvGc/p7R+Pz4bLjM/n8WQiNBQT71WW94KyLFc9e8YRaenCyMd/hhBq4csZszJGgGHvytPWMEijgSmPLHSKqCYbBKShAUkA9XJGSg5NNO08Plu5XFSb6DuF8uC5DvrRJaoq9F+rhiu3YiPQZwjUa5RdDwKQK10pCZllwR/kT6SpM8huuz59xjG6/sNoqBLjK8Go3ZpAetltYHioVI+R34KRNFFADV5o8UYErojbqCqsFRbnZWfih2MuD3yXCValTbK6mb+MRIcsQkUCAkU+UHmDH4X+5LQnf4CRMXjFCf4B3zCvPXOVAo4ArjQUKtxB1/mMjlIHiCVWU5j/aoL93zJ34xYPknWIzBgPZO9fB8o/xdyZkuNLYom7CTrQTzlmugAa4IgXB0/nGoxaHF4iQ8owfZ1objVxxhTS3Yrl+uPsa4YogghjfYVzusCUxsmFLdcxEyq+ssTM2fd8jOBlfPi5LPTZ/pAlvxPJ4eR0VsdVVIcFVgldehw6dAK4qKr7GD9TDlSpPmEkUootKcCV1KkxaNYrX9bOAOPw1ZNSy0Sb8aYfyyy8vGaxn7XIa29tUdv3AzD66OhiB1VFG6bGNtCwsBxoFXBFqC4j2q/uilMf4DOL2mrY3GXulm3poZh+OjUeYQJS14WOOxTeHskWIMPfMvEH6OmrhGurcw3TywRKExhZ1bpPshAt2K6AJrogo59RCOz7HsKuFGYdn/fUmbCMCHGQFtIArNoItGcrlDvONlaJSafTBWxTlnFlmb2OkyzG3tOzM1eX1HLswBNuaoeagr6IEVyledQCuatRs81ua4KqaJxRwRRD6qGvhgQpcSZ0KknbNGGCsy+tqyTfUNxvidBB7tyhM3f1NLwNdI34PvpnF8Flu9lYm9kF56iijlN7awxVBKC0g+6XG/5K4DZNteLpGfL6xgZHNVwFR2GOC6FbI3MHGuob87l279p8265OuQ6W7halmrqLMbRNNdY0tP1oaXU5lizq3yWbCFasV0AhXXB1BXkpsdHx6ofpxnrVCqsK1VVII8q7HR0VGJ92U/UpPc2uvUEVzo1CCeQWU4Nq6Dtou6qVZSdGRMUk5xCdpbBCIik2+Rb+O0jpvyLWpLCCXQBBa/0W3My9Hx1y5SfqZLiLIS4mPTy3QZhAT5CXHRMVnSjcgamOLsm1wDQpoB1fQSa0CDMNVuS9RblTwniCVY/ePkZJtIcrl4br9KsAoXNuvm2AZKAAKAFwZyIE2hmt5wsZvx36scnz6TUAs/ICdgfC9ziYArq9TbegLFHiDCgBcGRC/jeHKgIXQRDtRAODaTgIBZoACba0AwJUBhQGuDIjIjiYAruyIM3gJCsC/58pEDgBcmVCRFW0AXFkRZnASFND4P+4HibRRAOCqjUpQBkEQgCukASjAEgVgWZiBQANcGRCRHU0AXNkRZ/ASFFBZFk66mpydnVMGR0sUyC8oiI6JbUkNKMtSBSKiYoqLi1nqPLgNCrBJgYzMG4VFxc3NzR2a8eNqckr0pbi4hET4o70C0ZfiwiKitC8PJVmrQFhE1KW4BNa6D46DAuxRIDom9mZ2jgKuGZk3kHv3UDhaosDz5xWXE5NaUgPKslSB2PiE33//naXOg9ugAJsUuFMmKCq+DXBtVcwBrq2Sj02VAa5sijb4ymoFAK4MhB/gyoCI7GgC4MqOOIOXoAAKcGUgCQCuDIjIjiYAruyIM3gJCgBcmcgBgCsTKrKiDYArK8IMToICKMCViSQAuDKhIivaALiyIszgJCigEa7VBRGH9pOOg2cyHtWDciQFVOFal/Wjt5ur5HBzc5+7wGf1jnO5T+pRtOpa0DzpDcJf7n4/F4mxNsUPM06sc5863m7U6E8nuwacK6gg9aR0UZt50FPSjZub+5x5XksDD8eVVOKF6h/FbfHwPycQ03eo1BhcvgYFlODaugDiGaPBaDU9aKiJomj9/agN87ddfqq5JFbi2ZXt8wMj79VrXUueo/Tt19y9nlamjZ/0TWh3R7Ujui/OieSWiKJd74RS9Q/jtm+JvFenvfSvMthIOmzZaEMwUotTaRbQlaxHItbP35H0nO5+Sz+vF4atm78rGUvDa3s3nLvzOnJGk40a3rk+CnHo011+WJrqd9S32yLBgKaWWXRfFa7V5xxM9QbN8g/Aj3X+S13HW3N5I1Zdr6rJObUR/3Ctm52ZTt8pfvhF4J5Ld8Vo9a19X3c3sv7cZ2fIhYun96+c2s/Q1C4gVUJLKj2rQr8zNhj6/RpJN2uWu0+w5ph+siWnFkXFZdvGGAxcnl5L3yFVi/BZ2yqgBFe6AGKPWZoDqM0AQtdDrTZ+1v9y1nf6ygjtnqbr7+39jPv++gKx1rXkLtLZUpvk3dfCOaya7j5jn1N1RPfFiU6TiMJY58SG6h+cdRw69cgv9TIRiTdpzl9lsEHRlo82NN3TfCx1gOYuWpcfMII7fv8DpiZqdTn+w7j2h7HunkbNGWa/p1ibbweddcx8rgGuxE6eXlk6zMJufQb9WE8szaZzargaTvu5SqGCuGjzh/p810j5QFGT6Nnb4LO99+TZJS7cOsao27Tj5fKsEAsOfWHG+3RnqfwTRXv4GTZymsw4o+imNmv1UL3enldqFGOzvIpKh/I7cPLaFKCAK1UAiXCV2/ZKAaRNEWmz1feyL0eEx6XfrZAmYl3Fo4fPqh4XJcdfK3n2R+Wj+4+rZCla9cuNhPDw+MzyStknWCPiJ8XXYqKuFj1GpHBFxaRaNfdyEyMj4jOFijSV9k2Aq7jy0cOnNfXP71yPibiUJsDXa8SV90KdLLvMCLn7qFLyDVBvbD3J9NqKR/efyL5t9VWP7+ONiCsfPXhaU/eo4EpUTErxE0mzqh3JNcdOlHWXu4cZ/axG/LT4WnTklfxf61AUrbybfiniUqZQ1jEGMbUKE5VE0eprS957b0lKDSarTEQqaUj2YXBt6WCDajvaUAom6V6DYxIHJJ6oai6F671neMTT7xKpoqFhrHfx0ztp8eEXw+Iz7krW9ghwRcUl2z61/uHcI5JKb+BCa7g+v+zVz9Ru0y2tnnjfgCNvsktt4Fp//8BEA5OZZ+UjjPJXtu7WmuF61l5XsC+W/Kgpz8kse0bHVlRl5EQfH56kb+54sRrgKtewXZ1ogqs0gNjwIZu5yu1Xzhj5DXUntCmComhV9p6p1oYmPQcN7mtuaDlh0/VnKFqX4z/cfODw/pZ9+vawWxMWOJo7dvcv9Sj6LGXTxO5cE6uBA3uZcC3HB157gvVa/+ulpaPNuZ1tB/a16PXhBzb62MxVXLRRVqsibeskK55xj4GDeptwraf/WIQBSH4oXKzLDxjZ2W7q5zaW/YYOtOTq954Vcre2dPtYQ52OHXX0jMduKxFrNHZd1k2i6WdXYTMZyQArn1TX5Qe8bzb6q3E9OvcZ0Neca263KvFxvZjckdw82YmS7jL3sMnXyC4ffjXWpud7w/qa63Wd5L/x+0E9+w2x7axnPHJNGsZXzUbfIiry9KxDt6GrsrCPSL0oS0MeEFThqnGwQbUdbSgF08qx7Dw8C1BMJlXN8Zmrvs0HdtaW/YYO6MbV7/39SXxWoYViNYLTroNMTXoOGfl+fwuOnuVX+wvFWN7KZq4oWi/c85n5+D13yU8usni+tr+1hGtt1poRRoOWXSc8kL02E9t/R9Rw5Y5bn3gNP5Ivhwf7fd5Dz/L7Mw/l8Vb6yqJVp78z0v8yGB+ztHWZNHLWVz/IPeM5wtB86k/365kam7W1BMppp4A6uBIC2EZwJfRwH63L3/iByXsLou+LUbT+yfXVH5gOXpFRhw1SOmaTj96rR6urKmWYrE1dNoA70CMSEaOo+P4l7yE820VXq9Ha60v7G45YevVxPVr/KGnpCI4OCa7i/A2jebau54V1KFpbsn+SedfvzxFfspHgOkKH91FAJnb7WZyHjYHd1jtitCbGvTsfXxbWwthqkukVksFWFa4jdPQwp+vR+l8v+ww1fM8v/f/bOxO3Jq4v7ttXtiSEVdlEURSkbqioqBXUFm3dtYJ1w724g+IuIu4Wd1usFa1bBWVfZKvKouwQBIkkHfflVfgBL8kz/4DvM5NMMpPMTGbCKMjcefo0k+Qu53zOmfude+9EWmFcRyRh1LlS8bKHGB1V1gzDLfdDPbubDg379x1yW3RsgmjApntMCBMG1Kbbix17rUhFb691e9FFg7MTEVeWgw3j0QaZYOoDYxINtQOouJI2ETHcRDhmTyEa8btrB1iMO1qvYNJwW/G+sb2+P666T2vM3eBhMSpKoiCIKyq1VgHnX+AodcApM3F9e+sXJ7vpF7RLmB1gaSfuklxcu4udB3h4DOhtZ9btG5HbuKAd1yrxTyfpXLJw4+WZAuGsK5qZLRN/m67PE3fTHt2FTkNn7EpGJhpAXJnw+/Jl9MX1MweQMkWU0qPjzF1+2nlK9bzi6YjZ/cx99ktaSncNE4w7onqICBvhW8t2ewvGHZWq7wyV0El/4cAtBU2VEcM1ZWEldGqiaCRu5tr23wk/4ZCd6EQMhuHWl1LpW8LCF1FcBb6H1Psf72N+FH4bXtim1TwmxqIjqsYc9WBLIq4i1VQcmXc/PTZeOCKish3iKhh9QPUIytuYqYIBm++h/jXfWeroHJzEyGhcCiqqI32EuujRKR4JGlw9RFxZDjaMRxtEXPWAlT8hTR0EuYY/NvVWiateE5VIwwLfQ7WqSXjjpRkiz7D8ZgY5qXa89V1Dxb3UG+d2Te9rNmRHMXpTqN5zRUp8vDLLyi0kC0epA06ZiKvy1cUZNk6Lb+NvOjvA1M7bJbm4YtsgjdUXAt1tB6+5Tbw30RXX1tz17uajDxD34ZWvqvLLnxNub/EY0Jnr7Esv3r179/79xxb8apF24MIq6HaIfQ5evyABfXG1suYggC3pa9wtBehhM+sS/kKlTJG2gq1epj2G/jBNe8xYFVPdjJ/xYeL6v+wQN8uZ2hu/phvzbZyXpXzIXddPOP0vbLus+Z9Aex+cuLaW7Rom9ItG7/VIEWtzVL0Dp3685ePF6ULkWTytuDIxFlsZVOkppbiO6LngFnZBNV2eadl/Q147xFU46fRz9Jbj/YWfhIO2F6GLvM2JwU7OwUmMjMaBaX0Q5imc8scb9CMMPSqu2id/NGhw9fDLwgwHG5jpaIOs6eoBy75HmjoE5ARx1W8ijxhxJBAeofeaGOQkDH8ojJ470NrE1MrZY1TAXL++ZoP1xbX5zhIH+4XxOEodcMpEXD9c/9mu5y9x+GlXB1jaibukF1fkMYf8XSNE1uOiHmJXNcljEnBjUrCLaNwRvLoqqg+MtnBaegcbvnQZEJaFiV9qBy7scyCuGIkOfCUTV/wTaVrT2AWw9f3L58/QQ/sUD9oWZYog8yoLz7AH2FxS2dqKKANhhMRG+P9XGTFCoL3xU0qPjhcM2v6wRXJgtGDUfvWvB5TPTk8izlyRJ5zQGShqSWvZzZNXCb/j07pIHGo1CqJZFmZiLNH0trLd3hpNQuaEAmTFGunHcvIZlR7CCsmB0ULfQ3XtElf1A68k4srIaG3A4baKvcOFE36ToWKNoWcprkwHG6ajDSmwx08Mpw5BXEmYEyOuFldk5mooJ5VPo/2EznNiJOgTeIqag2MsBm9/qDtzbbo217rPmkwc3Q44ZSCurf9uHCCcfFadkB1gY6fv0qC4wnDLw4hRItGovQ81zyvpa11b1TE/GzvfsPga9D6m+cmdMF9b8Zj9yC9ryA/KkRMsC5MD6/BPP5e4UjpGnSKK6kNjLR1/jC5Bd70KI8fbOv1y8w2puCrbHu7yFrn/cqWmGYZb628Gewg9w+61wG2VB32t+y+6Vt8KK19kbBxmobPnWnP0Oyu3wMt1LTDcLDk33bHn/GuqeZnKXMPiendNH7v5NxphmIGxRHFVPjs9Weiy4Cby+MHLrFBvlWnIkG4i8N5896USbpXeWDLAyvdglQKGWzQdkYDUuVLJZY9EXBkZje/v480g+76/ZunvuWruEmDNfQeuHn7min7MZLCBmY025MCYREONSb3nqsecVFxbGTS+Dx2mAAAgAElEQVSM3IKYDwjJfI88iF13PdjD1AS5RVTnrRqLoipypOXEU//hKHXAKQNx/Rg7Q9RrZbpGFTrAyk7eJQNxReR1r49INCqiWA1S55JFXVS+yIqc6WltJuzh6tpTZGrZL2BH0n/4xV4dENQjJ9hz1UHVSd52InGF4Zbqi0uH2JiJHV2drCzsRqy+Ua956lK1torpiBKGG0tO/+whNrN2crYRWHvOjUYfRIHh5so/gjytBXZOPW36/jh9pBV+z1UJwy1VMQu9rC1snF1shbbeK29ICclsUFyVspjpdqY2rv77itoMGksUV1j5KnnzcBtTK6fejo6Dfgn+3hFZsUaGdPMBY7/rY9vT2U5o7RX0ezm6mITvSC9TdK5UDApxTkkmrgwIEzpTvvxrpv3wPegDxOS9MBNXZoMNzGS0oQJmOBoEcdVnTi6uTIgp6mMXuAtMrZ37ONu7jA5eP9PNdual1wRxVT47F2A77rB6Q5fA+Eu+YSCuX9Kcr7MvfXFtlx8tr+tKC/KLqiHCzwnb1SSo3EkI6IhrJ7Cq6Vl1Uf5DyQvcjgWVVcqPsoqih1UQ9pNYdbm2d9Ky4spnVI/iIbUKCyv+06lF1YnO562vax4WlMnUe1IsjEXbaXldW1pWr/45K7LorfqnC543PqsqLm8g/MaN2JGOFe16y8LojxmrBwzb/hD/85x2dc2gMv1oQwMMhpk5RtsEuYEGG259XVtcUFzzinzGp3x6crLb3Cuc/QMV5EYa/hSIq2FGBktwLK66/SlfFsZfvqR3xN7KB0v1uqw6+/vOJ66dnRin9hHnS5w2zU1jiifnpw1ZEodfPOemYSNb4QAYB02wM775ftjIsftKKDfT2LXWjtJAXNsBD6v6mcW1rfzM4oDJescPC6KxXzlghoDXzk4AiGuHRkjx9PKv07feYfVj8i9ssKL+79Btt4i/LPjCJuC64wAYB03gDDJ8+j47at3pUvI5reHaXJYA4soBzc8srhxYCJroJASAuHaSQAAzAIHPTQCIKweEgbhyAJEfTQBx5UecgZeAAPh7rlzkABBXLijyog0grrwIM3ASEDD491wBIiYEgLgyoQTKwDAMxBWkASDAEwJgWZiDQANx5QAiP5oA4sqPOAMvAQG9ZeH8wqJ66dMmcLAh8PzFy9S0DDY1QFmeEkhKSXvz5g1PnQduAwJ8IlAtqamW1Hz69KnbJ/TIuJuVmJyakpYO/mNOIDE59XZCEvPyoCRvCdxOSEpKSeOt+8BxQIA/BBKTUx6VlGrFNTfv34rKKggcbAjUPXmSlp7JpgYoy1MCyanpUqmUp84DtwEBPhEoLimV1DwG4tqumANxbRc+PlUG4sqnaANfeU0AiCsH4QfiygFEfjQBxJUfcQZeAgIQEFcOkgCIKwcQ+dEEEFd+xBl4CQgAceUiB4C4ckGRF20AceVFmIGTgAAExJWLJADiygVFXrQBxJUXYQZOAgKMxLWhOP542MolS1aGHYsvbgDQ9AnoimtdXMTCQL0jKOR0LlpXVpZ0cnNQwLiRQ4eN+T4w9Pfsx4Qm5Y/+DF2wYMulYjnx4/Lkk+GrlixZs+1MWiXxK0I5qDZu76LV0dk6kWpIO7xsyYEk/IOqj2/tWRRyOlcGQdLEqMULNv7+QKZtSXoncvHaM/dkENSQFb06iOhNkOobbWn0TJp0IORImqYHagpoN5+ZAmqRvDLt1KbAAN/hw0aMCwjcGJ1YglKRFcRsXLjuLOIc7pCmH12xNPJOLWN/cXUZnxLElZqQqj2jEMmZ5gneZipLTsbFbl2863o1viyH5wYcbF9P0oI7ifiMZtQaFQj0MmHUAuNCFNc5Sf3OckWrTet8VxUJs87wkaE9V3nJH/NcRc6+gatXB/o6i1zn/q4z5ncGJzraBl1xlWacCQ9Fjk1BI6xN3AJC0DdbIq8UQFB95v7JjiLXCSv2nIiJORO1LsBdZDUyNKFW44MsJ3yEjY2N5fDwHNzgXxMXMkjs4DNvxbJZQ3uIBq65RRRkTW0IgioO+5k7LriiETnVd/W/z7QSTT1dhytZfnCCueuSG1IIqjs1RdDtG1v/g/c1XT7+7XtBn+VxUgiSXg5yMHWfuh51QvW/LfuvFmpKYi1Kby51H7+vSKP71BRkX4ACBMkenJrTV9RzROCWI+dizh3btsjXWejgH5FRD0HS+JV9zbw2puNvQOquLHAR+x9+JGfqL+Y3q1eCuFITgoxNFBZ5grebypLYhPOrflz3VwW+LFfnBq+EdnUk/SfYrefcP+tZNkIF4kqBXr6zbFm3OPl1rlsKfd9ZrmjEmE55VZFS6/gPDYlrxRF/keuS62iO1t9a5iYcH1WiGT473vzOYYGuuGqskt5Y4mo+LlJ7PyLL2ekjcpgarZUmWf4hf2vhmD331ZUaUtYNtPLfts1f7L76DiaQ8oLI8WL3lfFoGGrjVriLJxx4RBUG4y5FodDWVoCTV6K4mvsfNvTjZ2lSiJdPODIP1j3YUFBXbz8FWf4BPyt7/6hcjCEEyQpPTXMUDg3LaIAaMjZ+a95/TaL2S0nMnJ52089Uqm4mGPir6yWz9wRx1VTRIwTRJAoNIlZ5oukdf6Jriay2oqSyTg5BstqKMolUVp0XF3vpZlY5cltSW5B05a8ryUU4AasvTr/+18WrSQWPsexseFxRJqmrzI27FndPgn2IDNLUV4LawbpHKdcuXryWXFirrtbwuKKkCutMXldZUlErUxlWLZXXPLhz+a8rifmqm05ZbfHZOQ52008UoGWQexVdy6gMU9MggkAwlD/W3ovVV5eW1zTIaitKq6UNFdk3Yy/H51XhU1+vOzxk5Jw0w3ULqd93niu6k15VFNw6+mND4io585O1w8xzFUh+V/8V6CL+4fhnuY3taA7t6p+xuDZkbhpk6rr0pnZMhyBIWpiR/ECivjKlt5b3tZp05FFpdIC1U+Al9fz08ampYpdF19TVpNcW9bKedlY72SUab9ylKOoVFLl5pKVGXtmKqywr1HvwBsJcEDOLOE5B0JegIMsJH2beO/gfAmmo4e7mwWZ9V8ZLIdm9nT5Ct+W3sO/LT0yxdQ6KRZgiM9eOFlcjEbHKEyw8hFedWCEYBb77HkENWaFD7YZP8u3j4vGtm42pvf/G8FmeLv0G9rU1tRy6KRGRvLr0yABXkdjFc6CbrchhfPgdCaIhGRsH2QwY5O7Q281p5OZMjTwZcFByO/w7R4HYecCAXmKBw7gtcVVoU98K/A6rhh95ceQ4wZCwbBlimO3IgAl9HPp5DXAQmLnOOFEgk93f5Ssy+eYbE1NL3133ZGSWURmG0SCCqLuywBld1kC/bkhe62nzw2+PMkOHWA+bNNbJtnd/N1uB7cj1N9D9GrLusGaxV/LrHPtW57XTXNGd9arS4dVZ3hoSV0iaE/3zwJ6uIyZNHuXW033G4bvYrWNn8aAT2MFYXOvOTBOZTTxKPQmsjQ10sv3pdAUEVZ+f2cMmILoMuauRPdg5UjB0C7ZMLMveMlQwanc+bh6Ah2Dspbj4ek1GOCKvB5DFYaK4mvafHrYDO3Ydj9NbvZA92OXrsRJZRdY/iOMUBHFLQb8/5JO6c9PF5pOPI+M7/pDGBjqYjdtfIofkjw76iXstvIauk8sfHfYX90NEVy2uBv3FN8rmnOHM1ThE7PKE1GydWOHFdbCJ0CccXVS/s8q9u6nX6rhqJDV3jxH2XRkPNWSFe4s9lsSWyCBIXnVng7fVwLVJqiUCE+sfjhfLofo63NBB66A04df+ggGLLj1CJqYlV4IHCvsuv1WPrDaQiitiWGhyDQRBkquL+piP3InstEovBzn2QJeFyS1DWiMzDKOiA0J6c2lv0dh96DUnTVjd337amcqGrNDBJqaIz3JIXn59hZfIIyRJSt4d1qz6lfw61ymkedtprujOelVpSHWuE0PiWpu0y8/JfuDU5Rs3Lp/q1cNl4p4U/LZd53Kmo6xhLK61JwMsBFNOURKsOjvd3mFuDDJOQLWXg5xFY/YgA4UsN9xbMHIHtiEqu7d9hMCbdAUWqcjyUkSm0XWnpoh6Lb4uhaQaeSWKq4nD8KnTsWPW6jO6D4rIiw/591twBTd64mKhM05B3FLAdYQ7rTk+2Uw07Ywuaen1xb3MRu1Cx8iKUz/aOs7/6zGiEHvGWA7alKGaVyEzV0P+4npid8pQXI1DxC5PSA3XiRVBXC2wnKs64m/Rd+Vt9Fak/uLPPR0CY+X5u3zMHCdtiIxCj/2hU3ubDd2aI0M0zMJnl26+0OZAQ8amQRY+qiBBECR/FDlW0P/XJGpxtdBcG5KjEwUeIUkNOHGlsIzKMIyKDghIeme1u2DE9lwZJI1b0ddhTkwNMpsfLPTdp96fkRfsHiUYEpp5nxQE1qzqleI6JxbSvus0V3Rnvaq0qDrVmQFxrYgOEDvMialU2VwdG9RLPPGw3rSlU3nUAcYwFlfprWV9zLzD8/C7M5C8PDsxs6QeguQlRyeLv+luaqE+TLt3M/HakNYAoWtgmsEfakjf6CUYi9vJJbpMcSn+OdfOfPJxVLdV5eVFe33N+61CNnY14gpp5DXzGP6BJkPLpFUnf3Sb8wfFQ1Z64xSnFIjOY++k1xY5m+kP6pXHJ4uspp9TrajX/DnPoefsPyQN2VuGiUfvwu5dOsOysHGJYjhPpFcX9xGp0stqSjQGC/eqEyuCuArQKT8yQTw2SeC5Lhm9F6m/NN/BITC2ISlkgKmd14TJ2iNg4dGcBoIi4vuhyQHpzSWuogDtLWjduelWDkGXCU3hl4UHC8ZFlaqWcZBbwgEhyDPxmpkrlWX4eTDOMOxUBwQENaStH2gxeHPm4xtL+rigGwgNWaFD7Gf9gd1R1p0MELktvxlPCgJrFnmlvM7xhfDnneaK7qxXFR5WJzqnF1fZ/R0jLQZvvqveKpEX7B5tMWiTduekEznSkaYwFleoNjbQUeizC6+uspxwb3OHny9CsvwIX1GvoJjCYvXx6J81A01dl1yvg6TXFrrYzjivFq+ac9NtnfQeB9YAIL8UG5LXeph5rkvR7HpB9Vd/cTYfvadAThBXTF59xw0y0z4tbEBcH8fMcZsSrb4F0xiCneiNUzQUarmi8Dg2yFkwLCwTv1Ate7D/O7HNlBPoWjvykMuNJX3spp28teFbm4mHNU+ddQZxpUsUGkSG80QqKStRpZf22SAsTsirTqx0xFWtYSTiiswPzd1XJ2C45VIpmmkERcR3RJMDkqzQIRbaW1B5/q5RFkjmZmwapJFRWc6WoRbqPVd6caWwjNIwtZE6IJDtY8SswSERga59ltxAFBWZuYo0D3iqlw3+vU8OQus7TYZrCxHOOs8V3UmvKgKtzvOGXlwh6e3V7hb9f/mzSIrsflxbPUTUGxnswUEgwFxcoYbs3b5WNiNWx+ShSln/4OKakdai4VszpLKcrcMs3NAfv2CNy3LCh5vbzThXBdVeXehqMyosUQJBkoTNPla9FlymmCaqloUd5seUVWOHpKYOWSeLW9nP1NZn1ak790vKi3Pjji0abCnwDkdvnHAzV6RvZHFY1K1bd6biWn91YT//gxp1wszHXknGqc9PAZI9OBbgIPL4+Vh6FTKrkT/OObdsqJXV6B0ZmABAUENSiKft4KHuPaef1e6DdwpxNTJR2OQJFh7Cq06sGIsrJMvZ4SPqOTEiHd37TNoyytph9vlK9LFszUYpoSfqKwFqSNk4SNhn9qk85FdTD87P7ydwX31bKi/eP17gOOt8iRySld1YNcjchFZcry/uZYOuUZBbxl5cIVnejpHmIpGlu3pFHN1ztRi08nqZHJLmn5vX13LktmwZeXda12mvc6jmXvzVuJxq4uMUiLh2kiu6c15VWrqd6syAuCJj+c7vewtMRD0cbAXCXv5b42j/AYNO5dsXM4aFuEKQvPTGlgB3sanAztnZXmgq6u23PvaRDEKeQDRzX6O59UeNlxdEjhOK/A4WyeUlsauG2ZqJ7O1FZrbeq2PVy2BkLlYc9jPthj++sZ1zAbnTliRFTBsg7q7+ytR+2MKTOSqh0RFXtbyaMBRXafxKT1/9bTWNbToDtsozYyhALCggvdTePbH8OzexwMa5dy87kchp5PzIBGL6yrK3DjP9P05Bl3GPXncOcTU2UZjniSY++BOdWDEXVwiS5vz280ArU1FPZwdLc9shi84hG610GkZxJaCRS98/3V1kKnZwsLIQu/8UkYRItrw8duVgK1NLB5eePT1nB37Xc6jqaWHSmau86Mj3NqZWzmPDkhvILKMzDLFABwTKSJ6/b6yFCbYgjs5czfr6jO5lbe9gIxAPmHk4E10iJutOw5j+Om9I3zDQrN8q1Xa2pk7nuqI74VWlIdW5TgyKK2KuTFKQmZSUkV+tXVPsXF50sDWU4kptl7TifkZSYnLOI+xHfNRFtd/UPspKTspiVUVbWX0mLb+fkZiQlJFf1QmC+SUoyOvKH2SmZOQWPybsdOuB+TIfkD/QRNO3MYi4yBMak+i+qivOSU5MySnFNiLpyqq+o3RQ/rjobnJK9iPNT2bR8tKKexkZDwi/KaXqQ1qRl5KUUaRe4mFvmX67kvMzHYaFZamvHGTmKhgXVVJbnJ2WWYj9mE5dy9jupNeWTg3PZpOqHXJFd66rSj9SneITRuLaKSztxEYYIa7t9kZelhRzMlrvOPFHIp+eN/vqKLAW13YnCmiACwLyqvyslAtrhjv6HUAeUkAPtbjSLCKx7lle/temkLP5bLSVdR+gwpciAMSVA9IdIa4NmVFz/cbrHRNmRaR1gikpB1AZNfHVUQDiyiiuna6QNHHTCEeXIXOPZmt37GUFJ5d8H3JRu1vf6awGBnUoASCuHODvCHHlwGzQxJcnAMT1yzMHPQICHUIAiCsH2IG4cgCRH00AceVHnIGXgAD4e65c5AAQVy4o8qINIK68CDNwEhBg9PdcASZDBIC4GiIEvlcTAOIKUgEQ4AkBsCzMQaCBuHIAkR9NAHHlR5yBl4CA3rJwTm5eSUlpPTjYEKisqkpOSWNTA5TlKYGEpJSamhqeOg/cBgT4RKCw6GG1pObTp0/dPqFHbt695NT09Mws8B9zAsmp6bcTkpiXByV5S+B2QlJqeiZv3QeOAwL8IZCckvaopFQrroVFD6Fnz2BwsCHw4cPHu1k5bGqAsjwlkJaR+b///Y+nzgO3AQE+EXhSL5XUPAbi2q6YA3FtFz4+VQbiyqdoA195TQCIKwfhB+LKAUR+NAHElR9xBl4CAjAQVw6SAIgrBxD50QQQV37EGXgJCABx5SIHgLhyQZEXbQBx5UWYgZOAAAzElYskAOLKBUVetAHElRdhBk4CAozEteVp1vndG0M27jyZIPkAmJEQ0BXXpn+jVwXrHcvD/5aglRUvCy/vXT5zkq/PqAnTgyP+qfpIaFP53+2IFSsiE58piR+/KrocFfprSNjBq8VviF8RysFtpTEb15x+0Ir79GPu8dVb/5YoYLit+I/1IWcLyL9szT+zZsWuf+oV2qot90+u2XatFqlZeSlsOdGp5apvtKXBmSECBHE1kCewUYmiZJonnylRQJ4YygHwPU8IGNpzbas+PdXB3Ml34cbNwX59bAevT3lNN7DzhJqOm7ri2lJ6NSoCOfYs87U16T8jHH0TeTL1KQw3l5+e5iLu+8PG47Fx8dfObJ/pYWnjG/GgUdOkQnLA187OzmpMVDVO5D7khXtbO49dsnH9Ah8HyyFhuURB1tSGYbj59iJ7wYzYJtxnr879YOEWktUCw83/BNlYzv6b/MumK7OE3b6xm3quTtPzx4vThe4b8lphuCVlubOpx+wdqC+q/0WeTm/QlMR1B04pCRDElS5PjEwUFnnymRIF5All8MEX/CJgQFybEoKdxOMPVaEznTbJkfHWw/eUtfELkWFvdcVVU6MlK8TNYuIp7RxUUX14nNhp9iWtJimk56faiiYcr1NXanu4fYjN1IMHp1h7ht3HJpjKp6cmW3tuvteMFGrM2+hp/cPZ/6huctolriKRnZ3QXiuvRHG1mPLHW41z4MQIAgRx1dTXyxOYJlHUtzNkicIqT9onrpSJgogryBNNaMEJfwnQi6ui9pCvwGc/NoVqK9o2SDjp9HOqYZ2vGBmLa1v5bm+zvmuzW/CkWhpKi+rfq4fMltwNA2x+ioFe/DXDtldwonp++vHKbOveqzPU1VoyV/exnXddO9nFt9bOmatln+Wn9vpaaeQViCsRbnvfMRRXIxOFVZ60T1wpEwWIa3tzBNTvIgToxRV+9cdUy74hWeiMCYY/3l7sYDpsVymYuhKjz1hcm67NE5v/GEM9+2tMCu5lP/fv1zD87maQg93Mv14iNzKKJ4d9hT6R2D2OoipypHD8MSnFPQ4yczXp5TtvvvaYPdrZhNmysGWfNXc/lEb5WtlNOYssDhPF1XTg/H2HsOPIn3ngNouYCIbfMRRX4xKFXZ6g4sp9oqDLwiBPDKcCKNHVCRgQV+Wzv+c5WQ4MOnzr7t1bh+YP72FpMmRnCRBXYlowFtfGyzMFwllX8DuehJbeXp/f03lxPPrYWGPKclfLCcefKGBYIYkaLfQ9hO2EIusJwtEHkOeTyA5EXE0H/xKFieChQ4f2zvMwNSCuyGy66cosRFxb4BaNvBLF1cR5zGyNZC8Iu4YYBw42BBiKq3GJwi5PUHHlPlEQcQV5wiYnQNkuSsCAuMIw/K7w3MrJQwf0H+y39OjNvX6i8ceeUkyZuigiw24xFtfW3PXu5qMP1BA0SfmqKr/8eTMMK5/HTLP+prupQH2Yde9mMnRncRusfHZqotB7N7bZ3Vaya6jQ/6R2J5doIf2e6+3FPSym/Yl76lsp+83PwiMU2d/ViCuskdfyC/gHmsBeGhE1+3cMxdW4RGGXJwaWhY1NFLAszD4rQI0uScCAuCpfPExMfPhCraYfby927r0K2/rrkjyMcoqxuMKNScEuonFH8OqqqD4w2sJp6R1YIY32s+yzLL7hmfr4LydssFnfX+82wS0Zq3rbB95U78B+uDHfrteKVMLGLc5uWnFtK9r2rfmg7Q+1iw/N6StdLb47jtwx4cQVhlvLDvha2flN8jbXPi0MxBXH2ahThuJKlyiN1InCKk/oxdXoRAHialRigEpdj4ABcVXUR/tZea3PfgvDyjf/7vS18wpTPbLa9Ui0wyPm4gq3VR3zs7HzDYuvQZWy+cmdMF9b8Zj9pa2K6v2jBP035OE0UyE5MMaiR+CNt3Bj+io3u/H78t/D8PsHe8fa9FmRQvlbHFpxhVv+3exhajcu9Mr9uuevnknyLqwebiUcHVWBqC1BXFXyKu7WrTsQ13bkhk5VpuJqZKJQ5cmH2nvpeZJ3xCWnz5MoQFx1Qg7e8pWAAXGF4Y8FhwJcRNbOfRytbDzmRBdRjul8JQjDMAtxhWHli6zImZ7WZsIerq49RaaW/QJ2JP2ngJEnsc09wwj/9gOsfHpyokgccE6mVD5PCh1lZy7u2VNsbjc6LBlbTCChTj9mwvD7guh5Xtbdu6kO056jVl2WqBRdR1zV8moCxJWEspEfMRZXYxOFNE/aSnYOMfcIvYf9tEtl/OdJFCCuRqYGqNbVCBgUV8Th5heShw8r//tA2CrsaiTa4Q+luFK32fK6rrQgv6gaaiTOJqhrIL9whSqLCitZVaFqr+VVXWn+g4Iy6VvtAjFVWfA5dwTIxZWmfWMShSRPWjLWzo6qMuICBolCExzwFSBAQ4CRuNLUB1/RzVw/Ix3ly8L4y5f0jthb+eD3MZ8Re3ubZi2u7e0Qra98lbBn63WpEdrKSfegEUCAjwSAuHIQdSNmru3uta38zOKAyXrHDwuii8FctN10P1sDHSOun80d0DAgAAhQEQDiSkWGxecdIa4szANFOw8BIK6dJxbAEkDgsxIA4soBXiCuHEDkRxNAXPkRZ+AlIAD+nisXOQDElQuKvGgDiCsvwgycBAQY/T1XgMkQASCuhgiB79UEgLiCVAAEeEIALAtzEGggrhxA5EcTQFz5EWfgJSCgtyycX1hUL33aBA42BJ6/eJmalsGmBijLUwJJKWlv3rzhqfPAbUCATwSqJTXVkppPnz51+4QeGXezEpNTU9LSwX/MCSQmp95OSGJeHpTkLYHbCUlJKWm8dR84Dgjwh0BicsqjklKtuObm/VtRWQWBgw2BuidP0tIz2dQAZXlKIDk1XSqV8tR54DYgwCcCxSWlkprHQFzbFXMgru3Cx6fKQFz5FG3gK68JAHHlIPxAXDmAyI8mgLjyI87AS0AAAuLKQRIAceUAIj+aAOLKjzgDLwEBIK5c5AAQVy4o8qINIK68CDNwEhCAgLhykQRAXLmgyIs2gLjyIszASUCAhbjWJR9eeyhZ+5yjvDz5ZPiqJUvWbDuTVinnN0pdca2Li1gYqHcEhZzORTnJypJObg4KGDdy6LAx3weG/p79mIBP/ujP0AULtlwqJlJlDLw2bu+i1dHZDYRGVW+oeq6P37cwMGhJVGI9vpLkn92Lgn4Jv1Iuh6TJB5cEoR4FBQUtWLh0zZbDV+/VYoUZmCZNOhByJE2bPh2LCDXcOBgQ1C4YBHE1AAGislDNnTxRGARDXZ/7RGkfG9Qs3URR20qBwkDiGgoWc1ZqM8ALIMCcALM917qc4zN6m1pOO1unbrkmLmSQ2MFn3opls4b2EA1cc4uoD8z77xIldcVVmnEmPBQ5NgWNsDZxCwhB32yJvFIAQfWZ+yc7ilwnrNhzIibmTNS6AHeR1cjQBI1QQbKc8BE2NjaWw8NzZFo6LIBXHPYzd1xwRStk6lZoepYcm2Ta3cTUIfCS1g6o8vRPdibdTUfuuC+D6s5OszT3mrUJdSR0U0jQeFcLq9E7MpBOmJgmvbnUffy+Iu3tQsciog0DPQwIooSBcDYEgyCudBCMTBRD/WszCoK4TxRqNkYnCmIwddv65vUAACAASURBVObSx+o+fbDYsMJzA+eAACMCBsVVXpGw/+fBtrbOjiIxJq7ygsjxYveV8eg8pzZuhbt4woFH2oGTUcddqZCuuGp8k95Y4mo+LlI7B5Xl7PQROUyNLtTopiz/kL+1cMweZCBAjoaUdQOt/Ldt8xe7r76DCSQr4ORjJk3PMkhybJKFy6jRfZxw6lpxYmrfUWMGWGjEVTz9HHZvBUHStA1epq5LbkoZmSZNCvHyCc/VOK32FXnpEETtgKEer8lgQJBhGARx1WDQgwDRWojWI0sUw/1ruoSoxJWmZ8hQoqjElYzNTQZskGwgSRQag2QGEpcuWOxY4bmBc0CAEQGD4iq9HfbjnPDLedeC+2jE9fGpqWKXRdfUQ7/02qJe1tPO4uY8jHruQoUYi2tD5qZBpq5Lb2KiiTKQFmYkP5CohUd6a3lfq0lHHpVGB1g7BV5SLwiwAk4qrvQ9I2NU78W7lro7zf9LFUd5+W8B/ebsChlMIa5Q5WF/M9s5MfVMTJNlhXoP3pBOtlCtJ670hiLA2o+Ivg96GGTjtRoGBBmGwVBc6S2kpGC4f/xVx32ikIgrligM2EAQWaLQoqCPFTZzJag9Fix2rPDcwDkgwIiAQXFVtyK9pRVX2YOdIwVDt2CrlrLsLUMFo3bn83fqylhc685ME5lNPEr9L2DVxgY62f50ugKCqs/P7GETEF2GUGUHnHTMpO8ZHaOCr91c2U+trvKyYwF95/2RtJlMXOX1pRnnlgwW2QZElzxlkAuyB7t8PVbGEe4oNMmpO2mjNxSCIA4Q0fdBD0NXXHEwqOKk8RWCIIbiSm8hFQV2eUK+LEzfMz2b+zriimNTwsQ20kShNcigPegavkZccQYxsQcfOHAOCLAlYJS45oZ7C9DVQrQ32b3tIwTe5It+bM35OsszFtfakwEWgimntKurOv5WnZ1u7zA3pgb5uPZykLNozJ4HMgiSsQJOKq70PavGqFuP41b0c/z5Yi0kLzky2W3uheq7oVpxFXXTHt0FDl4BG2MfyZmYJi8+5N9vwRXCs1Jav3XFld5QCOICEX0f9DBU4soKhtZZxuJKbyEVBXZ5Qi6u9D3Ts1GJKys2+J0C8kShNcigPYi4khrEkhU+huAcEGBEwBhxlRdHjhMM2pShXuZrSN/oJRiL21hk1HFXKsRYXKW3lvUx8w7Pww8pkLw8OzGzpB6C5CVHJ4u/6W5qoT5Mu3cz8dqQ1gCxA04qrvQ9q8coqVSlrjWPDk3sM/fC44YsnLhaiqdGl1ZXV0skj6Va+xmYVnXyR7c5f1A98aYrrvSGcoOIvg96GNjMlQUMfKoznLnSW0hFgUEw8LZwnyjqmSsLNvjlLvJEoUVBHyvNsjCJQSxZ4bmBc0CAEQFjxBWSXlvoYjvjvHq8rDk33daJ5OlURv13iUKMxRVZ03QU+uzCq6ssJ9zb3OHni5AsP8JX1CsoprBYfTz6Z81AU9cl1+vYAScdM+l6rkWfU+kdfEsKSeNW9HWce2SPf++5Fx5DOuKKf6BJEzeDufA4Zo7blOhKTQWdE11xpTOUM0Q0YTAEAxNX42AwXRamo1BLnSgGg0GAzzpRVA800SSKzrIwoTeDtlElCl2wMHGlSFy6YBm0h2A9eAMIsCZglLhCtVcXutqMCkuUQJAkYbOPVa8Fl6lmJqwt+gorMBdXqCF7t6+VzYjVMXkosPoHF9eMtBYN35ohleVsHWbhthy/NSnLCR9ubjfjXBUr4MiY6TA/pqwaOyQ1dQ0QTc+4MROSxi3va+fg4DIHWZtmIq6GTKu/urCf/0Ht89K64dUTVxpDOUNE04chGHTjNWQIBuNlYbpw0VGgujBr7sVfjcupxs8TVU8Lc5sodOJqiA11olBfM9q7QvLEpQ0WFSvdDAXvAQHjCBgnrpC8JHbVMFszkb29yMzWe3VsKfGyNc6Wr7YWC3GFIHnpjS0B7mJTgZ2zs73QVNTbb33sIxnUkLzW08x9TQLhsR95QeQ4ocjvYJGcBfCKw36m2u3Rbt26fWM75wKy40nRM4TXE2SQcjOxR7WVmbjS54I0fqWn7y5k45ji0BdXSkO5Q9QOGLTjNbK0T39hMFwWRmBRhMsABdL+G9I3DDTrt+o2IbmQPVeOE4VWXOnZ0CYKBQqDiUsfLEOxoshY8DEgwIwAU3Ela632UVZyUtajWl4LKwKGUlzJqKk+k1bcz0hKTM5hRY8T4Eb1TO2I+htOTCP2YpShLO0wqg+imSTvaIwgF1eSNrCPjLGQpH/ptaVTw7Op73Gw7nCvxvSMq05xSmIbRUm9jz+LQe2wR89A8AEggCfQHnHFt8PrcyPEtd285GVJMSej9Y4TfySW8P5mRw23MyJiLa7tThSkAXn5X5tCzuaz0lZOOgaNAAL8JQDElYPYd4S4NmRGzfUbr3dMmBWRRvqPNXDg5tfWRGdE1DHi+rVFDtgLCHQBAkBcOQhiR4grB2aDJr48ASCuX5456BEQ6BACQFw5wA7ElQOI/GgCiCs/4gy8BATA33PlIgeAuHJBkRdtAHHlRZiBk4AAi7/nCmBREwDiSs0GfEMgAMSVgAO8AQS6LgGwLMxBbIG4cgCRH00AceVHnIGXgIDesnBObl5JSWk9ONgQqKyqSk5JY1MDlOUpgYSklJqaGp46D9wGBPhEoLDoYbWk5tOnT90+oUdu3r3k1PT0zCzwH3MCyanptxOSmJcHJXlL4HZCUmp6Jm/dB44DAvwhkJyS9qikVCuuhUUPoWfPYHCwIfDhw8e7WTlsaoCyPCWQlpH5v//9j6fOA7cBAT4ReFIvldQ8BuLarpgDcW0XPj5VBuLKp2gDX3lNAIgrB+EH4soBRH40AcSVH3EGXgICMBBXDpIAiCsHEPnRBBBXfsQZeAkIAHHlIgeAuHJBkRdtAHHlRZiBk4AADMSViyQA4soFRV60AcSVF2EGTgICLMS1qej3beeLWvHMSD7Cf82fc11xbfo3elWw3rE8/G8JykTxsvDy3uUzJ/n6jJowPTjin6qPBFTK/25HrFgRmfhMSfz4VdHlqNBfQ8IOXi1+Q/yKUA5uzPttddilqjbip+g7qp6b751YFbws5Ex+M77S+5xjq5etPJD6Sgm3Fp0LWYZ6tGzZ8hWr1oZF/p5e24gvDMO06dBScHZrTLE2fToWUTtgwDALGERAyDuCuBqAAFOFS90seaIomebJZ0gUNmy0uUCgpJso6i8pUBhIXGbBok1cgnHgDSDAggCzPdem6j8D+5lZzbvepGma5CPNd3w70RXXltKrURHIsWeZr61J/xnh6JvIk6lPYbi5/PQ0F3HfHzYej42Lv3Zm+0wPSxvfiAdaoVJIDvja2dlZjYmqVmhBfsgL97Z2Hrtk4/oFPg6WQ8JyiYKsLQjDr38PsHBZkdqC/ww5p+n5/YWfzLqbmDoHJ2rtgN/8PbeHSXdT30N1Crjp+jwri6ELdqOOROzeunxyX4HNd4dKNSOkgXRoyV7rOfmETHtP0LGI2gEDhilhaIBrYGg+0ZwQxJUOAl24VK2RJgqLPPkMiULNxuhEQXylzlwDicsgWJpYaYc2TbDACSDQHgIGxVX5+sHppcPt7FxdxNZqcSX5qD0mfP11dcVV41FLVoibxcRT2jmoovrwOLHT7EsNGt1USM9PtRVNOF6nrtT2cPsQm6kHD06x9gy7jw1JyqenJlt7br6HTiwb8zZ6Wv9w9j+tUmn6Q0/IxZWmZwX8/sJPgt7jv3PvhVPX17GzB4yf4CXQiKv1zze0A1Br8c6hZm4h2S0wzCAdWgu2Dh17QKJxGmdwhyBqBwz1eE0GA/GKCAPnp/qUIK6ar/UgwLQWovXIEoVVnlCIK03PsKFEUYkrGZtsPTbaXNJggGGyRKExSGEgcemDRYwVqT0408ApIMCSgEFxbb23b87CqJSajHXumLiSfMSy1y5WnLG4tpXv9jbruxaRJO3R0lBaVP9eLTwtuRsG2PwUA734a4Ztr+BE9fz045XZ1r1XZ6irtWSu7mM77zpukqltDKaYudL3jIxR/dYcWevRKzhB1azy1cWZHguPhA+nEFf4ze9TzO0WxjfDsOF0UFRGjB6+s4RsoRrW1RV6QxFH24+Ivg96GGTjtRoGYhwRBiEu6BuG4kpvISUFVnlCLq70PdOzqSMRVyxR9NiQiRlZotAaZNAedJmBoPbaYBFjRWaPfvzAJ4AAYwIGxVXdUmuuVlypP2LcbdcqyFhcm67NE5v/GPOW0v3GpOBe9nP/fg3D724GOdjN/OslMj9VPDnsK/SJxJaJFVWRI4Xjj0kppq6kM1f6ntExal1m9iZMXZUvL8wYsORWwV4ycVU2vyi7ETLc0m7mX8+1NpBkiNpNRf1Rv283/YtNw4nO64orvaEwDHOAiL4Pehi64oqDgXNMDQP3ifqUobjSW0hFgV2ekIsrfc/0bHTFFcfmuRYFy0ShNcigPURxxRnExB5tGXAGCLAnAMSVPTO9GozFtfHyTIFw1hXKm+S31+f3dF4c/wHpoTFluavlhONPFDCskESNFqLLs2jXitpDvsLR5KusVDNX+p5VY1Tux383ergsvdMIK5/HTOu/+Pa7igituIq7aY/uQqehM3YlE1amKcdM5bPzUz1WpBKeldIi1BVXekNhmAtE9H3Qw1CJK0MYWjexM4biSm8hFQV2eUIurvQ907NRiStDNvoXAXmi0Bpk0B5EXA0YRJm4WMzAKyBgFAEgrkZhI1ZiLK6tuevdzUcfqCFsPipfVeWXP2+GUUmz/qa7qUB9mHXvZjJ0Z3EbrHx2aqLQe3eZel21rWTXUKH/Se1OLtEa0pkrfc/qMaq1VaWuH6DzP7ovvv2xrRInrlbWsy+9ePfu3fv3H1sI9qt7pxyj3l6e03/hLaoHsHTFld5QRPXbj4i+D3oY2MyVEQxiYJB3DMWV3kIqCuzyhFxc6XumZ4PNXBmx0RdX8kShNcigPaqZK61BlImrHz3wCSDAggAQVxawqIoyFldkTdNFNO4IXl0V1QdGWzgtvQMrpNF+ln2WxTc8Ux//5YQNNuv7690muCVjVW/7wJtqgfpwY75dL5LHgdXmkYorXc+N6HMq/dbltsKt/24c4LI45viUfotvf4R1xBX/QJM+Cqox6mPcov6zLr3Rr6D6RFdc6QzlDBFNGAzBwMSVEQx9pxmKKx2FRupEYZUn5OJK17PqgSaaRCHbc9VjwDZR6IKFiStF4jIKFpU9eoaDDwABVgSAuLLCRV6YubjCbVXH/GzsfMPia1ClbH5yJ8zXVjxmf2mronr/KEH/DXm4h50UkgNjLHoE3ngLN6avcrMbvy//PQy/f7B3rE2fFSlUU0F0zHQOjn/5Djvef2hqg2l6xo2ZcGvehgE9nJx6L0LWprkQ1+b0VR5Tz1HNsmG9B5roDOUMUTtgMBqvYfWArZ8uTMWVxkI6ClR58qH2Xnqe5J12hxyxDLkL4zZR2iOu1IlCfc1o7wrJE5dRsIC46qcp+IQLAkBcOaDIQlxhWPkiK3Kmp7WZsIera0+RqWW/gB1J/yngtqJtg8w9wx4QHvtRPj05USQOOCdTKp8nhY6yMxf37Ck2txsdlvyCOE7inXj9e4CZdnu0W7du39gvuo3seFL0DOPFFRmk+pv0XIju+3Igrq33Ng3yO1pPto6ssllv5kptKHeIqPswCIPReM2BuFKGywAF0jxpK9k5xNwj9B4huRBx5ThR2iGutIlCmbmamStMmriMggXEFT96gHPuCDAVV+567IItUYorta8tr+tKC/KLqqFGapXUq90IVRYVVrKqotcGbFTP+s18/k+MMpQlIqP6aI/r5DNXmhaNsZAEQkvG2tlRVdT3OCQWGNMzSTPcfdTpDOLONdBSVyQAxJWDqBohru3uVfmyMP7yJb0j9lY+7ucx7e7lq26gMyJiLa6cRED5KmHP1utSVtrKScegEUCAvwSAuHIQ+44Q17byM4sDJusdPyyILib9xxo4cPNra6IzIuoYcf3aIgfsBQS6AAEgrhwEsSPElQOzQRNfngAQ1y/PHPQICHQIASCuHGAH4soBRH40AcSVH3EGXgIC4O+5cpEDQFy5oMiLNoC48iLMwElAgMXfcwWwqAkAcaVmA74hEADiSsAB3gACXZcAWBbmILZAXDmAyI8mgLjyI87AS0BAb1k4v7CoXvq0CRxsCDx/8TI1LYNNDVCWpwSSUtLevHnDU+eB24AAnwhUS2qqJTWfPn3q9gk9Mu5mJSanpqSlg/+YE0hMTr2dkMS8PCjJWwK3E5KSUtJ46z5wHBDgD4HE5JRHJaVacc3N+7eisgoCBxsCdU+epKVnsqkByvKUQHJqulQq5anzwG1AgE8EiktKJTWPgbi2K+ZAXNuFj0+VgbjyKdrAV14TAOLKQfiBuHIAkR9NAHHlR5yBl4AABMSVgyQA4soBRH40AcSVH3EGXgICQFy5yAEgrlxQ5EUbQFx5EWbgJCAAAXHlIgmAuHJBkRdtAHHlRZiBk4AAC3GtSz689lCy9jnH2rzLUZtWLF60bH3En9kSfqPUFde6uIiFgXpHUMjpXJSTrCzp5OaggHEjhw4b831g6O/Zjwn45I/+DF2wYMulYjnx4/Lkk+GrlixZs+1MWiXxK0I51RuqPurj9y0MDFoSlViPryT5Z/eioF/Cr0AQJE0+uCQItT0oKGjBwqVrthy+eq8WK8wg6tKkAyFH0jSJQs1ChjZKZai6R3IYcsYsauP2Llodnd2AOYB7per5syIiiCs1G5WZVBZ2Vjbl3KcPFi8KFPSxKjeUzwzSGTMAvAICbAkw23Otyzk+o7ep5bSzdar2pWnhPtZij4Cla0OWBHhaWQ5eH68Zf9la0AXK64qrNONMeChybAoaYW3iFhCCvtkSeaUAguoz9092FLlOWLHnREzMmah1Ae4iq5GhCVp8spzwETY2NpbDw3NU8oMCqokLGSR28Jm3YtmsoT1EA9fcIgoyESJNH5Jjk0y7m5g6BF7S9ghVnv7JzqS76cgdEATVnZ1mae41axNqcuimkKDxrhZWo3dkIOMUk6hLby51H7+vSKP+1CxkxsJgw6LisJ+544IrGq3HQHUUIoK4UrOBvko296nTR2pk+qDxog4WfTrfp81nRumM5Qt4BQRYEzAorvKKhP0/D7a1dXYUiTFxlcYGOlh/f0w1tZJXnJlmZzPjPG6wZm3FV15BV1w17khvLHE1HxepnYPKcnb6iBymRhdqdFOWf8jfWjhmDzIQIEdDyrqBVv7btvmL3VffwTRBXhA5Xuy+Mh6dbtbGrXAXTzjwSKNf6prYC00fMkhybJKFy6jRfZxw6lpxYmrfUWMGWGjEVTz9nPouCpXUDV6mrksgiFHUpUkhXj7huRr3MKMgSI8FRGsoWpEMBisWELm40vb8WRERxFUD5ythAxlIH7W4kqXPTePThy5Y9LHCxJXMIGb2aCIETgAB1gQMiqv0dtiPc8Iv510L7qMRV1lFTtytLGxt8vGf8xzEP50B4qoPX3fQbMjcNMjUdelNTDTRGtLCjOQHErUcSW8t72s16cij0ugAa6fAS+r56eNTU8Uui66pq0mvLeplPe0sBXD6PpDRqPfiXUvdneb/pWpAXv5bQL85u0IGU4grVHnY38x2DgQxibosK9R78IZ0slVYXRYQvaEIGlIYbFhA5OJK3/NnRcRQXOkt7KxsyMRVnT4xRqcPLQr6WJGKK5bPTNJZ/4oGnwACjAkYFFd1S9JbOHHFty6JWzvE0nnehQqqiRS+cBc9ZzxzrTszTWQ28Sj1v4BVGxvoZPvT6QoIqj4/s4dNQHQZglX2YOdIwdAt2DKxLHvLUMGo3fnkxOn7QEej4Gs3V/ZTq6u87FhA33l/JG0mE1d5fWnGuSWDRbYB0cTQUURd9mCXr8fKOMK9A1ZRT1zpDYUgiBQGBQusF91X0pkrfc+fFRFDcaW3kCUb8jyhuPGg75meja644tKnhBAYNulDa5BBe9BtDs3MFWcQE3sIZcAbQIAlgXaJq7zs+sZRtlZDQ25gs1iWvXeR4ozFtfZkgIVgyintmqsOgKqz0+0d5sbUIB/XXg5yFo3Z80AGQbLccG/ByB331bNb2b3tIwTepGuvSD3aPlSj0a3HcSv6Of58sRaSlxyZ7Db3QvXdUK24irppj+4CB6+AjbH4NWjqqMuLD/n3W3CF8KyUxkM9caU3FILIYVCw0HSjc0IqrvQ9f1ZEDMWV3kKWbEjW6FFKnLNRiSvH6UOLgj5W6pkrvUHU6ayTSuAtIMCOgPHiWnf3yMx+lg7fhcfzW1mRhyao/m1hXUGR3lrWx8w7PI8w3MnLsxMzS+ohSF5ydLL4m+6mFurDtHs3E68NaQ2QvDhynGDQpgz1amtD+kYvwVjcTi4h5PR9qEcjqVSlrjWPDk3sM/fC44YsnLhaiqdGl1ZXV0skj6UESxFX6aJedfJHtzl/UDxqpcsCojeUCgYFCwIC3BtSAaHv+bMiYiiu9BayZMNq5krfMz0bbObKafrQGmTQHtXMldIg2nTGpRE4BQTYEzBSXOsz9vk7iL0WnrtPugTI3o6vugZjcUVWOh2FPrvw6irLCfc2d/j5IiTLj/AV9QqKKSxWH4/+WTPQ1HXJ9TpIem2hi+2M82rZqjk33daJ5AlYNUOaPmrRJ1J6B9+SQtK4FX0d5x7Z49977oXHkI644h9owkXGQNQfx8xxmxJdiauAP9UTVzoYtdQwWLEg33Ol7fmzIoIYiiuthR3GRvVAE3X6YOLKbfrQ5TMmruTpTL7nqklKA+msKQdOAAGjCBglrtK0TUME1qNCTsVix5WkQh6rLHNxhRqyd/ta2YxYHZOHKmX9g4trRlqLhm/NkMpytg6zcFuO37CU5YQPN7ebca4Kqr260NVmVFiiBIIkCZt9rHotuEwxQUQeOKbsAzc6QtK45X3tHBxc5iCr0EzE1VDU668u7Od/UPtktE4+6osrjaF0MFixQGauDvNjyqqxQ1JT19BhiCDG4soxm5p78VfjcqqJc1jO2dCKq/HpQ5PPGnElTWdacTVkj076greAAFsCxoirNG6FW3ftthxyZor/vQlbG7768izEFYLkpTe2BLiLTQV2zs72QlNRb7/1sY9kUEPyWk8z9zUJhHsUeUHkOKHI72CRXF4Su2qYrZnI3l5kZuu9OraUOE7qIKToA8KLKzIcuZnYo9rKRFwpoq7pWRq/0tN3F7JFTH6QiKuRMBpYsKg47GdKSNVvbOdcQAzsCEQQC3GltNBAopCyaUjfMNCs36rbhORCZvX6bJANc2PZ0IkrRfpo0pg2fSgN0oorWTrTiashe8iTGHwKCDAnwFRcmbfIw5KU4krNQlpxPyMpMTnnUa1meKEujH1T+ygrOSmLcRWj+sD6+pKvxhjKkgWFO8b0TNEUs4/Jl4Vp6hpjIQkb6bWlU8OzKe98yAwwpmeydjj7rNMZxJlnoKEuSQCIKwdhNUJc292rvCwp5mS03nHij8QSFnLdbjM6RwNfDwzW4soJYHn5X5tCzuaz0lZOOgaNAAL8JQDElYPYd4S4NmRGzfUbr3dMmBWRRvZPOHDgZSdu4uuB0THi2olDB0wDBLoqASCuHES2I8SVA7NBE1+eABDXL88c9AgIdAgBIK4cYAfiygFEfjQBxJUfcQZeAgLg77lykQNAXLmgyIs2gLjyIszASUCAxd9zBbCoCQBxpWYDviEQAOJKwAHeAAJdlwBYFuYgtkBcOYDIjyaAuPIjzsBLQEBvWTgnN6+kpLQeHGwIVFZVJaeksakByvKUQEJSSk1NDU+dB24DAnwiUFj0sFpS8+nTp26f0CM3715yanp6Zhb4jzmB5NT02wlJzMuDkrwlcDshKTU9k7fuA8cBAf4QSE5Je1RSqhXXwqKH0LNnMDjYEPjw4ePdrBw2NUBZnhJIy8j83//+x1PngduAAJ8IPKmXSmoeA3FtV8yBuLYLH58qA3HlU7SBr7wmAMSVg/ADceUAIj+aAOLKjzgDLwEBGIgrB0kAxJUDiPxoAogrP+IMvAQEgLhykQNAXLmgyIs2gLjyIszASUAABuLKRRIAceWCIi/aAOLKizADJwEBFuLaVPT7tvNFrRpmzfUZZ3dt+HXd9uNxFe+Umo95eaIrrk3/Rq8K1juWh/8tQfEoXhZe3rt85iRfn1ETpgdH/FP1UUWtMe83dbVly5avWr/t8LXi11qyyldFl6NCfw0JO3i1+I32Y33gytfph1bv+keqgOHW/DNrVuz6p16hLdVy/+SabddqFdQ24gprq4EzbggQxJU6BqrOjEoUxnmCd4jKkst5SfvXHLn7Dl+Ww3MqBznpouXp/Xx85jNqlArE3xLuLgv665yRmaDQ10CA2Z5rU/Wfgf3MrOZdb1L5pJCcmeJg7Tn91y2hi3ydrIdtyfnwNTj7uWzUFdeW0qtREcixZ5mvrUn/GeHom8iTqU9huLn89DQXcd8fNh6PjYu/dmb7TA9LG9+IB40wDL/+PcDcelTwbqT07u3rg0Y5igauS3+LWv0hL9zb2nnsko3rF/g4WA4Jy1ULMolLivoj4yy8tha0wnDTlVnCbt/YTT1XpxkaPl6cLnTfkNdKbaOmKEnb4KN2EiCIK3UMYGMThUWe4D2hsiQ5/2bonO0Jr/FluTqnuRI46KI1Z11/x8W3m1k2RQUi9Sl3lwXddc7SXFC8MxMwKK7K1w9OLx1uZ+fqIrbGxLX1340DxH6/qW4LP8T94mAb+I9adjuzr5/NNl1x1XTUkhXiZjHx1DPNRFNRfXic2Gn2pQbNpaqQnp9qK5pwvA4VVwuXFaktWPW313+2t5oZ+x6GlU9PTbb23HwPHSoa8zZ6Wv9w9j9No1h59StRXEUiOzuhvVZeMXHVVNKzUfMNOOGeAEFcNc3rx4AmURTIXRh5orDKE03v+BNdSxSNr5+/aVLCsKLx9cv3udwB+gAACodJREFULYp3Nf8mJ2ZXvmqDYbjxaUFqQmqRDCdgzc9K7ibcSS94+hHLzraPr1++b3ojycv4t/Y99iEMw7QOohY1/fcw886djKKGRnW1to+vn7/FOlM2vXn+ulGhMuxdi/LDk/spCan5UtVNp6Lx2fVFzj1+jn2KlkHuVXQtozJMTYMIAsHw6iPitOpofvfi1Yc2RePrF+9a2l5XZSel3Kt5q7mmybrDaqpuosnDhysDTrsAAYPi2npv35yFUSk1GevcNeIKw8rm9x9UIqCoP/W9Tb+12RpJ6AJQ2LrAWFzbynd7m/XVgdXSUFpU/16hL64f4xc59lwY3wTDH6/Mtu69OkPNuCVzdR/bedeRyS7ZQRRXyz7LT+31tdLIKxBXMmZf7DOG4mpkorDKE1KfiZoCKyRRo4R+J/6D2yojRvYY85Ofe+9vh/W3M+s5ZVfUgkG9PYYMsDezGrk7H5G8ppKTM/taWvceNLi/naXz5AP338Mw3Fa6y9vOy9vTuV//Xr57yzXyRO8g/P7ege9dhNauXl59rIXOkyL/fYs2NUwY8LtqFq18dmqicMS+KgVimL3vzB/cnT2GejkLzd0CY58qFHVH/SxNvvnGxMzK70itgswyKsMwKkQQTakrXK2n/A6pZL6taNsgu+kXofKIEbajfvLvZd9vYH87oZ3vjix0v4asO6xZ5FX33kh7neNLgfOvnoBBcVV72JpLEFf00w9398/187C1HrYx9RXunvSrZ8LaAcbi2nRtntj8xxjVSq9eN+hyke+qA4eQY/+O5X7u7tNPlrXAsOLJYV+hT2S1+tZYURU5Ujj+mJSCua64rrn7oTTK18puyllkcRiIqx73L/kBQ3E1LlHY5Qmp20RNIYjrcBPR2KiyZhhuuR/q2d10aNi/72BYUX9sgmjApntwW2XUaOtvf01+roBh5dv7O0fbDN5W2IaI6zAT2+l/PlPCzU3YrBNRYrorofXBloFCr9WJEDIxfZ66bohowIbcZqQpUnFFDIsoQjam3qevdrfwPfxEAcMtKctdHNBlYXLLqAzDqOiAaMle28/S/wR6zbU+CBvYc97VN22VEcNNzBCflbDy1d2NQy2/DS9oJe8OaxZ5pbzO8YXA+ddPoD3i+q4s6e/YU2FT3Gy8fk14STHUf/2IDHvAWFwbL88UCGddoVhCRy464QD/efPnz5//85zpEwY69ByyKKaiGRniRgt9D2Ebp4raQ77C0QeoHrHQF9cWuEUjr0BcDcfzM5ZgKK7GJQq7PCH1UkdT8DPX4QIs597GTBUM2HwPfbqx+c5SR+fgJKX06Dhzl592njqDHqcjZvcz99kvUSAaJhh3RO/BIjoH28p2ewvGHcVuHpXQSX/hwC0F1OIq0Fwb72N+FH4bXtiGE1cKy6gMw6jogIBb74d5CH0PSRQwsinmvCj+AzKbHy7yO6Hen1E+PTZeOCKi/AkpCKxZ5JXyOscXAudfP4H2iKva+8aUFa5C/5My/qorY3FtzV3vbj76QA1+dwZWvqrKL3/erL9cpKg/O8VGjOyuImtg3rvL1ItqbSW7hgr9T2p3colpSCausEZeyy+oHmjS1NEdRTRfgJPPQIChuBqXKIbzpCV9jbulAD1sZl0i8U8nGwjiKpx0+jl6kb+/8JNw0PYiNB2bE4OdnIOT2gq2epn2GPrDNO0xY1VMdRtBEXH90TnYkh3iZjlTewvadGO+jfOyFEJT+GXh4cJJZ16oRh/k1lH1LJ9m5kplGX4ejDMMO9UBAcNtxTuGCIbvLf+YFeLee1lyI4yI64ieC25h8/GmyzMt+2/IvkcKAmsWedVdFsauc3wZcN4FCBglru9zjwav/7MaG+sfbh9kgd3UdgEk7F1gLK5wY1Kwi2jcEby6KqoPjLZwWnpH/6KDWwu2epkP3v4QbslY1ds+8Kb6CeEPN+bb9cI9+KRjMLm4wnBr2QFfKzu/Sd7myNPCmkp6o4jmG3DCPQGG4kqXKI16ozOWKAzypPX9y+fP0EP7bBDeS51s0BFXtYaRiCsyP7TwDHuA5ZWytRUdHgiKiO+I5kr4v5URIwTaW1Cl9Oh4waDtD5EJrUZGFdWRPgL1niu9uFJYRmmY2kgdEMj2MWLW8PDoYDf3kCxEUZGZq+XkM6obDlghOYAsLz1+Qg4C57uuuGrChysDTrsAAaPEtbUg/FsLt4XXG1phuLH6z5/7CIfuVN3HdgEiRrjAXFzhtqpjfjZ2vmHxNahSNj+5E+ZrKx6zv7RVJa7OwfEv3yHH2xe1OSdm9zFHdptguDF9lZvd+H3572H4/YO9Y236rEih/C0Olbiq5FXcrVt3IK5GBJmbKkzF1ahEYZcnpA7paApjcYUV1YfGWjr+GF2C7n0WRo63dfrl5ht0z1WzUUrokeZKaHu4y1vk/suVmmYYbq2/Gewh9Ay716J8dnqy0GXBzedKWPEyK9TbwoRWXO+u6WM3/0Yj8lwymWXsxRVW1BzytbAUW3moV8TRPVeB9+a7L5Vwq/TGkgFWvgerFOTd4V1HxJXsOseXAeddgIBR4grDH/KPTu9nKbR3cbY2tx608I9ybG2kCyBh7wILcYVh5YusyJme1mbCHq6uPUWmlv0CdiT9h64Tv/49wKwbdvwfU7Gj16TVMSUqEVU+TwodZWcu7tlTbG43OixZvQxGZiu1uKrl1QSIKxm3L/IZY3E1MlFY5Ampv0aLKwy3VF9cOsTGTOzo6mRlYTdi9Q1ko5VOw6ivBLix5PTPHmIzaydnG4G159zoQkSyla+SNw+3MbVy6u3oOOiX4O8dfVRPC5POXJWymOl2pjau/vuK2sgsozMMIaMDAoWllJ7wF5hgC+LozNV8wNjv+tj2dLYTWnsF/a4aBsm6w8Omu87x5cD5V06AqbiSuNn2TlpWWFT1DPsZGkkRnnxEKa7U/re8ristyC+qhtjQa4QqiworWVWhtgB80xEEyMWVxhJjEqUD86TpWXVR/kPJC+Y325QOKj/KKooeVkGan8yilFpe15aW1RN+U0pFr/V1zcOCMpl6iYe9Zfrtvr8Z5DxqXyW2H1YZgej688ZnVcXlDciP6XAHF93hmgOnXyGBdojrV+jtZzLZCHFttyXKl4Xxly/pHbG38tV7QO3uATTwGQiwFtfPYANokj0B5Vtp5cPbYWNcAs4+xZ7cRJaFNZvA7JsENbo6ASCuHES4I8S1rfzM4oDJescPC6KL1TfWHDgGmuCaABBXrol+mfZa83f7uvQesTimCntkC4YVTy//On3rHYpfrX8Zu0AvnZgAEFcOgtMR4sqB2aCJL08AiOuXZw56BAQ6hAAQVw6wA3HlACI/mgDiyo84Ay8BAfD3XLnIASCuXFDkRRtAXHkRZuAkIMDi77kCWNQEgLhSswHfEAgAcSXgAG8Aga5LACwLcxBbIK4cQORHE0Bc+RFn4CUgQLYsLH36tAkcbAi8ePkqPeMumxqgLE8JpKSlv3nzhqfOA7cBAT4RkNQ8ltQ8/vTpU7dP6FFRWZVxNyszKxv8x5xARmZWanom8/KgJG8JpKZlZNwFFxcgAAh0fQIZmVlP6qVacVVJLPg/IAAIAAKAACAACLSfwP8H4SHAWMjrSwQAAAAASUVORK5CYII=;" vertex="1" parent="1">
                    <mxGeometry x="110" y="310" width="628" height="369" as="geometry"/>
                </mxCell>
                <mxCell id="4" value="" style="shape=image;verticalLabelPosition=bottom;labelBackgroundColor=#ffffff;verticalAlign=top;aspect=fixed;imageAspect=0;image=data:image/png,iVBORw0KGgoAAAANSUhEUgAAAncAAAFMCAIAAAAm/Q3GAAAgAElEQVR4Aey8iVsT1/v/XX+yJSGEBA37qiwKiAKKWrEu1FbFHayKuItaEBSrqKi4W1yxpbWiFTdkCcgim8imgGxBkDGJ4758FT7AQ3LNP9DnmqyTZBISErHNnLl6lTMzZ+5z7vd9n/OaOTPxm3+EW+G94pzcu3n5BeA/zRXIyb2bmc3SvD6oSVgFMrNZrLx8wroPHAcKEEeBnNy8R/UNIrCK/v+N6E9Z+f2m5hYYbNoo0PH0aX5BkTZXgLoEVSD3bgEEQQR1HrgNFCCSAnX1Dey2J4Cy+ok5oKx+dCSAFUBZAgQZuAgUQBUAlNVnHgDK6lNNg7YFKGvQ4QXOAQVkCgDKyrTQvQQoq7uGBLEAKEuQQAM3gQKAsvrMAUBZfapp0LYAZQ06vMA5oIBMAUBZmRa6lwBlddeQIBYAZQkSaOAmUEB7ynbkHttyNFfp60hO1Y3kFFYTj9CSKlK2IyNxRZjSFh51rkwoE/cx68z28JAp/r7jJs0Ki/2t5IlIPSj3SEQ4ell4ePjyFRHrYw79VdKKUZbXmHsmfkNExKZd5/ObMcfxtec155+NCQsJGj9uwpSQsOjknHoOWpFbnRq9YuuFCq7cVVDBiXWrD2a1c4qTNwq7IOt9+JbzCpXlrgQ7WikgR9kB8gQemkQR9V9VX85kXNq5KuF6q1Zeal5ZlYuaW1BTE6rOyqmUT3Q1tSWnVClxrkxrUxKTin8HGumK9aX7gxnUrWBMS/Ub2oKWlO0oPTXf0dh87oUO+W52sGLHU4w8t+ULJ3D5cwTaU6QsVHg+PhbdYsIn0IycQ6KEOzsOXq2G4c6iQzOtKQ7T1u07nZp6PmlriBvFwj82ux2G4Y4Lc81NvRbECK+M3rQixJNm5vDD8VLRrU1bRtRYKjNgybo1C3xHUDw33RazGVdnbuXZRS6UkRPCdhxPSU05uWtlkC2ZOT2xsBOGoTvrXUy8oguwIeu4utyOOv3YIx50JZxp7DZnm7DDov/tOHStRm/TC25niXRQjrLq8mSIEkWqvaq+pGVf2PDD1r++yH20mrEg7dfgC9CtSOeRi//s1NaCKiWuVuttGKgf6ao6PMhB/RSMaVWKfuHjmlOW15R9aKk3nW5rTaEqULYlfY2nHdPKGFBW1e9loRsRDqZTDtZJHzy5pXsCKMw5yTJucauOTqeRJ+17IKIsdV6K7E6ms/CXiVTq9CPVPJhXfXAq1W39HeGc0Z6xzo067fAjqVmFbOFWHQ62sJqeVCZbeuDWnJ1rTfaNK+TAnMLoMaajNuXITrJTF41kzDvfDMMoZU2nHwM/mFZQVG+7cpSVWlXKE1hNonCFt2N6SRRpBzAFxb5w25vqmzt4MMxtb3rMhrit5Rlpl28WN6J3ae3VrKt/Xc2txZKss67g+l+XrrGqn4jTk/Ok6TG7o7ksIz2jgo1JWTUuirvT8Sgv/dKl9Nyadpmp+hZJY7yO5vqmdpR8aM9aIV5bZdaVv67mVAlvP7ntdRcWMRnzTleL6sCwxh2TiCGnBCpD4xPZrWlna0NjG4fb3tTQCnGaSm6mXblT3oLFsFJzErPi+2lVAcRUkysOelCDMS2n4xDuaE5ZKDPuh0XxV8rTI53kKMt7lLLIxXNt6r7pJEBZTSnLKYoZa+yw+qYMcDAMQzWFuZVsLg5lYbj90tKRZpMP1PKenJ1DtVuZLr4QSl9pT5t7AX0Axtm4pfHjTB0jb8m1AnPubfc2cVl/B4K5FXsCyM5rb0vON57+nm4bnoZaAyMSR099HtKQsoNOFFibRMF1TI4tMIwmEynowCMepzjWlzF+RpCTnfsYZ0tjq+nR8Qs87Fw9XejG5r4xOUL2dRQcDHGgUO08PJ3pFObU+Cw2jN7UjbUcPdaN6ehs47+9SMop9S7C7Mz4b61JVNvRo+2pJOaUHRktQlNjSMHHmoT95tUdnELyiSvhwmjP6P4h05yYrl6jmSQTh/mnq6EHCUEUo2HDjIzNgxIquNp0TKqKnBIdV5fbCpd7hKc5uVs8LGf/+qgo1oc2bsZkG7rjKGc6ie6/7YbwVQ5ec1KzeJTFjHRsPUx58IMajGmMjENa1Jyy4m5Bt+Uoyyk//J2jf1xuR8txQFlYccVYGkq5cYqOrvNzKSbfnVDxqIiuI8nd4cIw98FufxP7iOsdlXv8Sb47SsU3y9ySHb6kwL1VmCcDaZsw3JEyj2o68xQbcwgtQmlhTJMph+phmPfoSDDVfkW68KmZ9+jYdKorSl8xZY1HzYvbLdkSTmXU47eiYB3saqSAhpQddKJwtUkU3B4r5CyWst5G5IB44VuHrA1uw429Nma0wjC3cu8ksvDujVMc70d1j0ir58IwryXrZz8Lzy0sDrp0YkSbfaqOB3d2SJ5DBxoLUPbmUaTRKy8/4sIwt/5qpCfZZe3tTtQUPmXRnsXmtsEwzL620snUf08lF71jtB4hXDHWrmNSVeSVgG6udqRMPiAcc1D2xlFWc883c4pjvY2MUZd5MK/x+jovinsUC8JvTmoWn7KSkS659cVWR8uDH9QoZcGYVtRzKPZ1o2xHblyAw/RDZRwYbgWUhTWnbPuZEDPS92dla8JyscahLK8qIdDE5qdrHWXxfiT/3Q8klK34ZQLJL17F5xhtp2aaUOaeV2wFur7K3iQwoQpts+nsD3TrZX89QSfJfZPMx8YUip4x0BFpxBw/Z55kW7DxvPbfj8h5BXawCmhI2UEnClebRMF2TFqWZ4vcs6y3mSTnWo5PN3NZnylEQuelpSOZYWkQryohwMR6xs8Hk4Tbodg5jia+O0s7C6PHmAUkKGWROhc5hTFjzQISJHeRvEcHJ5NGbWa1q6asmXRwsE98R3KPYnFklNWyY6qUgLI2upEm/FLGhaGMdS7MRalt6FO0Nxl90Bdew6veG0jyiS16gKsDdjVZzUhXRdnBD2owpqURHeKCLpTllu8JINN9562KiIiIWD7VwYg+bv7qhPRG4j7yaPwsC91e42TiF1+OHXEwr7Ekp6i+E3fFGMpY52ziE1fyDF0ek7IQ5hREe5EmY973yqUPlL7S1kR5Xms+NZNiMS9FtMzc9ucS5siFv7M5JTvGUScmSPANVpfklNT/joaUHXSiCNdR1SUKdG2VE8VMuFl8n4w+/Sls6ihLmnJItLLBPjmD5LE1V3hr1nl5GZMZltbJYUWNNmZ4TZsp20JWnCh9ikUjpi11LkI3IxwoIbK70Y6UeRbM8CtqKEuaktQgmoCe/DqLNDqKBckoq2XHpH1UUALm5G/zNPPeXvTkRoSTnfANC6c41sdqwe+SJ/SOMyEU57U37+DqIF0qx3+WlYx0ualB2hUYHvygBmMaI+OQFnWj7Mnw4KnibbIHYzjFaULwmgsqv8UZUse+SmMaUxZuTwuzJgckYDHLLY33M2UuvYRH2c7MDW4mwg+VoPQVdvT5F8XfFbelzKPbLL+q6r73SVq4LWlcXBH2PLfy0LdUy+9PPxbfDHXeiHBizD1z++cxlt8dk36eBUbkF04gDSmrLlHalb9+grVIFIj9uL5OuMk+JMI6rcAWuRVjKcvwKIs+Mpq6bcyWZB0PglCyyC3zYhtSMxa4xbE+ZrK7UXRFx8xja97Twpix0i5wS3f4mkney3pLD8PKlNW2Y5JOKigBo4+uPmbeUYlhDk4RN1C0os+ylKlJ4ncq4nWE+w9wdZBYRf8qP8vKAoithy0PelCDMY2VcSjLulBWrp9gxRgdNJp+/QTDnJK9QRaWEzamlguB2Vl5aZM/jTJ+ZyEkHntzkhtaW1tbWx5XF6YlzHOlOCw8L7x/ab+2wsEyMC6HDcPs7O0BFvbLr6j+KQ+38mQIk+K+9GRBCwpV3pPSlDW+FhYTd6PNiDcOK8qD7u3rNnLeBdl7YjAiJfJ8ob+aUnaIEgXHSwW2aE5ZmFu6O4Ay8rvEAuH7UdaOQBpz4cVmlZRV5yInL3os2Wnh2XL0p2eVF5e5ktw2ZkK8ukNTSdYLLtbzYO7jGxvGmhqppez1VfaWwrUbbTsmVkVBCfRj5vLd/qYUirmbeLFc+F7WbOz66495MFSVssTF3H9XCRe/OazUQsqqGulwW8Wdaxml2F/KC68d7KAGYxor/VCWAWX1qbYWlIVhXsONHSFuVGMSw9bWimxMcQzeloZ+5CGkLOUb8TZsuCnN3idkc4r01zi8+rQN4+gmFCsrigndb2OaeIFMlR/t906v/daZSrK0dbRnUCg2/ssOZsv/Uxbckp3jjP+fTfgVzKfKYESq0lNPxzWm7JAliqJjCmzRgrIwDJX+utTTwpgy0pZpbkr3WZlSyVX9LIve/qkcC3B7waF5bhRjKpNpYUZ1+zGRhaKb15i23tvC2JxpN3Kkx8Kwb0f6ir8xxnuW5dUen2VpbGE7OS6Xo23HhKIoKIEe41UdmGxmJFkrFz7LmrgETLSnWTEtSdTRoceKhKvHeM1hde64MFf1SOcU/Oxp4rpB9NIbexUMD2pQgzEtL+LQ7WlN2aHr2n+wJZWUVe0L1PSgkJWTW/pI8lNA1VWxZ9ofFeeyijW+iNfRWFmUV1hW90TV6x6scVD+8grgU1ZNu0OTKGo6oPWpjrrS3Jy80gbJ28oBDah0kfek9l5uXskjyS9vRZagporCwkq536aqagJqKs9jFdaKF3207hiOWfbFUOa4uGLxS1b0WZY0Jam+va4kv6gG/TUeZht8c1D66jnxJfLWZIbBoJZp8e8uAcrqMz6DoKwemuc9ZqWeSVbaTv+eA357owd5v4wJrSn7ZboBrGqtAK+lqjjvj03jrYMPV0s+9BRTdoBlJS2b4jX+FRN1oUoVZLW0Bqp/PQUAZfWp/dehLKcoabH0KzTJ12hTp05bkEjwf/BSn6HVty1AWX0rOlT2oJyYCdZ2PotPlMi+beBWn4mYFXVJ9l3DUHUGtPNfUABQVp9R+jqU1acHwNYQKQAoO0RCg2aAAl9bAUBZfUYAUFafahq0LUBZgw4vcA4oIFMAUFamhe4lQFndNSSIBUBZggQauAkUAJTVZw4AyupTTYO2BShr0OEFzgEFZAoAysq00L0EKKu7hgSxAChLkEADN4ECKilbWlZeX9/QCTZtFGhuacnNy9fmClCXoApks/La2toI6jxwGyhAJAVqah+2stv+wWzfiMpl5RW5dwsKiorBf5orkHu3IDObpXl9UJOwCmRms+4WFBHWfeA4UIA4CuTm5T+qb8BA9h8xZWtqH8IvXiBg00aBT58+3ysu1eYKUJegCuQXFv3vf/8jqPPAbaAAkRR42gmx254Ayuon5oCy+tGRAFYAZQkQZOAiUABVAFBWn3kAKKtPNQ3aFqCsQYcXOAcUkCkAKCvTQvcSoKzuGhLEAqAsQQIN3AQKAMrqMwcAZfWppkHbApQ16PAC54ACMgUAZWVa6F4ClNVdQ4JYAJQlSKCBm0AB7SnbXfvbrou1fRLp+ti5v104L9ku3q7/IDlDwL+KlO2+n7whUmlbG/83WygO/3XNlf1rQ2cEBQROmxeZeKvls0izvtqUqDXoZWvWrF23IWr7vnPZLR8EMj0Fb2qvJMVujoo7cq3uHea4rIawpKb1/rrftwpbEDWyfnP0npO3Hr8X2RK8LTi6MeEWxJfY+9Sa/WvM8h+CgwImTpu7Kv63crhfcgr8HaQCcpRVEymh+a+WKL0gTwYZX3AZUECqgJaU7W79M8zVxGLJ9W6xhf6GhHEmZCs78eY879xT6eQsbYQwBUXK9jZcS0pEt31rguhGo+bHC3cOnrn7DEF6Gs/NtaO6zI4+lZZxJ/38L6Hu5pZBiZVdCIJ0X19iYea7fK/wyoS4DfO96STnRals0a3Np/J4P5rt5IjobcsDmOY+cWViNiuprKb1nlvhliZjwxKE/UncnxAXOcOFTBm/+wEaV37n8SlmXjurhc0Jnmes8zKn+yyJP512O/PWH0fXT7UlOYZfe66a7kodAQeUFZCjrJpIfd1E6QJ5ohw6cAQooJ0CmlNW8Lby3OrxDIaDHZUmo+zHtFDa2Pga8GwjlF2RstJY9BZHOZt9d/aFFE381mNTqDYLL3Ok9yR86OIcOmXaqQ4RZWlLb0juZBCkp+HotzTa9ynPBIjg2dmZNI/tFT2o7a7yaA/a7AsDEU+pdQSlrPnCv2UtIHz2kUmmzMicHjnKCl5fD7M2D0ioxJC8p27vBLJ77APpcobUS1DQXAE5ykovU46UmkThC2/HvmiigDyRhgYUgAKDVUBzyvZVHFi0IimvrXCrm4yyfZVxniPCr8NPa8vL6559lkJksN35j1+nMWX7G/f6mbhsKenFOtzLaajt/MjHoSyCdGWttiZNP80VfL66kOa4sVB8YW/RRif6kuvoA7CaTXnuVp49BS8vzDKjLbvZjaWs4EXKbMqI8Jsf5YwL3jzMK2x+K70/kDsJdjRTQEPKDjpREL0kCsgTzaIJagEF1CigOWXFRvrKsJR989v3JHNrO1uH0aNtqSZWQXGsl0QmrcaU7U5fQjX9IfU9fmTQFWO5RxQE4XccDTJ12nyv++mxIHLAwVYx4vgtB/3JU09C6kXHpyx5+oHi+8Kt/F5WavxsexPb5TdeC7CU7c1ba2sa/CtXvXl8J8BRtQpoSNlBJwpfL4mCUhbkidpAgpNAgYEU0I2yfHbq6uAFiWVvBAgieH1vux/ZLjL700BtGu55jSnbdSWURF5wFbNiixUFh7IC6MRUU/v1Bd3spInkoKMdEsq2Hw0iTzzMVv9ciU/Z4VTb0e7uox0ZJt8MozhPCd+d3ixaF5a9l+3J+IluGvLbW1Hn+pt+XTDeR7T5zT1aB14TYIOmZVlDyg46Ufh6SRSUsiBPtAwtqA4UkFdAN8rK2xJwTn1r5hFXSdwXdhpTtq9sm5vpxMNtcnQUvGmpanzZg7ti3Hc/epTphAMt/9+Ls9+R/fY+FhOuvz7Blzz9jOx9r3xExHv4lJW8l+1q/SPMje69KVNiRUbZ/pr4MaZjf3koak3wkX0/Lzc3N/dGtL+p28/lxI0zrsraHdSQsoNOFIFeEgW7YgzyRLsIg9pAAbECulH2Q8XFPSdYki94+OykQNL4fY3EfcbRmLJIFyvSjjLlOBaz/NbDE81sVmfhUbanItbD1DOuqg/pLdzgaBV2U/w10qcbyxj26+7Kvd5Vzm31lEW/oqpKmEChTUl6KPymSkZZpLciZrSpZ2yF/IvfNymzSYCyyjprc0RDyqpLlC7lr58QPScKlrIgT7SJL6gLFJAqoBtl+x7EeZLc12U+70eQHvblcFfzCfvriQtZRHPKIv0tJ4MtGUFxd9qEwOx5mhUXRKdOOtTQJ6bswsuvPnz48OH962cNrBNL3anOP6ULvyXuKtjgzJh6oOojgnys3D/Z0mldHuYDYGlgsYUBKYsgvQ8TAymUwP0Pe7HvZRFE8OL2aleK8/wjd5+Kvm3reV7x+6ZAhqnPnloCBxqr7uDKmlJW74nyqb2ioJyN/fm1zAGlRFGgLMgTmVagBBTQVAHdKIsgHyoOz3Eik6zsbGmmtDErU5uFT0Oatm5o9bSgLIIIXhUfDPWgmZBHODiMpBibu4bsZj0XLiF3X19C/Ua8DRtuRneaELrjBlvywCp4yYoNZJhSR46kmjImxuW+GvDbJKXJE+eXPEjvw/0BFEpgYl0v5lkWDVAflLN/6QRbCplh7+I4gmJCdZkWeaoE/MMUuiWvxpTVc6L01+/xMXWPrcBd7ldKFCXKopwFeaJb6MHVRFNAa8riCNT/vrOhprYF7hpwuse52KAOqaSsai9733Y0VFfVtmqpXhfcXFvTrOVFqnsx8Bn+55ftj2trGzvfSmg/8DWghmoF8Cmruj6it0TpLdyyMKlF7osANc1qewrkibaKgfoGr4A+KGvwImns4CAoq7Ft1RUFr2vuXLmstKXdriL0z6pUC/ZvOKM1ZfXUacGb7H07r8v+9Uw9mQVmgAJAAVUKAMqqUmYwx78OZfsbz68Kmam0zV6eDH5sM5goDsk1X4uyQ+IcaAQoABSQKQAoK9NC99LXoazu/QYWhlwBQNkhlxw0CBT4OgoAyupTd0BZfapp0LYAZQ06vMA5oIBMAUBZmRa6lwBlddeQIBYAZQkSaOAmUABQVp85ACirTzUN2hagrEGHFzgHFJApACgr00L3EqCs7hoSxAKgLEECDdwECqikbFVNbSf0rBts2ijw8tXru/mF2lwB6hJUAVZe/rt37wjqPHAbKEAkBVrZba3stn8w2zeicuG94pzcu3n5BeA/zRXIyb2bmc3SvD6oSVgFMrNZrLx8wroPHAcKEEeBnNy8R/UNGMj+I6ZsWfn9puYWGGzaKNDx9Gl+QZE2V4C6BFUg924BBEEEdR64DRQgkgJ19Q3stieAsvqJOaCsfnQkgBVAWQIEGbgIFEAVAJTVZx4AyupTTYO2BShr0OEFzgEFZAoAysq00L0EKKu7hgSxAChLkEADN4ECgLL6zAFAWX2qadC2AGUNOrzAOaCATAFAWZkWupcAZXXXkCAWAGUJEmjgJlBAe8p25B7bcjQX83VkZ2X64Zh1ERFRCaklbcRWVCVleY/+jF2+fMflOp68QNzHrDPbw0Om+PuOmzQrLPa3kifS87zG3DPxGyIiNu06n9+scJm0ErYwiDawl4PykCqAT1lVMYT1mSj4fqpsGr+64lFe7Z/bV+3PaFc8rt2+Gje1M/TFakPVWTmV3C9mHhg2RAW0pGxH6an5jsbmcy90iMWA8ncH0S29flgTtfYHL0vLSQlFGP4aomBqfVJFWW5p/ARLS0vz8fGlmAHaWXRopjXFYdq6fadTU88nbQ1xo1j4x2YLJ6q2jKixVGbAknVrFviOoHhuui3Dr4oeaN+GCkPg8FAogEtZ/BjC+k0UfO9UNI1fGecopzB6DCn4WBPOKU0PqXNTUxtfuB50K9J55OI/O79wM8C8YSmgOWV5TdmHlnrT6bbWFKqEsryGk7MsXVZdE/6ullf/64/23luyCIxZFZTl5G31tJi+a9d0qttGqTzc0j0BFOac5Bopd7lVR6fTyJP2PeDyqg9OpbqtvyMcze0Z69yo0w4/Uv88q20bhpXG/z1v8CiLG0NYTaLAg0gUfKlwm+a2Nz1uhXhtlVlX/rqaU4W90eO2VuakX0r9M51VLTqsQNmOR3nply6l59a0Y9KW11KReeXy9aIGCGI3NrZx5Lqizk1RRSWbaP/YELe1PCPt8s3iRtReezXr6l9Xc2vFHOS2NzW0QpymkptpV+6Ut0iHGgwrOQBznjQ9Znc0l2WkZ1Swhb1WrMNtr7uwiMmYd7q6qV1kSqlLykbknAQ7hFRAc8pCmXE/LIq/Up4e6SSl7JMLc+keUSyorSr39u286jbMiCKkmviUhW6vdbGYcfxRQ3IIzSbssnhWKooZa+yw+qbcPQlUU5hbyebCT87OodqtTBefg9JX2tPmXlC7GKd9G4QM0L/HaRzK4sYQ5ug3UfAVwG2aUxzrS/cPmebEdPUazSSZOMw/XY3ChVt1PszDgmrn6evjNtLMmDkjqZQLYyjLzoz/1ppEtR092p5KYk7ZkYHehPOarm/1p5Pozu4uViPGTPJmuG3IxOa+WjdhGM8m2j/G+BlBTnbuY5wtja2mR8cv8LBz9XShG5v7xuTAMMwpjvWhjZsx2YbuOMqZTqL7b7uBvnxR5cBYy9Fj3ZiOzjb+24s6lZ2EHiQEUYyGDTMyNg9KqODidqkwGmtE/j4CX3pw1PAV0JyyYi2g2zLKckt3jjPzXbDcj8mwd2BSTKwmxtxqITJpcSnbnhZmQ//xXBMMt14MHWEZkvwYlajj/FyKyXcncP91LW7lHn+S7w7J6jK3ZIcvKXBvlRpltW/D8FP73+2hMmXxY6jnRMEXBb9pTnGstxE5IDYX/dqCfW2lk6n/nkouzMmPC7D5dl+ZECHtt9e6mo6LL+NKKQtlbx5FGr3y8iMuDHPrr0Z6kl3W3u6E7mxwo3hvutXEg+HW7Bh/ipGrPGXVjQcY36a4f/GFnTAMZW1wG27stTGjFYa5lXsnkV3WiyjrbWTsHpFWz4N5jdfXeVHco1iQageMaLNP1fHgzo5O/DowdCXceoRwxVhFlwqjx8iM4IsNjhJOAZ0oiy4zGf0/Zsixkg4Y5tZdifAgYZZECaclDONRtuXCPCvm4lThd2HtV8JtKZP2oV9PtJ8JMSN9f1byfltOLG5ZvB/Jf/cD8QIXt+KXCSS/+DLMepdcdRgeRBsKFsDuECugRFkVMdRvouA7qaJplGJm0jRkn/iO5B7FkjyeQa019zKvphyJnuVg7LktnyOhLKcwZqxZQILklpD36OBk0qjNWZlbPMyCDkjeerT8Opuq8Cyrbjzg22S1o/2TjIuW49PNXNaLHo87Ly0dyQwTU5YsbZZXvTeQ5BNbLBpHeA6YBSTIfdmkWEdGWVVdKoweo2gEX3NwlEAK6ERZbukOX2PZyqYCHAikosRVZcry6k/MpA4bbmwm3oyHf2Pk9XM+B4Zur3Ey8Ysvl0Mnr7Ekp6i+k1d3cAppbEyheEbjFER7kSYfVPw+WdIoPKg2pFeDwldRQIGyKmOoU6I0nwyhSjJP9pc6/Ug9Zl1EZdMoZUlTkhpEdZ/8Oos0OooFwXAbK/HHUVQjY3Om27jgH4PkKQvdjHCghMjuHjtS5lkww/9MW2GLOdr511KmAmXVjQd8m1dQypKmHBL5wj45g+SxNVc4ZDovL2NKKOtjteB3ycdKHWdCKM5rMyC1DoizAbeOjLKquqT7N2BfJRtBo19UAZ0oC7enzLO0WpQqfmPILY71IU3aX4MZwV+07/8+40qU5VYlBlHsw1Nr6sTbo1ubPI0dIq53wO1pYdbkgAQsZrml8X6mzKWX2qH0FXb0+RfFn5u0pcyj2yy/in2LhXV9cG1gLYDy0CsgT1k1MVSXKPBAidLZUi/JPNnf+uYOzMJHVFIAACAASURBVBBV3TQ+ZXnViUEk5g/HS5+gRrjlu8abem7Nkz7LopOAmezukVeVEGjmsTWnON7PzHv7PdF9I68mMYiksGKszk18m3lPsXcBqijrTZmaJL6nED8F3H+g1gFhKqhwUkZZVV0ClB36ofTvb1E3ysItqYuYFgExWS08mFPz+zIXqv+uErmns3+/AvrsoSJlhS+u0btnWSPc0vjxpoz5KS0wp2RvkIXlhI2p5UKadlZe2uRPo4zfWQjBcPu1FQ6WgXE5bBhmZ28PsLBffkWMXJklcWnQbShZAgeGUAE5yqqNob4SBd85NU0/xlIMljzLcu5t9zZxiUhnwzDc+eDCMldjI7eN2ZBkxRjm5EWPJTstPFuOvi2tvLjMleS2MRPiPjg41YI5NS6tpKosPSHEzmi4ImXVuYlvU+4uQCVljczGrr/+mAdDVSlLXMz9d5V0DuAAqpMKJ2Ho+ip7y3kp7bAKN6Uq4IsNjhJTAR0pC/Marm0LYpLMR1rTSRSXuYfRLxGIuylQlpO7xcPEbVM2BrIw+uOLKWRK8JFaGOY13NgR4kY1JjFsba3IxhTH4G1p6Ecj6CeZ9WkbxtFNKFZWFBO638Y08bKdsrTq2+Cpa0PZGDgyZApgKas+hmg26CFR8D1T1/ShdNwVY27l6QVOZsZUpj2Tbu0XtibEgRaS3IThS3vBoXluFGMqk2lhRnX7MZEl/CaBW/Pn5mkuNGNjil3AsjljTSXLu5h+qXETz6ZmlDVxCZhoT7NiWpKoo0OPFXWiX0cN4AD6jI5bB+bVHp9laWxhOzkul4PbJfAsi4knKIoV0JqyeMpBTRX5uYXVrQR+ihXJokBZPK2Uj0FNDwpZObmlj7A/LRRWa39UnMsqVj6ubGOgI6rbGOhKcP7LKIClrIYtqA6i/hJF465U5LPyyxvl7h+x1/Ke1N7LzSt5JFxWFlLrzl9ZVZJXS5UJAeRJ+1S8WlLppqJNbHv4ZTGH69vrSvKLatiY+QmdstQ6AMMwfh2oqTyPVVgrWlrSvkv4HQVHDVoBvVDWoBXSxrlBUVazBniPWalnkpW207/nYL9k0cwWqPX1FRgEZb9+pwffAyhzvSvFa/mvtwrv5aYlzHEw99tZJPlcefBWB7pS7ml3oMrgPFDgCykAKKtPYb8gZTlFSYuDpypt0xYk5n/52UqfGgFbQgUIRlmY15J9MCxotK0Vg+ni92P0paqhyFpu9ZmIWVGXcH+UDvIQKDBUCgDK6lPpL0hZfXYT2Pr6ChCNsl9fcdADoMBXUgBQVp/CA8rqU02DtgUoa9DhBc4BBWQKAMrKtNC9BCiru4YEsQAoS5BAAzeBAoCy+swBQFl9qmnQtgBlDTq8wDmggEwBQFmZFrqXAGV115AgFgBlCRJo4CZQQCVlS8vK6+sbOsGmjQLNLS25efnaXAHqElSBbFZeW1sbQZ0HbgMFiKRATe3DVnbbP5jtG1G5rLwi925BQVEx+E9zBXLvFmRmszSvD2oSVoHMbNbdgiLCug8cBwoQR4HcvPxH9Q0YyP4jpmxN7UP4xQsEbNoo8OnT53vFpdpcAeoSVIH8wqL//e9/BHUeuA0UIJICTzshdtsTQFn9xBxQVj86EsAKoCwBggxcBAqgCgDK6jMPAGX1qaZB2wKUNejwAueAAjIFAGVlWuheApTVXUOCWACUJUiggZtAAUBZfeYAoKw+1TRoW4CyBh1e4BxQQKYAoKxMC91LgLK6a0gQC4CyBAk0cBMooD1lu2t/23Wxtk8oXU9L9sXzclvKjZq3AsLKqpKygueZievWHcx5IdOmrzYlak1kZGTkmjVr122I2r7vXHbLB9lpBEH4r2uu7F8bOiMoIHDavMjEWy2fpcIK3tReSYrdHBV35FrdO7mLpFVEhf6637cKWxE1tH5z9J6Ttx6/F12CPYn2BN3WbP29rl94bR+n6HT0stlBAQFBM5dsOZ7T3q2BSZVeCV6wDm3YcDjvFba3/exru9bH/dXUq9BrAuziUxYnTxCVkkpV0keiSI3hFvD6hVsR/6CAm7l/06/lXfhnNTza++xBVSdfw8rqRBO8ZB3adPzeBxWmxKeFZ9W3KXYLx46aiODU1vch9b3WoDXsxLBmzVotZg39ThqIgcwaWlK2u/XPMFcTiyXXRTPu27RwVzvpZmtpOsw06Chb05GgQbj/Y1VUUZbPPhzEYDAsJiW1SsXpvr7Ewsx3+d7ExMTEfQlxG+Z700nOi1LZovsXpKfx3Fw7qsvs6FNpGXfSz/8S6m5uGZRYKZyoPpXH+9FsJ0dEb1sewDT3iSuT4VdRsJ5b4ZYmY8MS0FYSE/cnxEXOcCFTxu9+gAZQ/qSoyoFjd9j9CCJ4m7XGlea+MOH3G1lZN1P3LfG0sJ6fKpzk5K9SMKnaK8Hb7DWuJg4rb7+WcJbPTv6ObhVyvk2qiWLvDXgfl7J4eYKollQoj54SRa3UuP1Se4X8yf6GhHHkkN/eyh/Vaq+vdOso61WZPRpepE40wfObsYt+yVbVG/FpBEEGalPslmKX1EVEse4X2B+o1xo0qXaIy5/Ezhr6nzQQw5g1NKes4G3ludXjGQwHOypNQllswD6UxI2zDjpQo9sNK9bif6+sgrL9D3/xsZxz5Mj3NI+4B2KKCidP2tIb4gdElHkNR7+l0b5PeSZAEH7rsSlUm4WXOVIA8aGLc+iUaac6+IJnZ2fSPLZXCCecrvJoD9rsC88l5FLUDB0S5gv/lrWC8NlHJpkyI3N6RJSVPym9/PPfC2m2kSzpdeiEYua393E/3lUYk+jspsor0YhxjswUrnbw287OYoyc+/tTqYvSxolQwKMsbp4MUaKo0xy3X/yut68/9Ao+PX2Ql323CsLc6PE/PK0qzLqTWVjzTHxUgbLdzx8WZWUV1nK6MGkreN9ekZdzr/FVb9/HN28+idZTJL3id724vtJ2xNK0Z2+7RPmCa0NSHRlAtK63L991i9tWbpcvPI0otankFy5l1Q1dUf+Uuo4rZf/nty/fiZ1FEETQ/f6lRJWeF/X3srMKqp99FvvQ//nt64/d79jlhffZ8HMFpZRqI5jq7R8xIZDKN8hZ40tMGmLO/rdnDc0p21dxYNGKpLy2wq1uOJT9dG+Lu2XQ4UYJQ6QBI1QBn7K9ZT+PtvwxFX7113y6fWSOeOZR4hGCdGWttiZNP80V9Dfu9TNx2VIit5Lay2mo7fzIRz5fXUhz3FgoPtdbtNGJvuS6qnsb5fEieHlhlhlt2c1uPF5Ko9WbG2lL9ovO5Uq78PlFR+cryROwPJsxJtV4hU4Vb3PWupq6rsl+2992djbDJvTSM2IyFkFwKIufJ8rAkCUKor9EkUZeuYDbr/7mRH+roNDZbrbuvl62ZFPnsDQ0lnwoPXKsJc3Rx3+ChzXJxPbH8+jqDYayHysOz7Ij0xy8vJxoZNsZB++/F+bFvV+CGGTGqDGjRzLHTRs/wiO2AjuT8DtOBJsbDRtmZGIRfLydj2tDvt/q8pDPTgokB59+juYjTrvi0/Jt9uH5hUdZtRFBELyu40v58fZP1jYr73wS+dVTuNF55NLr75Hu+jOhLuY0x7HeoxjmtjMPP/golNeP4eXnYes6ys5vtj9GKbzaaDQk1e2D9jfK388ImxvkrPFlJg0DmDU0p6w4i/vKcCjbV7d3PHXsjgearufIjwjD2cOlbBcr0t5q8d9vEeTDzXAmI/Qv0ZIpzjzA7zgaZOq0+V5vd/oSqukPqegEpLTxnx4LIgcclCw981sO+pOnnoSU6okOoOOFPP1A8X3hVn4vKzV+tr2J7fIbaCfQk6a+K5OOyrZj53JFD5f9bZeWjyYPM2aMDpq/Ztev1yu5kuCqNanGK2GHhJw1cZgVGmhpu+SqykdwFd4Y0GFlyqrIEzzKShIFGUSi4D27qNUVv1/9zYnjjSiTE2tRDHws2OhmFnTsKb+/7sBk+1mn0HcOCNJV9rO7WWASmy+jbF/lDk+y18YcGAXyy7tbfSijfy7r6a2I9aCOjytF1zg+VO4Nohq5y1MWQZDevLV2TOGKMb4NBRfU5aGUsvjtik/LtYnvFx5l1UUEwe86vpRIV+5aB2b4TeHr466cSHvb1Vmf+5uTJtLGbM59yUcQwfsHeyZaeu+q6Uf7YUSf9+cLAdLT3SNTCr+2MBqy6grCCXfVDnE1s8YXmjREnP0Pzxp6oez72z/ZMOb9gfm0By90BDiGR9n315eNtF0luiftylvrYD7tlJBjOPOAADox1dR+fUFv15VQEnnBVel6LVY6PjtpIjnoaIf4IZDffjSIPPEwG1sFU0aHxHCq7Wh399GODJNvhlGcp4TvTm8WPU+jJ40cJy9ZJtvC118Qf/yEIEj3s/tXjsasCBnvSB0+zMwl9Ewd+sis1qQar8S9ErzLWes6/P/ZL79B6HxRoqyqPMGjrCRRkEEkiraLByr6haKBJE3Dj6k/kMfE14gfi/o+cJoq7t5ISZjnYuKzu65fStn+x3v9SFNOQJLFWvjMdLLnjgcPdo0lBZ+W3HK9vzSPpoay+DaqMTmPFtXloYSy/bW47eJRVmRd0S88yqqLiIqud6uQsrd066gRi6+9R5BPGStsXDYWdgugE1NM7X7cc1b0xem5xIWupgGH2Gg/SFOOiz8Nk1JWRW2+fHUF4YS7aof4ALPGF5k0kP/2rKEHygreXJpvabMqU7y2gRc1ohxTpqzgZepc2rDhxiTxZjL8GyPfPSjIcOaBvvvRo0wnHGjh95VtczOdeFj+syDBm5aqxpc9ghdnvyOL3pCisvbXJ/iSp59R9S9Oo0NCsrzb1fpHmBvde1OmBG/Yk/Ih4n/gtj97J1u0636aGRNgQZlxliMQUlalSTVeSVvoyVjOoKi4h5BWMvSCAmVV54m6REEGkSjSZ9l3f8ynSdJS9pc2J+WltAqCqOwXSlnyjPPiT8Y/X5pH9tpZ3Yd8qkle7EkzMrawdQ8MWRzsYuKNpWxvSZSzeajs7rH7xjJL2zVZuRscMEd7slfbesRWfCrY5GYu6pflgsuyZ1l8G3m9ctU/qctDCWV7C/Ha7cOlLK5feJRVFxEVXe/ClxJB+qp3eDFC0968S18y0j2mog/pr97pZTzCd/Zc2TZ/Q2qruB/iz7mklFVVW7463kDDTgyazxpfdNJA/suzhh4o++n6UsbInzIwnz/gBY4Qx5Qoy4eSg82d1tzhvBBvz0vjvE1cNt/rxpk8eypiPUw946r6EKSLFWlHmXIci1l+6+GJZjars7p6Czc4WoXdFOv96cYyhv26u9LXpwo6Y8cLuohXlTCBQpuS9FC4/KtwEnPpx6sLacyfMjA3TijcSR5xlX1ylFUyqTy7YbwSN/BfHi8YjXQrylNWTZ58uUTpef9Skpayv7LPglD/VPcLl7I9z5KDybaLUtnCz3L4bUcmmXn/8lD2LMtvTpxAkt09oo/kpLG/VDcfnkgav79J9CQs4CQHk9Fn2b6Pr8X9e/m+R0ZZfBsPEfnq6vJQQlk+G7ddHMoK8P3Co6y6oft/uO4/7FFFWaS/cd94q9AzZ0OtfFAZEfTp1Ew4CEXJJ+jrQ0WTx6aUsipqK1THS2OFiUHDWeOLThoEp2zf/ejR5JkXsDfAeIEjxDFFyvJbDwWSRv1cjmEgn314ktmIsBvvhfPAwsuvPnz48OH962cNrBNL3anOP6WLFs76W04GWzKC4u60CWna8zQrLohOnXSoAUVwwQZnxtQDVR8R5GPl/smWTuvyVN7iKIwXBOl9mBhIoQTuf9gr/vpp/h8v0S5It4+fe/iI4G3GSjvzMZGXGt4LVxj7nt+NC6C5bizswvlmCmtSvVeiJACURRS+flKXJyLKfvFEwR2favr1Gg8N3U37x5uOjir6iL5Y6Lge6W5sJGSCFAP9DxP8KG4/XW3rQZC+zpuR7mSPuIpefseZmZY2Mw+wWiB20Yn5jkbDcVaM721yYiy70YUg+DYU+q8uDyWURfDbxVBW0mY/vl+4lEXUDF38ruPesIjWkfhtRyczrJn0wIMtwnHIbz062dz6h+R64dvwmoNT6TY/3XwnlVcoQq+k1wh+bXnKfmqvKChny/9QX/FGWsNZ44tOGgSn7Oe0+RT0XaJCmhNyV4Gy6IsfU8ytp1ATwbMz31GoISlt15dQvxFvw4ab0Z0mhO64wZbJKHhVfDDUg2ZCHuHgMJJibO4aspv1XPRSTfCSFRvIMKWOHEk1ZUyMy5X7lx7khVeiLDpi9gdQKIGJdb3oyWGSPkj+DvcQPk0L3lf+GubDMDal27u62NLIDN+w09Xo7Kk8BLEmuwfwSmgArBjLU1ZtnnAHklQ/iSKfNqI9df06V7gfZ8WY35m23I1kTLN1srWymxi5LdSZHnr5LXZe76o/t9SdakKzsbUk0TwWJ9cI10v4nMwds0fTTYypjlMiF/qZjf2lVvyOV9IvATd1HsPY0mH6gdp+fBuSmsK/6kSTUhZB8NqVUVbWZlU7nl/4lEUQNRHB67oayiLobEE2+/ak9Pduva2XVvtYmlCtHWwszBgTNt7oxHxcJnRd1uvafrza2Ggg/fV7fEyV7mkGN2ugH2R9sUmDWJSVy2WwI6+AAmXlTw5qr/dtR0N1VW0rjP1podBSF9xcW9OsfHxQzai6qP/Ds6baqprHnZh3tKrqguPaKCC/YqzNlfh1v3KiYDrV97a9rrqu7Y3shhFzUlgUfOY21T5sgSU/9+R3VmQ/gMQ/RuN3Hp9CmXaKg3k5LL6+723bw+rHXNG6jaINxTY02degXUybA/sl36bKiOje9e4XrbVVD9mvJJ/9yzeMIJheo1+Cqa3dW7hlYZLoSVnRzCD3waShKJzW72UVDYB9jAL6pyzGuJqi4HXNnSuXlba021VgIV+NbF/zlL4p+zV90bXtvort7lTfdZdKG5pqc08sdLGYeAjvV5y6NqN0/ddqV6kjX++A4E32vp3XIW0/PP96Hf5Ptgwoq8+wfS3K9jeeXxUyU2mbvTxZ9rMcffoJbOmsAKAsRkLB+8ozkcFeDiNH2I6euDghC1JYLsZU1Wvxa7WrVyeAsX+9AoCy+gzR16KsPn0AtoZEAUDZIZEZNAIU+PoKAMrqMwaAsvpU06BtAcoadHiBc0ABmQKAsjItdC8ByuquIUEsAMoSJNDATaAAoKw+cwBQVp9qGrQtQFmDDi9wDiggUwBQVqaF7iVAWd01JIgFQFmCBBq4CRRQSdmqmtpO6Fk32LRR4OWr13fzC7W5AtQlqAKsvPx3794R1HngNlCASAq0stta2W3/YLZvROXCe8U5uXfz8gvAf5orkJN7NzObpXl9UJOwCmRms1h5+YR1HzgOFCCOAjm5eY/qGzCQ/UdM2bLy+03NLTDYtFGg4+nT/IIiba4AdQmqQO7dAgiCCOo8cBsoQCQF6uob2G1PAGX1E3NAWf3oSAArgLIECDJwESiAKgAoq888AJTVp5oGbQtQ1qDDC5wDCsgUAJSVaaF7CVBWdw0JYgFQliCBBm4CBQBl9ZkDgLL6VNOgbQHKGnR4gXNAAZkCgLIyLXQvAcrqriFBLADKEiTQwE2ggPaU7cg9tuVoruzrSE7dnVNx6yMi1sedvFPHIbaiKinLe/Rn7PLlOy7X8aQCQblHIsLDwsLCwsPDl6+IWB9z6K+SVtlpGIa5j1lntoeHTPH3HTdpVljsbyVPpBfzGnPPxG+IiNi063x+s9xF0iowDPMeX4lfuS3lAVd8kPsgZdvy5TGp1ZIDnJLTmyISM9qF59U0B8O85vyzMWEhQePHTZgSEhadnFMvCXXnnQMrwsIjknI6sU2zb+1dGf5T/NVGHgxLPRW5unrTjmPXKkRtYi8hVhmfsjh5IpPPsBMF5AmxBgCRvNWSsh2lp+Y7GpvPvdAhEolX//sSB4ptUNjGjWFBthSHxb9hOEIkHUW+qqIstzR+gqWlpfn4+FIJ4OCOC3PNTb0WxMTGxsbGRG9aEeJJM3P44Xip+P6ls+jQTGuKw7R1+06npp5P2hriRrHwj80WwqktI2oslRmwZN2aBb4jKJ6bbsvwK685lL7SjjztSIOIw7yqfUFUMzPS1EOPRAe4lXv8zcZEF3JgWF1zMLfy7CIXysgJYTuOp6SmnNy1MsiWzJyeWCjkKvvkDOPhRsbMsMsYcDaf+5FhNNzYfzdKeKynsbExUeFTHcwsJu4ulN2pyfeaEHu4lMXLEzn5DDhRQJ4QIu8J6aTmlOU1ZR9a6k2n21pTqFLKNh2fTnGIuC6cbjtvr3EmT02qV/loZfgCq6AsJ2+rp8X0XbumU902ZknYgrKHOi9FfLsCw3Bn4S8TqdTpR6p5MMwt3RNAYc5JrpFCmVt1dDqNPGnfAy6v+uBUqtv6O0LR2zPWuVGnHRZjU0nhtpT59BFL/hQ2wnt8YoblxIgVYyxDkpuFNZuTQ6jOa25DapuDuVWHgy2spieVSXoOw9yas3Otyb5xKJ/ZJ2eY2QVOdLLBYLbp9ByXwEmjzWSUlfMUyv/Zy9gh4qZSdwl0AI+yuHkipKycfIaZKCLKyjkK8oRAA8KQXdWcslBm3A+L4q+Up0c6ySjLPv8jjRma0oSStfWvMDvq7FNNhizXAL7hUxa6vdbFYsbxRw3JITSbsMviB08lysJw+6WlI80mH6jlcYpixho7rL4p4xoMw1BNYW4lmws/OTuHarcyXXwOSl9pT5t7AfMcie0jr+FosLl7FAtd3m1LmTfCOyb/1jpX5qJUtBOdV8KtmUsvdcBqm+OWxo8zdYy8JdcXmHNvu7eJy/o7kJCyjqsSVrvZLPtL1Ate468hrosSorxVURZuPjbdhL4oFdtTopVxKIufJ8qUlSWK+sj9txIFh7IgT4g2KgzUX80pKxYAuo2lLAyVJi/1HOkwYcbMQOeRbvOP3ZN7O2egoql0C5ey7WlhNvQfzzXBcOvF0BGWIcmPhU/7OJTlPtjtb2IfcR3qOD+XYvLdCdx/egtd5iX57pAsPXNLdviSAvdWqegTt3zXeAoKbpSpdm7rM6GOtDBrBxTSnLxtnpbfn2mBYXXNwR0p86imM0+xFRqA0sKYJlMO1YsoG5l+c72rGLO8xydDXJb8ztqOS1leZ0NhSoQ3hR6SXK9gklC7ypRVkSd4lJUkitrIqUgUFUtNXzxReOiih6PqRFGgLMgTQg0Hw3ZWR8q2sxKCbaw856yNjl47x2uE3Xf78mRLoIatHJ53eJRtuTDPirk4tQ2t334l3JYyaV8lug6MQ1leVUKgic1P16D2MyFmpO/P4krJLYv3I4mWYlGT3IpfJpD84svwuoMeg1ib3RmhF59Ad9a72YVf6YTh1vM/0t2jWFDtgSDq1CR0rVldc3DbqZkmlLnnFfsCXV9lbxKYUCWm7O0nGetcrZdeaod59cdnOi/+o/VeLIaylG9k23AS0yskOk3VIrcqRwzsuBJlVeWJukRRGzkViSJ9B6Eg6JdOFDFlVSaKcESAPFGICtg1BAV0o2xTcgiVuShV9JYPbk0Lt6d+d4zAL2aVKcurPzGTOmy4sZl4Mx7+jZHXz/kcXMpCGeucTXziSrjQ7TVOJn7x5XIzIq+xJKeovpNXd3AKaWwM+koU3TgF0V6kyQfrVCYjdHW5ndv62/kx3iPmp6Cs59UfCaYG7Ck8N5cxPr4MbUJdczCUvtLWJCBBeGeAaaT51EyKxbyUdgllIUiE2bZHR79zWvzHE04xlrLm1DnJDa2trWz2E0jOKYxFYhUVKKs6T/AoK0kUtZFTkSgqnmVh+CsninhEgDwh1jgghLc6URZduDLz3n5PPOHzqvdONBsbUyT5jQchBJRzUomy3KrEIIp9eGpNnXh7dGuTp7FDxPUOnMmzM3ODm8moTTkQDLenhVmTAxKwmOWWxvuZMpdeaofSV9jR518Uv95tS5lHt1l+Vf6tqVyn2Ofnjpi0OWqi5cwT6O9q0Mff3f70kDVhTp6iF7bqm4OfpIXbksbFFWGb4FYe+pZq+f3pxzwpZWEoY52L9eLj+6Y7Lv7jCaxIWex3XnLdI+iOPGXV5AlREgX3vpOgyQHcNiwFdKIsDGVudDMb9dOftRAMc+vTN/pQHFGAEHZTpCy3dOc4M+e1GRhAcUvjx5sy5qe0CFeMRXfurS2PqwvTEua5UhwWnhetpHJK9gZZWE7YmFoupGln5aVN/jTK+J3oz1/ar61wsAyMy2HDMDt7e4CF/fIrYuTiCs+rS5pmxWBQg/ahXy+jGyd/m5cVnS58Oys+oqY5mFt5MoRJcV96sqAFNcB7UpqyxtdC8lsc0eu22xAMQxlrXRhMpt0idHkcUFakrKr/y1FWXZ6IKKvPRGmruHMto1T+t9loN79uogDKqkoVcPy/roBulEWn+T2zHElGlBFMOolsP31nhup/I+G/LpUG/VegLCd3i4eJ26ZsDGRhmFd9cAqZEnyk/MJc6VuoYcNNafY+IZtTML+W4TXc2BHiRjUmMWxtrcjGFMfgbWmPRKutvPq0DePoJhQrK4oJ3W9jmvj3sKo6yC3d6Wtk5BNbLF2rhW6udjCiL/wdA2c1zaEvlO+dXvutM5Vkaetoz6BQbPyXHcwWR1pGWRSzzkZWQsgCyqqKhvg4lrJq86S2Q8+Jwin42dPEdUOmXFYKe/VVEwVQdoCMAaf/swpoTVkcT7ns6iIWq7CqlbhLxWJVFCiLo5W2h6CmB4WsnNzSR+2K79PaHxXnsoqVj2vbglx91c2hzzodjZVFeYVldU+kuJa7GOxooQCWslpcprKq6sgpJwqUvnpOfIlOQVTdHEgUlTECJwiqgD4oS1DpcNzWP2VxGsE5xHvMSj2TrLSd/j2HwJ+i4ej0Lzqkb8pq7hqv8a+YqAtVOkFW89ZATaAA4RUAlNVnCnwtynKKkhYHT1Xapi1IRL9mBtu/UIGvR9l/oRigS0ABQ1YAUFaf0f1alNWnD8DWkCgAKDsk4tYrSAAAIABJREFUMoNGgAJfXwFAWX3GAFBWn2oatC1AWYMOL3AOKCBTAFBWpoXuJUBZ3TUkiAVAWYIEGrgJFACU1WcOAMrqU02DtgUoa9DhBc4BBWQKAMrKtNC9BCiru4YEsQAoS5BAAzeBAiopW1pWXl/f0Ak2bRRobmnJzcvX5gpQl6AKZLPy2traCOo8cBsoQCQFamoftrLb/sFs34jKZeUVuXcLCoqKwX+aK5B7tyAzm6V5fVCTsApkZrPuFhQR1n3gOFCAOArk5uU/qm/AQPYfMWVrah/CL14gYNNGgU+fPt8rLtXmClCXoArkFxb973//I6jzwG2gAJEUeNoJsdueAMrqJ+aAsvrRkQBWAGUJEGTgIlAAVQBQVp95ACirTzUN2hagrEGHFzgHFJApACgr00L3EqCs7hoSxAKgLEECDdwECgDK6jMHAGX1qaZB2wKUNejwAueAAjIFAGVlWuheApTVXUOCWACUJUiggZtAAe0p2137266LtX1S6XqfFV/cGx0VvedMNvuT9CgxC4qU7b6fvCFSaVu788JvSRt33+jgi1Xid9zYvW7d3oxnkgP9LWlxm5PvdwneFhzdmHALEh0XvKm9khS7OSruyLW6dwKVCqtoNP5KRd5gWu3jFJ2OXjY7KCAgaOaSLcdz2rtVtgxOaK6AHGX1HDINE0Wus6q68DdbkpRy1TXaEbzWLOM+vWQd2nT83geNjGIqyQ8PzAlMsffZg6pOTV0QvC079tP0gAmT1//9HGNDH8Xe6gs7U+tk0yYi3/mutrzze6M3bdy2Ozmz5SOmQf7rmiv714bOCAoInDYvMvFWy2fMSYWiihjuvPDbwUFMN2DgK8g7+F0tKdvd+meYq4nFkuviqba/9dwcpqlN0Iro7ZHBTnTvbXlvVU//g+/lf+VKRcr2NlxLSkS3fWuC6Eaj5scLdw6eyb660ZEyO+WVSCsBdCqYRiKRZ557LjrAf3osiDQuoaGf33l8ipnXzmp0cH4qj/ej2U6OiN62PIBp7hNXpmq4qWr07pMirVsVvM1a40pzX5jw+42srJup+5Z4WljPT9V41vqvxO0r9FOOsvoMmeaJIue1yi5Ib/3kqmu206tZxvU9vxm76Jfst5oZldXCDg/ZUWypr3TrKOtVmT3YY6rL/LYjk8ycF5+4mfkA6lddbTBneku2eMw8zcVMjpjO99YdnkKnjQndsit+8/yxlhbjd1d0CRvpaTw3147qMjv6VFrGnfTzv4S6m1sGJVaKTip3Q1UMs69u0Ha6AQNfWd7BH9GcsoK3ledWj2cwHOyoNAllu7MjbahTj7YIb9H62cen0sbve6zn/By8b0N/pSJlpT3oLY5yNvvu7AvJKPt0I4zBjMgU3qsIXqf+yPh284ZxjNDL74RXvPtrPm3UtrI+RDYSBc/OzqR5bK8Qzhdd5dEetNkXxEyWNqJYUGwU0bpV5PPfC2m2kSzp42t/Q8I4M7+9RI6xosqD3JejrNSG7iEbTKJIm0cL8l3o/fDq9cdeUQV+19uX77rEz4W9H169+SQa6t3PHxZlZRXWcrok6S01qGnGoZa7BQjS//nt64/d79jlhffbPwqt9byov5edVVD97LOScczwQPhdb19/6BV8evogL/tuFSS6A+V3vbi+0nbE0rRnb8XdVrKGabCF9zw3ajT5+7OdL98Lhxn/w9Oqwqw7mYU1z+TuaHtfPC7OyS6s5UqHBYIoGZZKICz0Ve/0nXxYbllANrZ7cyNt6fP+EE0OgrfXloxghN3sQhB+67EpVJuFlznSR3E+dHEOnTLtlHQVTL4V6Z58DBEw8KXKfJ2C5pTtqziwaEVSXlvhVjcJZfntR4NIAYdaxVnQX7trLHnGuZfKw+Hr+Db0rWpMWcGriyEWY+Jr0Gnq041lzPH76kqj3W1W3EGHc0/eGjvb1VndCGYa+Xx1Ic1xY6F4vust2uhEX3Jd1T2t2HHFsYZo3SqCTgBkv+hcrrhhBPn8oqPzFWZ6GXqRDaNFDSmrdcgGkyhyisplTX/T/vGUab8+Q4d0d1YE08h+gzAH+eykifQfUl8JPlYcnmVHpjl4eTnRyLYzDt5/L2dMs+7z2UmB5ODTz5H+hgQ/hpefh63rKPug/Y3/V38m1MWc5jjWexTD3Hbm4QfYpVQEOzz6mxP9rYJCZ7vZuvt62ZJNncPSnvH5HSeCzY2GDTMysQg+3s7vxrGGadBuTJAr2WjYN8NNSJaLr/wflB451pLm6OM/wcOaZGL743nRLPe56tj3DhQLe6+xzjSyy6Lf2f0IgmdYTgWE35w4cfyeernnDxll+W/Z5WXNkndAnzMjbGiL07uQ/sa9fiYuW0qkQw+12ctpqO38KMWufDPSPbkYIggY+FJlvk5Bc8qK+9dXJqMs8ub3OeYuUcXiBZnPmauYxuhC59dx5V/QqsaURdDFKfPp6BJST95aR4/tFX3drEg7541FvUj/w90+jAVX0OlKOhLRNWRywEHJ/Qy/5aA/eepJSP39jOJYQ7RtFUGQ/rZLy0eThxkzRgfNX7Pr1+uVXA1X3/4F0fhXd0FDymobskElipxQ8lnTXxM/1nL+X+8QpK8iZjSVYjEuob4fEXBOT6fPPPe8p3KHJ9lrYw7MRxD+y7tbfSijfy6TSxCN8hxL2XFG9Hl/vhAgPd2fm5Mm0sZszn3JRxDB+wd7Jlp67xLelkq7Kx0eSH9z4ngjyuTEWvTLkI8FG93Mgo495SNIb95aO6Zwxbgf1xq6NiNtsKevMs6dMj+tG0H66w5Mtp91CmUognSV/exuFpjE5iP85kOBlNGRt7n9CNLXfv57xsjlt97jGpb2ES3wO08Ej4m5j3kpix3bclU/3t81wcIhIvOtAOlOX0I1/SFV/rZFrrLKHfkYoo1pN92Aga9S2kGd0I2yghd/L7Ex9ww/dvvevdtHl40fYW7ko3DLNqhe/Vcv0pyySF/1jjEjwm9+7quIcXdcm9eDIB+uLbYas7O6l3s6mDbzPIwSVDqNoM8O5KCjkpUidBGBPFF+BUpZM6WxhmjZqthk97P7V47GrAgZ70gdPszMJfRM3QAP0cpdAUcUFdCUslqGbFCJItc3hazpux892jYiq5vfenCS+6p1syynn+Hy3/wxlzHtZGfv471+pCknJDd7AvjMdLLnjmo5c5rkuRxlSVOOC9/7C6ATU0ztftxz9rxwO5e40NU04BAba1w6PISUJUnHx8fUH8iihSIpZVVYQykraRBBZJQVtdL3gdNUcfdGSsI8FxOf3XX9gueng8k+e+rEjxF9ryHofQ9+N7FPm4IXF+e4r7srd/eBGdtSjwSv7yVMtbIMiC8WPtd2XQklkRdcHcy6kUIMETDwpSJ/lYJulEUQ5ENNyvqZvqNHeQevPnFzfzBl6knh8tJXcearN6oFZZHeu+sc3WPK6vaNZ4bdQG/BBS9TQmhTjj3+e8mISWKASqcRwYuz35Fl70P76xN8ydPPSF/z4juuPNYQ7VpF+B+47c/eye7Bu59mxgRYUGac5eC3CI5qrIDGlNUuZAMmSm/BJjdzknCzXHAZ50cBilnTW7jBxT267NmF2Q4rbtUdDByx5Nrz68usg4608XtLopzNQ2Uc6L6xzNJ2TZ68BhrkuRxlySG/CT+D6q/e6WU8wnf2XNk2f0NqK9a4dHgIKUuecV78OeHnS/PIom8GpZRVYQ2lrKRBOcp+qkle7EkzMrawdQ8MWRzsYuK9u66//3HCOHJwstz3EKoMY/r5/sqiUStuy73axd5Bi2p2N6WGu1vYzkqqkCwd95VtczOdeLgNC2xE8KalqvGlArAxbYmKijFEl5q1mW7AwFeSVKcDulFW8OphTs5DcW4jnzNX2TqK3tvo1Kf/7sXaUBb5eG0Jc9qOnd8y5qa+ES79ok+oVqHbIt28RS9ssfe7vYUbHK3CboqH6qcbyxj26+7KvbFRVg1nrCHatfrx6kIa86cMzFyMzuIkj7hK5dbAEa0U0Jyy2oVswETp+/j65QvhJv7IR6HbSlnTlbXafnzc/oV2P6a+7q3Y7uEcEbfc3n9/Uz/6unECScYBAXRiKmnsLw8VDA6c57iURZ8+zTziKiX3eIK+PsVXUVpQVoU1FZQVPEsOJtsuSmULP7kSfnrs/cvDfgF89jvxQzLqY9/jm2euVdUdH6CbnzNWjlog/q4RI42s8wjS8/j09zY03w03OiTeohW7WJF2lCnHsZjltx6eaGazOmuAxSSlGKLr6NpMN2DgYyKle1E3yvI7k4MtvLaVvEcQwbv7e4IYXnGir2B179h/0oJWlBW8OD975IgRtOBTkqf//rrdviOtrIRvZ4X+Y0ZiV8EGZ8bUA1UfEeRj5f7Jlk7r8hTvjhUlwxtriFatCt5mrLQzHxN5qeG98I667/nduACa68bCAUa5Yk/AvpICWlBWq5Ahg0gUuc4pZ83HG2EjLC0Zk4+285HunEhbMsncZ/dDFHn9DxP8KG4/XW3rQZC+zpuR7mSPuArFe7+Bu49LWYTfenSyufUPyfXCd601B6fSbX66KfoIX9xh2fBA38viPsve2+TEWHZD+MEunjUVlEU/+jIdHVWEfm3V03E90t3YSMh7ftuJby2cw6509CJIDztlnvXIZemvB+hmT8EG9zkpystOss731e2bQKZP3XmVlSve7tZwUBX7W04GWzKC4u60CYd6z9OsuCA6ddKhBpTFn9orCsrZH3A/zVCOIQIGvlyWD+2ObpRFkM/VR0PsKDRbJ2sLS/dFybUDzfxD691Qt6YVZRE++1CAkdGExGbpmlBvyRYXI6ufpKtLspGILiizYgMZptSRI6mmjIlxuZIVBNU+4o01RNtW31f+GubDMDal27u62NLIDN+w09UKn3qq7gE4o1IBLSirbci0ThS5TuJkzbvLoTQjzx1V6OT+Pi3Uwsg97oH4oaur/txSd6oJzcbWkkTzWJxcg1n3kJgdMM/xKYsgva2XVvtYmlCtHWwszBgTNt5Q+KG2bHiooqyAmzqPYWzpMP1AbT+eNRWURfidacvdSMY0WydbK7uJkdtCnemhl9GF7N6W1BVeNDNLWzs6me63/gb6D8bgGZb4jn40Njb4hELH0bPSzvfdjx41/Bu5zVjyoz/Bq+KDoR40E/IIB4eRFGNz15DdrOfC6aK/fo+PqXtsBfbhV9ooTgzBwJeqM/QFrSmL08WeV+yHD5uff5LCAqcOMQ6ppKy+3O+Cm2trmmHlHybqqwF8O/0fnjXVVtU87sS8o8WvCY5qqAA+ZTW8eOBqQ5kogs/cptqHLTDOL1oH7uiANbpftNZWPWS/GuhdpCpDfW/bHlY/5opv/7Ww1ve2va66ru2N4rM5gvpbU9P0XM5fLQyr6qnK471vOxqqq2pb5cd9b+GWhUktX3bSBQNfZVC0OaEPymrTnmHX/eKUxconeF1z58plpS3tdhWBf7GMFehfXf7ClP1X+w46p7sCgjfZ+3ZeF//bq7qbAxa+pAKAsvpUd0gp2994flXITKVt9vJkyU8N9OkasKVfBQBl9asnsAYU+NcqACirz9AMKWX12XFga6gVAJQdasVBe0CBr6QAoKw+hQeU1aeaBm0LUNagwwucAwrIFACUlWmhewlQVncNCWIBUJYggQZuAgUAZfWZA4Cy+lTToG0Byhp0eIFzQAGZAoCyMi10LwHK6q4hQSwAyhIk0MBNoIBKylbV1HZCz7rBpo0CL1+9vptfqM0VoC5BFWDl5b97946gzgO3gQJEUqCV3dbKbvsHs30jKhfeK87JvZuXXwD+01yBnNy7mdkszeuDmoRVIDObxcrLJ6z7wHGgAHEUyMnNe1TfgIHsP2LKlpXfb2pugcGmjQIdT5/mFxRpcwWoS1AFcu8WQBBEUOeB20ABIilQV9/AbnsCKKufmAPK6kdHAlgBlCVAkIGLQAFUAUBZfeYBoKw+1TRoW4CyBh1e4BxQQKYAoKxMC91LgLK6a0gQC4CyBAk0cBMoACirzxwAlNWnmgZtC1DWoMMLnAMKyBQAlJVpoXsJUFZ3DQliAVCWIIEGbgIFtKFse/mVpJh1q1au2Zb4Zwlboh2vMfdM/IaIiE27zuc38yRHiflXkbIdGYkrwpS28M2Hj8Wv3JbygCtWifsgZdvy5TGp1ZIDnJLTmyISM9p5Tdd+WRn9W5XouIZKq2g06kzmFa1b7bxzYEVYeERSTic2oOxbe1eG/xR/tRF7EJS1UkCOsvoMGQzDOifKZY0SpU2WnSBPtAo+qEwsBTSmLJQfH0Cjuoes3hIVEeJhYe697U47DMNtGVFjqcyAJevWLPAdQfHcdPsJsfST91aRslDh+fhYdIsJn0Azcg6JEu7sOHjp7Eo78rQjDaKbEl7VviCqmRlp6qFHogPcyj3+ZmOiCzncyoQA09FRLPQXHxorrarRq+XpWrfKPjnDeLiRMTPsMhps8dZ87keG0XBj/90PJEfAX60VkKOsPkOmj0T5W6NE6ZRlJ8gTrRMAXEAcBTSlLJQWxqTNOlknxACv6fxchuX8i+286oNTqW7r7wifdNoz1rlRpx0Wk4I4EmI8VaSs9BR0I8LBdMpBkXwoMlPm00cs+bMDrcB7fGKG5cSIFWMsQ5KbhVc0J4dQndfchmAZZQejtGKj2rcKs0/OMLMLnOhkg8Fs0+k5LoGTRpsBykrDO4iCHGWl1+sesiFMFFl2gjyRRhAUgAJKCmhKWW5TacbtYsmK8JM/lzCpP55vf3J2DtVuZbr4x/VQ+kp72twLmKcepeYM/IDGlOU1HA02d49icYTEnTfCOyb/1jpX5qJUdCmg80q4NXPppQ4YQ9nBKK00ZWvdqnD2dFyVsNrNZtlforjyGn8NcV2UEOUNKKtTMmtIWa1DNoSJokBZkCc6JQS42HAV0JSyWAXYGVt8zG2X/NH0rHKPP8l3R6n4dSK3ZIcvKXBvFXFfzmpMWZhbvms8ZfKBWh7KVDu39ZlQR1qYtQN6x8LJ2+Zp+f0Z9N/dks5j6Bqy1korUVbbVmERZSPTb653FWOW9/hkiMuS31nbAWWxQ0L7soaU1TZkQ5ko0uwEeaJ9/MEVBFJAW8ryHl+PDqRb+EbdaObB3LJ4P5L/bslXPNyKXyaQ/OLLJN/wEEhGsauaUxaGWJvdGaEXn0B31rvZhV/phOHW8z/S3aNYUO2BIOrUJOHCu3QeG5TSypTVslXJ7Hn7ScY6V+ull9phXv3xmc6L/2i9Fwsoq1t6a0pZLUM2lIkizU6QJ7rlArjawBXQirId946Hupozv42/I1o65tUdnEIaG1OIrnvCMMwpiPYiTZa9fDRw6XDc04KyMHR1uZ3b+tv5Md4j5qe0oe9n648EUwP2FJ6byxgvvlWRzmODUhqHstq1Kp09IUiE2bZHR79zWvzHE04xoCxO+LU5pDFltQvZUCaKNDtBnmgTeVCXcApoTtnOwgPTmVSvFSkPZP/GOZS+wo4+/6L4u+K2lHl0m+VXZacJp6Y2lIXZ5+eOmLQ5aqLlzBONwkV2bsVuf3rImjAnT9ELW8yKMTwYpfEoq12r4hXj2xAMZaxzsV58fN90x8V/PIEBZXVObc0pq13IhjBRcCgL8kTnxAAGDE8BTSkL5cf4kGiBUWfTJNtVVg0Et19b4WAZGJfDhmF29vYAC/vlV4j8Ux6tKMurS5pmxWBQg/ZVi99kc/K3eVnR6cK3s8JUw8xjg1Aal7LatYp+Y+wYeRuCYShjrQuDybRblNoGA8rqPhFoQVntQqYiUdoq7lzLKG3F/WZikImCyU6QJ7pnBLBgsApoSFkoY53z8G/kNmPhD1N49WkbxtFNKFZWFBO638Y08U9ADVYv9Y5pRVmYW7rT18jIJ7ZY+iIburnawYi+8HfJnQpmHoO1Vxp38tSuVdnsiWLW2chKCFlAWfVpoMlZLSirXcjwE4VT8LOnieuGTNyFpkEmCiY7QZ5oEnNQh6AKaEhZ9eq0PyrOZRU/ase9UVZ/qWGdVUlZfbkJlNaXkl/bDj5l9dYr5USB0lfPiS+R3tDprSVgCCgAFFCvgF4oq74JAp394pTFasl7zEo9k6y0nf49p57wtztYnf6d5S9MWUWneY1/xURdEP9TnYonwT5QACjwBRUAlNWnuENKWU5R0uLgqUrbtAWJ+eKPvvXpGrClXwWGmLL67TywBhQACmiuAKCs5loNXHNIKTtwd0CNf68CgLL/3tiAngEF9KoAoKw+5QSU1aeaBm0LUNagwwucAwrIFACUlWmhewlQVncNCWIBUJYggQZuAgUAZfWZA4Cy+lTToG0Byhp0eIFzQAGZAoCyMi10LwHK6q4hQSwAyhIk0MBNoIBKypaWldf//+2deVQTV9j/9YUASQhh0QiIssiiKKKAIipWLVoV1wrWDVS0uKCgWEVFxLrVFZeiVrQiKiKEHQRkl02WIEhM4mgtVY5CgR/kzHnP+29/ZybbJJkJicQtc+/xyCx3nnuf7/PMfObemSQ1tW2gaKJAQ2NjekaWJkeAuiRVIJWd0dzcTFLngdtAATIpUFH5pInT/B+mDBEtFxYVp2dmZ+fmg3/qK5CemZ2Syla/PqhJWgVSUtmZ2bmkdR84DhQgjwLpGVlVNbUYyP4npmxF5RPo1SsYFE0UeP/+Q15+gSZHgLokVSArJ/fff/8lqfPAbaAAmRR43sblND8DlNVOzAFltaMjCawAypIgyMBFoACiAKCsNvMAUFabauq0LUBZnQ4vcA4oIFMAUFamxeCXAGUHryFJLADKkiTQwE2gAKCsNnMAUFabauq0LUBZnQ4vcA4oIFMAUFamxeCXAGUHryFJLADKkiTQwE2ggCaU7WzOiDsQtmXz9n1nUho75LXrqryy93Jlr/xG0q3hUraXl3s2bOX33p6e3nNWbD2R1tKF6tJbeSk0OAgpwcEbNoZsjYi5kt3Sie4Stmcf2xx1j9svWvu78mZs+M+hEb/erv5HqEJT7GG9ZXFbNkbdaxOZQA/qKTm3ZW9iy/vHZ0LQZuX+2xD5JwdTV0UrYJdWFFCmLEGewNpPFCUHiJpWqqi0QfiafWTLibx3SjtEG4T8lENbThfJ71XhkHxFvLWBGoRSD285VfAe79CP2SZ2QHReSgxgTzTJNsW/PS9KyrBnn+J+uXVhe+Hxn2Z5Tp626c+XcjvAik4ooDZle6qP+pgxxy3eujfyZ39XU5NJ+4qlqdfVdC3A3sBkxR0RP3RCmI9yQpmywvaHwfZMp6VRvyc9fHg3/uAKF5MR/vHI6dd1Z4WJkduqA9FoObBnwxw7qumMY7W9MNzfdsLHaOyecuSm5X1RpDvTatq6sO2rPFnGEyIKPxD2DHtY160ltCFDzedfapWy88P1RTSHHUXva2/Hok0eDPY20x/jH4muxJzLfCGtSdgC2KE1BRQoS5wnhIkCf3SiyDuhomn5inhrwpd3w5f9ktqOtw+G4b7aqIk0vyvye1VkvnxFvDVJgwS3m30N0ZNos+P+ItiNZ1HlNrED8v5hTzT8o3sLto0ZsTalG3+v4tb+5l+nGtkuP3k3pYTbp7gTrH/7CqhL2Z70ICuzRVdfodkrbL+9Yph5wN1OGBa2l15YP8nc3MaawQSUVabshz+XMq2C2NLbD+SsNXI/UCeiLPPHJOkeuLd6v5uBbegj7MVT+OL8HKbzrmL0dO0sCnNmfn/xJdEVBHvyd91aQqebm9MsZJwVU1Y639CTH2pr9N15UUi//Uz+xjxQoCxxnqCUxUsUOcpqlCjyUqloGqnY/aomL/VhdvmLD5K86/vQ/qaj6x9OUc7jlo7/19n++p8u8a7+d8/Lch4+SMmpeCG6GSSkLJ5Dj8T9UmoRv8H+zva/3vX0tTc+YmcUN78V3SOKKfuq43lJRmpm+QvpSADXFTnDiA9EDhBTtr+z/c27HuF7tL0yLup2f+erO2ushv2Y8KK9U9QtVS41Cl6mhzrS5p1ve/1WhGWlXoiE6XlVl5+WmlPJl10zcKIjFhH8+YoUUJey/e2cosIGyYTlh5R1lszliZ0w3Ft8eNnq2IzmnG0OgLKwMmWRuxOae1g6v0cS9A+vWtv+6sKhLPzPlXmG5qsfYCn74dZS5qjNOeKDe3I3jzZbcUfuyiExK3fNheGuW0uMR284f8jbRMpZQFmMVl98UYGyxHmiTFlxoshFXKNEkXdeVdM15xbbGTNHuY4fY25sNedoCfKcqK82yt18rLuzlf2Ykd4HUmK8aL5nX8JwPzcxyNWUOWqCx2TnEVQDqwVxTf3EY1k5ysoyH+7CaRG3QWFfQ/RkM68Fs0Za2LuMMaeZe+/L/0cII5Q1dJjibWfl5OZiSTO0XXWLh4JuQMOHalqJHSCkbF9DtIeF9+LvHayc3MZa0QxtAxJe9Lae9DXWHzpU38DE90RL/wAtW4/ztqfpDx2iZ0A1XX6zE1dGGP5QdnyeDd1k5FhXWybNbtnvnD4YVyv50IK1r0MBdSmL7W3H472TTWzWpbRLbm5huLcQUBaZ3lX+7qe+5uurHGlDKeaO3v7Be0/fKeWLp5GQeTPptUbY/VddUugkY/PFf7zGULb/+XFvmmdMk3gut78xxoM2/RRXpjs2LHITzShlt+S9r431NjGfdxGZNwaUlVPrC68oUBYmzBN5ymISBUtZzRJFwXWipvsaYqcwx/2c/rofhoVvS/ZPMR2/t6IPJae+2aJrr4Rwd1cnJ1ZE2b7qw9NGzv0NufrDcGfhDicjr1hO/8BjWYxDr2H8FhEjSg0ilJ2kb4B0TwgL/84LczMeF1nei26lTT1YgTyZ7cjb6mjkc7KtXx3DH1Q5oIqyk/Tp06Ir0fayNzsYeR9/3g/3ZGywZqEzxmq41N1bGuFE909Ahqj4MvY3HPGiOwbd5/fBcG9L3Dzz4avuvcWPjkJswerXoICmlBW+yYuabmHqGYncOMoKoCyqBQ5lke1dLx7fPLZztd+kUQy9oUYSjeo9AAAgAElEQVR2i89Vd6JjWcYQWdGjWbr5R6Wj08HSqd9+TuwUmvcxybPV/pZj3rQpR4leU5IehjSJjGW35PXAPVLOAsrK8vXLLylSljBPEMpqOVFwvMdJUSH3pI+h9YL95+PQciF6qb2h5xEROak+J0Sv9vRLKCuy2fuOV1+cmXQpapGdwYR91X1ElMV3iKDFntqoiUoNopSl+54VPz8Rvjg1nTY5uqGnIXoS1ftYi+i+tPOGP905oqxXHcMqHVBJWar0DO2I/4E2LrKiT0ZZgpYRXaQuwRjK4vai9+VZX9qE/dXiZ7a9b7jct90E0cGJLdj0pRXQiLJd9fGBTiZWc2OL5RALg7GsOIxKlO1/x2958Y/0USjc9Txlp6cJffZ58Yzx0ht/vXv3rqPjQ494uIoakuJS+Or8dzT3A3Xi06uvJsqNNusc0ZNU6WFYysJSzj69ir79JO0MeC77JU8+ecqqyBPRWHawidKTvcXBmIoW0yU3sK/gEjbdV75nLGWY2/cLZcU/JL5JQk4ReGSUfV9xZrkLU59iYuXk5bfc185gvArKmjDxHCJosVv0CpV8g+iM8fBV9yUvGHXdXGw8ZkdRl9zbT8hGp/DiXnUMw6ocUElZ2dtWyI0s+taidCxL0LL47kNsFktZvF5010VNpPmekXshg8jwl8xp0DaBAupTtrvu7DxLpltIUqv0Oi2zCcayqBZKlO24tZTJ+ikZc1VDwEl1jsB7LiuVU4bLnpyQURYBd8XvFb9PWmk+cmOm9BGv9ADRguwwzFgW2dVbd9TbxNx3truhw44iafQAZRX0+6yr8pRVkSfyM8byfZRFfMBE6e148/oVWiTv2IhNETaNDMOMnCNKJQkj7O1F7/bkCCGhrPDFGV+a1bJ4DvqOFPrS7PhfnkiILN9ruWcl2F0ELeI3iMwNG8+Jey2aUuvnHEVnfZCxrIx6EsqqYVi1Ax9NWTVahjFjWfxe9ELnvxONkVG1euvunrtdVn0CNzpYPcHyV6KAupTtrT44mWY2fc8tdrq4ZFbwZJd7QFk0nkqUFbYnr7E2Hhd0vVb0DmTvy8wIT6b95hw1KQt3ZofYmk8/XNYBwx2lh6aZjt6YQfhRHtk1V4GyIs4yhgzRA5T9Ss47WJ6yKvJEPcpqlChyGhA33d90bJrxiB/O1KDPHCtipptZ/nT3H8kbTfJDy776Q5MMHUNzkdejulvvBDlR9BFAiwEp16AKh/BbJKasPtV9V94bIdzLTVrnaOL9a2M/wl5lysIDG1btgMaUzdsy2nxlUiesRstYyhL0or/55AwT24CbrT0w3M25tGjE8JWJb/CjIy81WPsqFFCTsr2Pw8boyR4iIksU7IdAAGXRaCpRFnltpPR0wARziqHZSHs7KybN3C3gbDlyLSK8o8e8/QTDsPA1O9zL3JAxfDjD0HxKRLqKTwKqoKyYs/qAsl/FWQfDCpRVkSefIFEUNCBMUbin6fr6CaYGjBE2liZG5pM3JyEPY3GhB/e3JaxyoFKYVqOtLKynBG1fbGu2+Ea7hpSFcVvEbRB9LmvoOG3GaLPhVuY05tjAK0+7YfQdYxzKqmNYlQOaUlbIj19kTjG1mXW4sg9PRDmXMGNZAhlhuKcxfvVYppGplbUZzcx9UxLyjTV4hhVCC1a/CgXUpOxX0devvxM4lBV1uu/di/rKsoq6NswzWg3c6YQaKisaoE7sC2caHA6qfn0KyI9lJf0bZJ7Ag0gUwqa7XjVVlj3h/CV5Airpq/Lf3vaW6vLq5r9lc1zKddTZolaL4lHr685XjdVPeR3Y9xoI2xjIsLYcQDrQ2978pLyOL555GqhlbJeJeiH8wK+vqKh/Kf3gMnKQJoaxjYDlz6gAoKw2xSakrBYbEb6peHDzhlJJuF8mfkSlxbaAqU+mAD5lP1lzumdYfm5Y9/wDHumOAoCy2ozl56Bs39O4tX5zlMr3q85I3vTXpkfA1idSAFB2kML2v7j586I9D98O0gw4HCjwyRUAlNWmxJ+DstrsL7D1xRQAlP1i0oOGgQKfVwFAWW3qDSirTTV12hagrE6HFzgHFJApACgr02LwS4Cyg9eQJBYAZUkSaOAmUABQVps5ACirTTV12hagrE6HFzgHFJApACgr02LwS4Cyg9eQJBYAZUkSaOAmUICQsmUVlW3cF12gaKLA67/eZGblaHIEqEtSBdgZWf/88w9JnQduAwXIpEATp7mJ0/wfpgwRLefk5aelZ2ZkZYN/6iuQlp6ZkspWvz6oSVoFUlLZ7Iws0roPHAcKkEeBtPSMqppaDGT/E1O2sOhxfUMjBIomCrQ+f56VnavJEaAuSRVIz8zmcrkkdR64DRQgkwLVNbWc5meAstqJOaCsdnQkgRVAWRIEGbgIFEAUAJTVZh4AympTTZ22BSir0+EFzgEFZAoAysq0GPwSoOzgNSSJBUBZkgQauAkUAJTVZg4AympTTZ22BSir0+EFzgEFZAoAysq0GPwSoOzgNSSJBUBZkgQauAkU0ISyLUU3Y3duXLsmeHv0tUcciXb4WyV7yfVXmbK8rOPB646ysS+TPrt/cE3ohUI+Ig23IvHwxkUzPdzcPKYvXB91o7hVTjBB1bXwVat236gWyDbzso4HBQaISmBg4E/rNu44cCWnUQBBrcnRq8U7MH8CRW0JnqafiwxZt27L3risBow5mWHJEnEDENSSfnzjqq1xRTxJZUjQcO/g+uCYFFE+8OvY53YF+vl4uE2cOjcg/MqjZ9KKYEFOAQXKDpAnnytRIAhSP1Hk/BnIAbnK6IqgJmHP2qg7Tcp7tL5FUHlt19pDybh28c4x3IqD2Sio+iNi7YF7zYOx8amOVXW+D7pNcZAHbefbNqA2ZblZkZ5MhpPf+q2h6/ycTYzHb3/QAkH4W79tSQbRe2XKtl1ZbEKffwELz6e/zjS0WZfEhQT11wNHMRzmhx2/dP365RM7F44xHu53shTFL9oJfkHkZFNTU+NJkQWyjYhFirN/WDhadoVtCfCxodLGb3/Yys2Ji0Q37gyczNS39QtFV3bH3CrnNyeHujJYnis2Bi9xG0Z32XJfBf2IG0BuC/IPeJswvPbliu4bBFVx/lZMr705yGpb7pE5I+g2MzcePBsfHxe7zc+BbuIRntoyCEF191AFyqrKk8+YKJAmiSIXHJUOyNWUrAiqLof8sO2PepW3fJLKg/vLywkbR/U9jmcE9xzDqziobbz88PFUn9jaz+Crxv1Ueb5rbE3hAHGQFbaSbVVdynITAljMuadEgypBfdxCc1P/yy34W8mmocxfzSj77MJ8BisgQUpg5Fpg6LozRzJQ5GVsczGZtXfvLIbD5ofS0bDy5YxfuHeSwbCVN9okHeEmrbMx9ImRjoAF5THTGQ6bHqAVWpI3OjBmHq0iPOEHaIBffHSWGX3irvQ2iFd4xNfcYtZRdGjLL9jvSWfNP1MhvSHglx2bxaRNPVgi6Rf4K1NAE8p+pYkicwa5xVJxOwnxW+rrmriC5tKHN/+4lVYmvsXjt9TXNLQKeM/qaxpapFkjaG2sedosOgfaqrPv/HH9Nrv8mThbec/q6zitDYXJicnFHGQbr6E4NfGPG/fy6qQnCATxm0rTEq/HX0tkl4uaIqYs/jmmZBfp6tNnkhMTgtqaap828/DdEsnCrc5JuvFHYnolenqLKVvNQRVgl4vvPJXcgVqrMhKvX09Mr2iRnJ8qGlGqjEjZKLkMCFobaurFuuLKJI6fcuQULyhKYUCPlPdQZEy5pijI0KCCLO7ot/tHXcry6wuS7+dLphqfXVvBYiyIa8Hf+u2qMdiea0ZZ5B6F6roxoVJ6gXhWXVJaK6Eu9/4GO5PZJ6pqz/gxLQNuSEafyieFoOboDEPGosuSAyFFyj47P59hvSZR3Aw3cc1I5sKLhEPMARvgl5/2G05zDfl1qzvDctGFSvR6wMvd6UqxWX9X6guiJbciJ72UI72ADlZeXTpeE8p+pYkiFw7lrIGkkza8/HA3Mw+/maNZ9mMdWVQDG/+z5XyIXxA5kep9uKrx96XDWcvixbOpbYlrbCwWXWyEWrNj/GzoDGtnF1szOmt65EMOBPFywlxNHV0dWKNsLT12Zdfe2jTOhGkzdoKLlTHdbtm5Mj4E8cviApxNGNYubhMchhtRWLNjC/jIcfhjWdxzTFCvZLf11iorxqzj4ltTXvpWZ9PvT1fl4rkFQdCztP2zrGjGlo7ONgyqzQ/HC3gIZQ1Gu3vYsBzGjkEUWHK+Au0Wxp3c+pTIGSOoDCtHx5EMKstndzLypUD42kEQB6ey2M16NDCC6hgf6oSIR3wcdwaIHPaCghcGPA8h3IBJggxxPjbIubJbG7lef1Mr6lIW6xQneesEY6sVV+XnevC3Yo/T/WXNKAvxik4vsaMOpZjaefgFbj10MbVSch8KQVBLQoCl2YIL9RDUdHnxMFO/M3Wiu1vkckadFpGULCp3rp8MnWlJYS25JN6PwE1+LMsv3e9BddstmXXmP9rtRvU6UCa5WVYMixoNCKouLrHUG6JvG/jHU7GZ1riFdIPvToJvC1OUk2BdE8p+4UQh8EB+8wCUHa9P8wxPR0jKub1mtKHH/lK+hLKCloRAq2GLL6MPaFtuBFiyfrz+jJcf6c5wWpdQw4cgQePDHe4mLlvZPAQj+szvf6sWQG2tbY2/zTV22ZaB3Ndx8/ZMGeF7uBjiZUV4Ws44WIhem1vub7A3nBhZyCeiLP45hmOXz727fhR92mH0pOGmbh5jsTCuAUGnslsQP3/PRJrdyt8reRDELY6dZWax5EoDUpU6aScbVeDOejtDz6hStFtSd5pTfx5DdVxzowq5Vai5FeRCs9twvw2hLE4jXNzK+JTFcwcbO1XnO34Y8D3EC5iUstDHBhnb0292WVPKCuruhHmZmbiFJknGtYjr+Fu/WVE+uuMaUFYy6GstTz73y6ZlvuOt6XpDDW38YrJEg8zGi4ssWMtFd/gtNwOt6FMPip7YIieFHp1lZ29vZ21KGTKUZuO5eHtcvmSoi/RdkbKFke5Uj30l4jElv/iXyVT3SNHrVziuqtGAoCb+Rxv9IXrWy67UiCnbcs7PiDrvvHQ8jWMYbMIooC5lJXkCfblEwfSaeJGQsne5KCmMpAnIOfkd1SmUzZNSFuLeC7I1XxDXCEHN8ctYNmsSWwVlUZ4GI2bviIlFy5Hw+aMM3PYUIBgxQviE9gNNc5bnyrDY+LQKuakZblNFXsqtS7+GzbWhuGzPQumM81yW4BzDtct9uNmBOvmXQj7ETd5oh469EQAquyWoOuxNddmRJR6DcevKyhq5aNXJvxSLOt5yxo/msCWNi3WHl7PT1cgzSnLvK6iKmUYd8zNbdKSids/xK7eIhuwKY1lcdzCBVHG+44chv0LZw+f4AZPcSiEXJXWD3CYXZExHv91FjSjbmndisb0xa0bkAyxi8bd+u5IMouc4lL223Nxwzm+YlwsFlYe8De1DHnL5TZXF5Q2yGdbW0mub3IxpPjEVAkhQc3IOY6gexUhcKHpD9MeKzlzs5ayl4JT/aKbL2qvSR7Bo5xUoi84dyZ738rLDxlKnyZ7aKvo7YAP80lN+LIbn9uhV9gas+WfK0UsH937waAP3yCIxykVGBU8fpeXWYAboim2Rd12RssR5AhEnCvRZEgUTJO7ttaPpopw0mXcGk9VQmwoHEMbI3v15dnou1TGUzZVRFuKyf3Y08zv7tCFuoYXDpgdciMcOdaSYj505R1b8Vp9EKUv1PS7CCDIuzj6zeZ6bNV1vyP8Y283efa8egprZ0QvGMPQpxiyHib4LvFVQVsU5pmRXAEG8rO0uRuN35T5LWjfaOjChBZ3MxXELHVB6R8u/9yCvQOs5P7p9SApKWYk73LvrbOh+srvU1kuLTFiBN1HKKmnXjF8Zn7I4MslNY6k43/HDkJcZNo6q4CF+zQLJrRSSQuoG+TnmXoE43zBJ+fUvqk/ZtpzDs1iMsasvlcjAAEH4W79+vz9ND5Upy0vf6mTgvC1D9nSh7fZPVoZTDpYLOOfnM4YtlTyPQjqE4NDIYUsql18W7U0fGRhfUS0uVfe2uFBs1t1pVXrNpCUtbAKN4RmZgWGZAmUhbuJqazP/y+LhbvOlRWaWq25hoyinBvasQ2auFRrg5kZ5M81mxBTwoOZ7Ic5GZrOOorfoLQkBI2ieUVjM8gsi3Q1ZP16XMw9WUAUUKKsiTyDiRIE+e6JwOXU1opyUvWaD+qPKAXnG4FAW4uXuHG/mFxPjZ+aCnivIIMrQYXOqJEkFXC5yBslNiUJt1XmpechcCrcu98ae71iGXlGC8mhvKuuHEwXo61L8or2TDBGD4uPkUo9YOhy7yOiZlx8+wWh8aHSAzeh1ScjZhu+WoCrGBx2ri1rj5lyOiWPX5GLvM/Aoy0esy+5SBWVRXkbIdQO3kVb8ysgQV0pkfsFuNyPkuSyBO1IxVJzv+GHA8zA1cz9ewGQzxoheHxFkwnyTdv9bWFCXstysnROoTK/Q8wmScotdwcXf+i34/Wn6qExZiJu8yZ5i5hly/mFJzdPqwuRTa8YbU90j83iQoD5+2Qi608rTOY2i0WDVrc1ujFFrElv4BXsmGtluSJZcYyAIydZJhub+lxqVX+bkZoRPpNEm7kIfUKF+KVIWarm92sbUKyKNA0Gc1F2eJiNX3cTOMMuLoXDWQRC2gWcpW8fTWfNOiwawUGvqjvE0E++oPC4E8R4d8DYxnbw5vgi13VZ6fYsHkz5pD/opH/kmwBqkQFkVefLVJop8FIkTnQBHmLEsBPGLfvE0Gz6MOXH3I/Rk4Bfs86QP/y46G32Qyd7txWQtvdwgR1l+0T5P6uiA67XIAY2319rRfY7w8naNN7Bbl4h8erut5OJKe4o+wmocyhKfY3FsZbvoG378on0ehnS6scOmFPTMxAUgF+IXRU0xtvE/h4xG2gp/nTvcYlFcrdxoHo+yEC8jzJU2eun5ojYI4pZeXmlPddicIpptl5ITktyh4FcWVB+ZTh2x5HKNAOLXJYW4GupPiHjExZFJ9MKiOH6qznf8MOB5WIcbMDnKfkyQ5XPsW11Tk7Lc5I22ekPkCsUnpvw+3lb52ctvVZiP6jcOZSGIw45e6MiQqEexmLj6XIGIn4LG1EP+LqYUA6blKBsWg2o21v8wmwMhrzAaIENabB8E5TE+NLrvr5Wtyh+Z4GbscqPRJoZniY9QoiwkqEkImWhmQLewoBuYuW9OUPXBPaWzDuEs2sCupKur7QxHLv9d8jAWmQfKjvQwpruHp7dBkKA2abefA4NCNbeysqBR6KN8tycgL3OAoqyAImVV5Qn0dSaKolOEiY6PIznKQkh+Uw2nHJB+XJxbcPpHFxMKfbgVy9jQbMKaS6XSd4UlM8acB3t8WEa0YTajWAxjm7kH2M8gfunZJaONKAzWSJbZCPeAYD8bpt+ZemXKqjzH8pOV7KK+CsoOTzPSd96WLpqZwncLOScenVzmyDA0YY1gUpmuP10q48tXxaUsBLVkH1nkQKcwWCwTI4bDgmj0VSn5IyWUJagseJqwabwJxZhlPXy489KAGcPdIh7xIRyZsKEjPt+RCwpeGPA8hPBrioMsbu9jgozt6re6rCZlv1X3PnO/cSmL9oH7tCQnLZWdU9YomzsWd47XVJ6XnsbOKcU8o/0k/W6pyk9n51dJP4n3SRqBIG59SQ47Lb3gkzf0ifr/ecwqUxZtV0WeQN9EoqhyQHNlW6sL0tMyCmoxj0MUjHDrS7LZ7NzyJtndHLe+OIudVfRU7i5V4bABV3HsQhDn8mLWxIh8pVMYx5rgWWUem51XJfmkL04VvE3IYekZj9Q7DL8yt744J6dUND8mbQLXHenegRZww4DrIW7NAcx/zDEDmPzKdgPKajMgxJTVZitasSWoY8efO6NUzv6ehhmoaqUlYARPAQLK4lUF2768AoLGsvyMq1smjfA9Wi737tCX7xrowVevAKCsNkP0DVGWlxu73He6Upm5JFryGQRtCgNsKSoAKKuoyFe9zk3bOXmE9YTlJx8NaoT8VfsIOvepFACU1aay3xBltek2sKW5AoCymmsGjgAKfJMKAMpqM2yAstpUU6dtAcrqdHiBc0ABmQKAsjItBr8EKDt4DUliAVCWJIEGbgIFAGW1mQOAstpUU6dtAcrqdHiBc0ABmQKAsjItBr8EKDt4DUliAVCWJIEGbgIFAGW1mQOAstpUU6dtyVG2NTl6dYBSCQy9UPhZNRDUJOxZG3UH/XEcbvnDNMm38ssWP647vKzjQYFi9wIDA39at3HHgSs5jegnYlrSj29ctTUO/YlikXVBw72D64NjUpDvb0K+9ayOfW5XoJ+Ph9vEqXMDwq88Iv7WMtEB4H+gwFemAKCsNgMCKKtNNXXalhxluTlxkeFI2Rk4malv6xeKruyOuVX+WTUQVF0O+WHbH/WiH1AZvvwa8mUQyG+piBc/tjPItwtRnP3DUK/Cd4VtCfCxodLGb3+I/IITN/+AtwnDa1+u6CMygqo4fyum117R93K25R6ZM4JuM3PjwbPx8XGx2/wc6CYe4alyP8Dzsb0CxwEFPpMCgLLaFBpQVptq6rQtOcpKPVX8bkzes/o6TmtDYXJicjEHHfvxm0rTEq/HX0tkl4sHdfyW+romrqC59OHNP26llcmGeryG4tTEP27cy6sTf8YTqcnh8puKkhNu3M1/inyFUUs5+9Yft9LFP2zMb6mvaWgV8FuqLy5jmS86W17P4UgXW8TfrtRWnX3nj+u32eWSrzVS7qTUH9GC8nf48Qv3TjIYtvIG+p1O/OKjs8zoE3elt0G8wiO+5hazjoqGtvyC/Z501vwzFdLvdeKXHZvFpE09KPkVR4WGwCpQ4GtUAFBWm1EBlNWmmjptSy3K8nLCXE0dXR1Yo2wtPXbltpXFBTibMKxd3CY4DDeisGbHFvCRr+J3M/PwmzmaZT/WkUU1sPE/W86HBPW3No0zYdqMneBiZUy3W3auTFTTfNJs79HWTuNsTSkWs8Iilzhb27vYmVGM3XamtUm+2r2iJMqbrj90qD7FeGpo6FTxondUMR9qzY7xs6EzrJ1dbM3orOmRDznoD+VgO4nz9YPKlBXUHJ1hyFh0WfxzxPzy037Daa4hv251Z1guuiD+Mnte7k5Xis166S/sovnArchJL+VIsavTOQKc0xEFAGW1GUhAWW2qqdO21KXsOH3m979VC6C21jZeVoSn5YyDhSjHWu5vsDecGFmIfhG9Ps0zPB399Zrba0Ybeuwv5Tf+NtfYZRv6M03cvD1TRvgeLkZ/Gkef5hmZg/zqy8MQBz3K2M3JTRDELz0wlWa36YGEslUQxL0ZOGKYeMZYtsjLj3RnOK1LqOFDkKDx4Q53E5etbPRn5WSdxAsaQlnqtIikZFG5c/1k6ExLCmvJpTrplxUKqi4usdQbom8b+MdTycbWuIV0g+9ONuKZBNuAAt+OAoCy2owVoKw21dRpW2pT1sgzSvo7NYgi3KaKvJRbl34Nmyv+hfL88PFGHvvEc6ick9+hP26KTj2zPFeGxcanVYgfYyI/72LkHlmIDgQbT8wyshP/hFvb9R+HswISBqIs8mujBiNm74iJRcuR8PmjDNz2FLTlhI1T7KR86BDK6tFZdvb2dtamlCFDaTaei7fH5cvmtpFfo4//0UZ/iJ71sivS79FuOednRJ0n+2FzeaNgDSjwrSgAKKvNSAHKalNNnbalNmWpvsclv/TWzI5eMIahTzFmOUz0XeAto6zyD5BCECf7zOZ5btZ0vSH/Y2w3e/e9evHPvB4RUYxzajZV8htubTdWstSgLI8d6kgxHztzjqz4rT5Z8DwnbBymkzhRw84YtxSc8h/NdFl7FfsDmfzSU34shuf26FX2Bqz5Z8Q/Xsy9HzzaQPbD5iLDgqeP0nJriH+jB6d5sAko8GUVAJTVpv6AstpUU6dtaU5ZQXm0N5X1w4kC9K0jftHeSYYu2zJ4+D9A2ladl5qH8JRbl3tjz3csQ68o+R9T/wjKImNZQ+RH0cWBEXC5yOS13E+r48YMS1nkjau0sAk0hmdkhpiV3Nwob6bZjJgCHtR8L8TZyGzW0WJ0vN2SEDCC5hlVhHkKyy+IdDdk/XgdvGWMqzTY+FUqACirzbAAympTTZ22pTlleXm7xhvYrUtEPkfaVnJxpT1FH0EeLmVbi/Z5UkcHXK9FANV4e60d3eeIRpS9s3ak6aJLCMu4skV+wT5P+vDvorPRR8Ds3V5M1tLLDXKUbS5+cDu5oEnyaFUUQgXKQhA3I3wijTZxF/Lc+FnK1vF01rzT4gFsa+qO8TQT76g8hOW8Rwe8TUwnb44vQmeX20qvb/Fg0iftEX3MR6fzAzinQwoAymozmICy2lRTp21pTlmIX3p2yWgjCoM1kmU2wj0g2M+G6XemHpeyXIjzYI8Py4g2zGYUi2FsM/cA+5kmlBVUnphrSjGxmhaRzpUt8iBuwekfXUwo9OFWLGNDswlrLpXy5cayvOwdLgb2ISmS4a4ohEqURTi7yw3hbNLV1XaGI5f/Ln0YC0Hc7EgPY7p7eDoy1BXUJu32c2BQqOZWVhY0Cn2U7/aEKszYVqdzBDinIwoAymozkICy2lRTp23hU3ZAl7n1xVnsrKKn8hgjOIxbX5LNZueWN30Mlrj1RRnsnEpkEIlZRFpqrS5IT8soqMV9OMpNXD8/8tHHNEjgBLKZW1+Sw05LL6hqkR8kqzgE7AIKfDUKAMpqMxSAstpUU6dtfSRlv3JNBE//2Bl6sUzLkP3KnQbdAwqoVgBQVrU+mu0FlNVMLxLX1k3KkjigwHWgAJECgLJEynzMdkDZj1GNlMcAypIy7MBpMioAKKvNqAPKalNNnbYFKKvT4QXOAQVkCgDKyrQY/BKg7OA1JIkFQFmSBBq4CRQAlNVmDgDKalNNnbYFKKvT4cTH4PoAACAASURBVAXOAQVkCgDKyrQY/BKg7OA1JIkFQFmSBBq4CRQgpGxOXn5GZnZObj74p74CGVnZKals9euDmqRVICWVnZmdQ1r3geNAAfIokJ6ZVV1T+x+mDBEtl5VXPmttfdfRAf6prwBf8DIzO0f9+qAmaRVgZ2S9evWKtO4Dx4EC5FGgvqGxsYmDgex/YspWVD6BXr2CQdFEgffvP+TlF2hyBKhLUgWycnL//fdfkjoP3AYKkEmB521cTvMzQFntxBxQVjs6ksAKoCwJggxcBAogCgDKajMPAGW1qaZO2wKU1enwAueAAjIFAGVlWgx+CVB28BqSxAKgLEkCDdwECgDKajMHAGW1qaZO2wKU1enwAueAAjIFAGVlWgx+CVB28BqSxAKgLEkCDdwECmhC2c7mjLgDYVs2b993JqWxQ6Jdd1vOxagdP2/75bfk+ndCyVZy/lWmbF/179tDL5b3YvT4UPjb5j1/cvqRTb283LNhK7/39vT0nrNi64m0li5MRRgWvkyJ3rgxJu0VRte+6t+3BQeJSnDwhk0/h+0/da/urRCGux6fCRHvwPzZEIm2Jfy78mZs+M+hEb/erv4HY06uPXSlt/JSKNpAcPCGjSGhuw5eSG2UBpa4dRiGsTslPQje9nu1chtgiwJlB8iTz5UoMAx/hkQBeQLyn1QKqE3ZnuqjPmbMcYu37o382d/V1GTSvuJOGO7nxM1jMZ0X/bw7fI23JXPi7oL3pJJPwVllynbfCzQ1XvonFp5/X/reyDY0vwcWtj8Mtmc6LY36Penhw7vxB1e4mIzwj29D8Ysa7ucc9TY3NzeZGtsk24hYNHANiIpGy6GoiKDZdjT6pH0lXT21t2PRjQeDvc30x/hHoisx5zJf9L8vinRnWk1bF7Z9lSfLeEJE4QeFnmNWu+6sMDFyW3UAOfpgVESI/3gzqu2yeA56p0DcOgzD8jvR1qMPH3/AwRgHi2IFFCirKk8+Y6LAnyVRQJ6A04BUCqhL2Z70ICuzRVdFgyph++0Vw8wD7nb2Pg5zZPieFoHhffJPLLOAe1igkEpKGIY1o+yHP5cyrYLYUsH6aqMmGrkfqOsTy9b35JcJpvN//XUe0zmiRDoaVr4e93N+nWrICkrrlsjdkx9qa/TdeekIWPji/Bym865itEJnUZgz8/uLLwnHswhlmT8mSbsFd9cem8Fkzrv0QigCqfxdA6Z15a5JegT+KiqgCWV1LVFAnihmA1jXaQXUpWx/O6eosEEy1fghZZ0lc3liJwwLuzve96AK9bedn2tqv/WRaE2nRSN0TjPKIncuNPewdL5Usg+vWtv+kuCtp3CHo+mCeOivP/zNRgalSUafypco4euLc42YK+9KDoQVKfvh1lLmqM054mZ6cjePNltxp5PICyXKwnDnw/UjqLPO8oXocFWespjWlbtG1AbYrgllv71EwbsdkyUKyBOQ/6RSQF3KYkXpeLx3sonNupR2yXDofd6R5b5OZsyJYZl/S7ZhDyDNsmaUhfuar69ypA2lmDt6+wfvPX2nlC8djsJwJztopMXyP9th+N3dQJb54j/eiKRFLlG0WYfzH6OlKO9hfOT3Iw2sViWJ98OwImX7nx/3pnnGSGad+xtjPGjTT3GJIoVD2f7WY96Go3/O60EpS9g60jVDtzWxx2Tl+IX057LZbtIkwsCOakLZL5woRM6oSBQRZYkSBeQJkaRgu04qoCllhW/yoqZbmHpG5kvGtTAMv6tj/5lwPmKerenYn1NlF3udFEylUxpQVjLm73rx+Oaxnav9Jo1i6A01slt8rlo0yHx7Z+Vwq7UP0MfcnRkbbIxn/ibCFXKJ0mNYOTo5OY4yNxgylG7rE7gvsUEy1EX6pzCW7efETqF5H2sV066/5Zg3bcpR0etXOO7gXDyF3JPTDUduyhZRlrB1pGv6o6atWCkrgZsuVktmwHHaIu8mdSkryRP4yyUKUZBUJIqIskSJAvKESFKwXScV0IiyXfXxgU4mVnNjizGIlcnSmbHRhjbrHJ9okCSrqatLOJRNWTvMaOE1zDthQv5pXyOn8JLe/nf8lhf/SJ+3wl3PU3Z6mtBnn+cJYeHr+IXMoXoUqrgY6A3Rd9uP8gq5REnmbDubrgY4mI3fkiJ9BIsqq0BZ4avz39Fkz3v7aqLcaLPOyR+CiQjOxbP3cdgYw8mHG/vlZoyVWsd2DWMQLOIooEhZ4jyBiRMF/iyJgtN7dJOKRJGfMVZMFJAnRJKC7TqpgPqU7a47O8+S6RaS1CoDQ0fhyaDt15rEg5W+J7+4GqkYJOmkgHJOKVO2r3LvOEPXX57IxnPd2ZtsjGb89kLYcWspk/VTMhbAr85/R3WOKO3t557xNR4d/ID3SlxeFkSMN7D7Oa9L/vIFw3BnWdRkOtMn9glmslmBsnBPTsgoi4C74uHu+6SV5iM3ZkofBst5AMOw8sWzuzjc2dAloqx3gNbB1VNRS+J1BcqqyBOYOFHgbzNRQJ4Q5wXYo4MKqEvZ3uqDk2lm0/fcYqeLS2YFr6e3PHKcke3qO7xeGO5suvbjaJrb/koZUHRQL9UuKVMW7nm8y4li7hN+q6T19d+vOEVXN08yoU2Jre+Dhe3Ja6yNxwVdr32LzuX2vsyM8GTab87p7G864kUds6MIA8J+ztGpRsMCkt7KjSbR3vQ8ifai070OPZFWV6Qs3JkdYms+/XBZBwx3lB6aZjp6YwZ2hlneKZSyS2/89e7du3dv37yoZZ/80Ylh+1Mi+lay0gUS2zq60//qa+RIaen4gOG/fEtkXlOgrIo8+QoS5X1LcXYRR/qhaXHcPjpRQJ6QOfNJ6LualEWmDPWGyBUK+lGR92UnF9kb0yysrZiGTNfVvz8l9SUVh7Iw3FF+ZsVYpkQ9ynCvkJscERCFb0tPB0wwpxiajbS3s2LSzN0CzpZ3wH2Ve10NkSEtNh+FL859R2f4XeJ3YWaMxRV6nhzypNO9oqvFnFWiLCx8zQ73MjdkDB/OMDSfEpH+l4pZ/a47KxiSSA/VMzIbPXnx7iRxj5UZD8Oy1pGr51DJoZK/es4RWD/AskgBRcqqyhP4CydKX83+CYZO4cVyCYlOenxconSAPAGnAZkUUJOyKiXpe8etq6hsfNWp4tKt0oDO7MSlLOpdz9+ttWWl5XXct0pD/b53L+oryyrq2jDPaD+JIp1QQ2VFAwTC9EnU1dCoMmUHyhP4CyZKT87WpbGN4GVxDYMMqgMFEAW0QVmgpEQBYspKanw1f4VvKh7cvKFUEu6XvSb9zdLnCBIBZT9H0xq3Ifw79eCeO1wAWY2VAwcABQBltZwD3xBl+57GrfWbo1S+X3UGfPJGy1mBa+5boiyuA2AjUAAooJ4CYCyrnk7q1fqGKKueQ6DWp1IAUPZTKQvsAgW+MgUAZbUZEEBZbaqp07YAZXU6vMA5oIBMAUBZmRaDXwKUHbyGJLEAKEuSQAM3gQKAstrMAUBZbaqp07YAZXU6vMA5oIBMAUBZmRaDXwKUHbyGJLEAKEuSQAM3gQKElC0oKs7OzS8ofAz+qa9Adm5eSipb/fqgJmkVSEll5+YXkNZ94DhQgDwKZGbnVtfU/ocpQ0TLjwqLnlRVP2tpAf/UV6Du6VN2Rpb69UFN0iqQlp5RX99IWveB40AB8ihQVl7R2MTBQPY/MWULix7XNzRCoGiiQOvz51nZuZocAeqSVIH0zGwul0tS54HbQAEyKVBdU8tpfgYoq52YA8pqR0cSWAGUJUGQgYtAAUQBQFlt5gGgrDbV1GlbgLI6HV7gHFBApgCgrEyLwS8Byg5eQ5JYAJQlSaCBm0ABQFlt5gCgrDbV1GlbgLI6HV7gHFBApgCgrEyLwS8Byg5eQ5JYAJQlSaCBm0ABTSjbUnQzdufGtWuCt0dfe8RR0I5XlnTmErteoLCZXKvKlOVlHQ9ed5SNfZn02f2Da0IvFPIRabgViYc3Lprp4ebmMX3h+qgbxa1yggmqroWvWrX7RjVGVl7W8aDAAFEJDAz8ad3GHQeu5DQKIKg1OXq1eAfmT6CoLcHT9HORIevWbdkbl9WAMSfXHqTCSFba8Y2rtsYV8aRHCBruHVwfHJMiTgV+HfvcrkA/Hw+3iVPnBoRfefRMWhMsKCmgQNkB8uRzJQoEQYNPlHSQKErhBhvIrIDalOVmRXoyGU5+67eGrvNzNjEev/1Bi0y4Vnb4JLq+y/Ys2TVYtpM8S8qUbbuy2IQ+/wIWnk9/nWlosy6JCwnqrweOYjjMDzt+6fr1yyd2LhxjPNzvZCmKX1QzfkHkZFNTU+NJkQWyjYhFirN/WDhadoVtCfCxodLGb3/Yys2Ji0Q37gyczNS39QtFV3bH3CrnNyeHujJYnis2Bi9xG0Z32XKfkIDERlrzD3ibMLz25YpuGQRVcf5WTK+9OehqW+6ROSPoNjM3HjwbHx8Xu83PgW7iEZ6KSRHyZIFanipQVlWefMZEgbSRKFyQKGqlAKhEFgXUpSw3IYDFnHtKNKgS1MctNDf1vyy5hjYmBrtYsywogLJKn5dVdfV8dmE+gxWQICUwLydsnKHrzhzJnQovY5uLyay9e2cxHDY/lI6GlS3yC/dOMhi28kabJGm5SetsDH1ipCNgQXnMdIbDpgdohZbkjQ6MmUerVIxnUTuKRiAI4hcfnWVGn7grvQ3iFR7xNbeYdVQ0tOUX7Peks+afqZDeDPDLjs1i0qYeLJFukXQO/EUV0ISypEgUkBdAAV1VQF3K8usLku/nS6Yan11bwWIsiEMpK6i6tMzOZUP8wVlUQFmNKIvcuVBdNyZUSgn6rLqktFZCXe79DXYms09U1Z7xY1oG3JCMPpUpK6g5OsOQseiy5EBIEZDPzs9nWK9JFDfDTVwzkrnwouQWiSizFY2g9fjlp/2G01xDft3qzrBcdKFShGpe7k5Xis36u1I/kLrcipz0Ug6ALIG+mlAWJAqBiGAzUOBbUEBdymJ94SRvnWBsteIq8hCWV3T0u1EeEemtjScAZSHNZowhXtHpJXbUoRRTOw+/wK2HLqZWSoejENSSEGBptuBCPQQ1XV48zNTvTJ0IaQhlqdMikpJF5c71k6EzLSmsJZfE+xHAyY9l+aX7PahuuyWzzvxHu92oXgfKBhjMKhiRJICg6uISS70h+raBfzyVWGiNW0g3+O4k+KYwiUhq/NWEsl84UQbwBiTKAAKB3WRXQFPKCuruhHmZmbiFJiHj2tb0CE+bWUcKeRDUBCgLaUJZycCvtTz53C+blvmOt6brDTW08YvJEg0yGy8usmAtj29GErTlZqAVfepB0RNbhLJ6dJadvb2dtSllyFCajefi7XH5kqEuUl/huscvjHSneuyTTN7yi3+ZTHWPFL1+RZz/CkYkFQU18T/a6A/Rs152pUZC2ZZzfkbUeeelY2lJXfCXWAF1KSvJE+jLJQqxE+gekCgDCAR2k10BjSjbmndisb0xa0bkA3TqmF+035Nm5rZo7bp169atmm6jbzbRf31UonSIQz5tccay15abG875DYWlSA9B5SFvQ/uQh1x+U2VxeYNslrW19NomN2OaT0yFABLUnJzDGKpHMRIXit4Q/bE70HfLsDPGLQWn/EczXdZelT6CRdtQuO4JqmN8qLLnvbzssLHUabKntgRhUjAiqsUvPeXHYnhuj15lb8Caf6ZcNCHMvR882sA9skhueljw9FFabg1mcE7QDkk3K1KWOE8g4kSBPkuiDBAhkCgDCAR2k10B9SnblnN4FosxdvWlEgkY+EWnAn2ni8s0Z3M9+ujJvsEXB3yvRnc1V6YsL32rk4HztgzJG00Q1Hb7JyvDKQfLBZzz8xnDlopGqyJJEBwaOWxJ5fLLor3pIwPjK6rFpereFheKzbo7rRCEpSwyzk0Lm0BjeEZmYHimeN3jJq62NvO/LB7uNl9aZGa56pYkikTRUDSCjJFzo7yZZjNiCnhQ870QZyOzWUeLUbK2JASMoHlGYTHLL4h0N2T9eH2gx79Ezev6dgXKqsgTiDhRIB1KFF0POPCPvAqoS1lu1s4JVKZX6PkESbnFrsBeqMGMMfJhU6W3nyBu8iZ7iplnyPmHJTVPqwuTT60Zb0x1j8zjQYL6+GUj6E4rT+c0oqjiVt3a7MYYtSaxhV+wZ6KR7YZkjL78gshJhub+lxoVKQtB3IzwiTTaxF0Z0upKgGy5vdrG1CsijQNBnNRdniYjV93EzjDjpr+SkWcpW8fTWfNOiwewrak7xtNMvKPykGZ5jw54m5hO3hxfhNptK72+xYNJn7RH9DEfXPsk36hAWRV58hUkSnPxg9vJBU2SJwTyoQOJIq8HWAMKKCigJmW5yRtt9YbIFQrmoyIQeC6L6opDWQjisKMXOjIk6lEsJq4+VyACoqAx9ZC/iynFgGk5yobFoJqN9T/M5kC89K3OBsiQFhsrQXmMD43u+2tlq/IncLkZu9xotInhWeIjlK57kKAmIWSimQHdwoJuYOa+OaEW/4KJbVDeiKA+YbWd4cjlv0sfxkIQNzvSw5juHp6ODKMFtUm7/RwYFKq5lZUFjUIf5bs9oUpuChlrHCwrUlZVnkBfOFF42TtcDOxDUuQSUhpCkChSKcACUABPATUpi3co2KakAC5l0VrcpyU5aansnLJG2dyx+HBeU3leeho7pxTzjFbJsjY2tFTlp7Pzq1oGJuxHt8atL8lhp6UXfNJGPrp3X9OBypRFe6ciT6AvmCjcxPXzIx9p8aYJJMrXlIygL59WAUBZbepLTFlttqIVW4I6dvy5M0rl7O9pmNGqVloCRvAUIKAsXtUvvk3w9I+doRfLtAjZL+4S6ABQ4PMpACirTa2/IcrycmOXS19dk7zCNn36zCXRJP+WTG3mgwpb3xJlVbgBdgEFgAIDKQAoO5BCmuz/hiiriVugrvYVAJTVvqbAIlDgq1QAUFabYQGU1aaaOm0LUFanwwucAwrIFACUlWkx+CVA2cFrSBILgLIkCTRwEygAKKvNHACU1aaaOm0LUFanwwucAwrIFACUlWkx+CVA2cFrSBILgLIkCTRwEyhASNmcvPyMzOyc3HzwT30FMrKyU1LZ6tcHNUmrQEoqOzM7h7TuA8eBAuRRID0zq7qm9j9MGSJaLiuvfNba+q6jA/xTXwG+4GVmdo769UFN0irAzsh69eoVad0HjgMFyKNAfUNjYxMHA9n/xJStqHwCvXoFg6KJAu/ff8jLL9DkCFCXpApk5eT++++/JHUeuA0UIJMCz9u4nOZngLLaiTmgrHZ0JIEVQFkSBBm4CBRAFACU1WYeAMpqU02dtgUoq9PhBc4BBWQKAMrKtBj8EqDs4DUkiQVAWZIEGrgJFACU1WYOAMpqU02dtgUoq9PhBc4BBWQKAMrKtBj8EqDs4DUkiQVAWZIEGrgJFNCEsp3NGXEHwrZs3r7vTEpjh1i7Xk76lYtxknL5fs07EouqTNnesrgtG6PutfXLVOkpObdlbyLneXJUyC93WjA7YBjurYkP23q+pLO7+GxIUHBoXFm37DgY7ig4tTl409HMv4Wirf1vKm4e2rB4tren18xFQdH3Gj8g27senwkJUiobIv/kwH3Vv28LFu8KDt6w6eew/afu1b0VmessOr054kZjH7ZFomWsIUlTwdt+r+6D5dpQ2EVkjYzbFShLmCctvS8GkSjqKUvcuHx2qmcNhuF+lX3GMSPkpxzacrqoE2eXeFPPi5Iy5CwSvmYf2XIi7x088CFSY+qdTdLqYAEooF0F1KZsT/VRHzPmuMVb90b+7O9qajJpXzFyTvTVRk00oFlYi4vtogvPP/LM1K5fX8aaMmW7bi2hDRlqPv9Sq1SWD9cX0Rx2FL0v3ulo6BZVg6VaV+bGUcz5VyBhx9UFBnr6FKugNMyF558/lw/T16N4H0NtdT+9sNCaYfd92G8JyQ8S435Z7GRs6h1d2gn31N6OjUbKwWBvM/0x/pHoSsy5zBdw971AUwPXgCh0S/ShqIig2XY0+qR9JV0wDLdf8TOy3pjZo4508oZE5g4ff8DpgxXakNuljmWy1FGgLHGe9PYMIlHUU1NF4+oZUKqlss9KtUWXEZrflXacXeim3oJtY0asTemGYeHLu+HLfkltFyJXHlWHYEypcTZhaoNFoICWFVCXsj3pQVZmi66+Qoc9wvbbK4aZB9zthOGOhMVM18gKLCq03MNvyRwuZel0c3OahYyzYsr2IpcJI5eIsl6phx3Jq0cM+/H2PzDccXUBddT0GQ4jMZhtT1jqOH3mWCpK2f6m4z4My6U3eFJ493Mvzzejz/xNhvOe/FBbo+/Oi2KGNoLA0XjpnwhTxaWf8+tUQ1ZQWrfmlJU3JDGIUpZgl7QOWICVKUuUJ+id7EcminpCd91aQti4yELXyye5Dx/mVPI6JdMone1v3vUI3z8vyUjNLOOikyjYxlQlNzLfomBPHpn9756X5Tx8kJJT8QI13N/56s4aq2E/Jrxo7+zv72x//U+XEFUFQ9nuVzV5qQ+zy198EPcQ05sBzyZRXSUT/Z3tbzp6+t81P05Pe9TwN3KR63xRnpmaWcnHzDEp+gL3fWh/09H1D6co53HLP+/bX//9QXZ57H7319/vZauYToJF3VVAXcr2t3OKChv+EWfwh5R1lszliZ1wb2mEy7DAO9DzyqKiarwE113l8DzDpazx6A3nD3mbSDkroSzc33Lchz5mR6Fk9Ph3whJzm2A2MnpFrgv2W05sdRoZlCoazQr/vr7YafWJyEkoZfueHnA3sNv6SHIo2pkeXm1lW4cUu7A6lBW+vjjXiLnybhegLF5AP902ZcoS5skgEkW9/nfdWkLcONxRfHSuNY1pM3bsaCbNanbM47cw3NcQ7WHhvfh7Bysnt7FWNEPbgIQXssRDWiVOblx70oFpPzcxyNWUOWqCx2TnEVQDqwVxTb2tJ32N9YcO1Tcw8T3BaYj1ovmefYkdy3bVnFtsZ8wc5Tp+jLmx1ZyjJZLHWWL3BzqbEOzjmECcHDZ1ga/DqHETx5gbDJ8XFbvKdZTTBEcLAxOPA2WIcQJf3M3Hujtb2Y8Z6b3v4gYb5rwrkOjC2Ve519V80fU3yjcC6gUK1Po2FVCXsljvOh7vnWxisy6lXQj/fWUe1XiEtZWNo6MVw8DCO4L9mswZREDZLXnva2O9TcznXUQGmlLKwsKXl/yYo0Ny0LGlELoyj+m0sxgFJ3pd2Jb7aKcEs8I3V/0d190vPySibFfiCobhD/FvsWFRWsanLG3W4fzHaCnKexgf+f1IA6tVSch5r+mMsaHbmthjsnL8Qjr6sAAZLxPsUuohiTfgUZYoTz4+UdQTGKUsQeO9pbtdaGM3p0H9MNz/OnPbBLrjjsLuvoboSfr0adGV7xHUZG92MPI+rvCoiCC5CexJKNtXfXjayLm/IY8eYLizcIeTkVcspx/uydhgzUJnjPs5ipTta4idwhz3c/pr5Knt25L9U0zH75WfXBvobILxTYidjK3rhuGeknBnPYpbxON3MNzfdmom3XEnDBP7om+26NorIdzd1d3zaKu98ayzXOSyiIxJhq9A5qpAIZUCmlJW+CYvarqFqWdkPjKu7efEr/ddEl2IvI4jfJO3y51mHZSKnHgkLYSU7YF7pJyVURaG228ts7AOSv0Aw/3Pf5tp4n6gVjSbJLouFH54HOZkvf5hJyx8Hb9wzNqUd/XRIsp23lxMpS25hZn6xVEcn7J6DCtHJyfHUeYGQ4bSbX0C9yU2iOb7NKWs/qhpK1bKSuCmi8jLT+iMMcEunD6SdhM+ZYny5GMTRT15xZTFa7yv7oA71eckCgkYhoXQuVk0l93lXQ3iREQb6Ij/gTZO+bERXnIT2JOfMYZ73/HqizOTLkUtsjOYsK+6TxVlhdyTPobWC/afF72BeSF6qb2h5xEOdmQ90NlEYKIHcXLKUZGpt/HzqY67itHHO90P14+wCoJV+EL1OSF54bG3JMKJ5n2M0w/3Pg5ztFrzgMTXR/XSUfdqaUTZrvr4QCcTq7mxxZKpYzlBhLzfZhg5R5TKHjTK7SbBigrKwlLOPr2Kvv0kUul9yjqrET/d7+hrjPFizjgpeagqvi709oow+x66/IPD2pQPyN01OmPcW7jdwXDK0WbstQQW/t1Y9vS17IkRPmUlz0w7m64GOJiN35IieW6rKWUlhhTiqvzsV6ECWEUUIKIsQZ7AH5coGK17src4GFPRYrrkhtylXkpZ5cZ7HoXaGi+W3c51Ja00tQrO6GyInkSbHfeXaOIKuW8cu6dc6bzH6TOBPRll31ecWe7C1KeYWDl5+S33tTMYPwBl+8r3jKUMc/t+oaz4h8Q3YZ99DnQ2EZjoRp28IJqd67i6gOb6SyVqtjstyNIqCB7QF5H6fdX7JlAnHXr6IT/UYVRwOuZ1Rkx0wKIuK6A+Zbvrzs6zZLqFJLXKzqZ3xZf3n2RL3sBBJnOokw4+xSa4Lmun7JtKysJwb91RbxNz39nuhg47isQqdueHOgxbcbNw/0TzH36XAE/0XHZbYS96/2u9Nv63efZrUz4gj8NElIU72UHWdJ8TWMz2Nx2dYmSJjHzFRTVlkRm5sqjJdKZP7BOUzICyEuE+x19iyuLnCfxRiYL1pLfjzetXaHn9VnYrhtTAUFax8f6G6MlU2e2ckHtyOtX1lyciAA1EWZw+E9iTUFb44owvzWpZPAd9h6m/+depRuN/eTLgWBZ7by/s7VW8AEkoS3Q2IWNZHBPI2Sa9lcCh7AC+SLXvQzScFHkmyNYhNF9eeWkdsKDLCqhL2d7qg5NpZtP33GKni0tmBa+ntyTCheq0MeUl8gkOzo1Ae+PJh+Q+mqLL0uH4NgBlRZcwxpAhejLKwn0Vka7mkzycRqy8I3vMKr0uwL1FOxyHWVqOQmeaZJSF+xpP+Zqae0c8aEbne7ufP4zwNmNMPVIruwcakLIw3PMk2otO9zr09mi75wAAA8tJREFUpEf0XNYq6MGbd5LS8b5L8Xol8RkdsPpffS2piv7t+NDdL5oxNsbfJTka/FU1lkXUQe7HFPLkoxJFPaXlKKvQeN+TKHe6w0+3mrthuLftbpATzTmiuEcOQOibBnhjWRinzwT2xM9l++oPTTJ0DM1FXl/qbr0T5ETRRyfHevK2jDZfmdSJPKRSfC7b33RsmvGIH87UoM+IK2Kmm1n+dFfu2eeAZxO+CTkncSgLq/ZFpn1/8zFvI2OGiZN4xlm2ByyRQgE1Kdv7OGyM3hC5QkE/I/Ku+Oj80TSqhbUV05A5bk18A6nv1QakrPgSpo+hLNzfeMSL8j8jN2RIB6Hid4yRsSyMYHaM/vDV6OMcDGVhWPhXfsxiZ6YBbZiNzXA6xdjebx/7JXYKWQ3KIpw95Emne0VX97Rf8TOQi/BQizUpBCcBQtmhcpWHDBmi5xxRJqIswS4CY6TcrGosiwiCclYuTz4mUdSTVoGyCo131lz40YlhwLS0MqUynZefqXiPvmMsG+apoCxen3HtSd5+6m9LWOVApTCtRltZWE8J2r7Y1mzxjXZYyI9fZE4xtZl1uKxekbIw3NN0ff0EUwPGCBtLEyPzyZuTJM9Exe7LKEt4NuGZGJCyMKzSF5n4Qu7ZWVR9yYSzbDtYIocCalJWpRh9b9tqKyobIcln6VRW1umdypT95O72tLfWlpdVNgH1P7nUWm1AgbJata19Y8IP/PrKJ40QzodRP6oxlfZ621uqy6ub/5b7mBrc2978pLyOr/TJXEn7Xa+aKsuecP4axG3+x5lQ6Yu4dx13A628DjcQTQ1JfAB/dVMBbVBWN5X5GK++AGU/ppvqHiN8U/Hg5g2lknC/jNSf11JXPpX1vi3KqnQF7FShgPAtt+FJSsRUa7+LL8j8IUcVEun+LkBZbcZYxyjb9zRurd8cpfL9qjPoZ3a0qRzpbAHKkiPkvWUHvK1HTV4b3yh7YYIcngMvpQoAykql0MKCjlFWC4oAEwQKAMoSCAM2AwV0TQFAWW1GFFBWm2rqtC1AWZ0OL3AOKCBTAFBWpsXglwBlB68hSSwAypIk0MBNoACgrDZzAFBWm2rqtC1AWZ0OL3AOKCBTAFBWpsXglwBlB68hSSwAypIk0MBNoAAhZcvKK/PyCwoKH4N/6iuQ96gglZ2hfn1Qk7QKPExLz39USFr3geNAAfIokJtf0NjE+Q9ThoiW//d///f/gaK5Aj29vZofBI4gnQI9PSBPSBd04DBpFfi///s/DGT/E1MWuwksAwWAAkABoABQACigFQX+P4cg+ZXelQ/oAAAAAElFTkSuQmCC;" vertex="1" parent="1">
                    <mxGeometry x="110" y="679" width="631" height="332" as="geometry"/>
                </mxCell>
                <mxCell id="5" value="&lt;h1&gt;Interrupt nesting&lt;/h1&gt;&lt;p&gt;Interrupt nesting makes it possible for an interrupt to interrupt an interrupt. This would be benificial if the UART and SPI interrupts where higher priority than the TWI interrupt; which would execute the incoming SMBus commands.&lt;/p&gt;&lt;p&gt;Since the TWI priority is higher than that of UART and SPI, the latter is not usuable inside the interrupt.&lt;/p&gt;&lt;p&gt;Besides, this would go against best practice; to keep an interrupt as short as possible.&lt;/p&gt;" style="text;html=1;strokeColor=none;fillColor=none;spacing=5;spacingTop=-20;whiteSpace=wrap;overflow=hidden;rounded=0;" vertex="1" parent="1">
                    <mxGeometry x="110" y="80" width="420" height="190" as="geometry"/>
                </mxCell>
                <mxCell id="6" value="" style="shape=flexArrow;endArrow=classic;html=1;fillColor=#FF4242;" edge="1" parent="1">
                    <mxGeometry width="50" height="50" relative="1" as="geometry">
                        <mxPoint x="30" y="823" as="sourcePoint"/>
                        <mxPoint x="110" y="823" as="targetPoint"/>
                    </mxGeometry>
                </mxCell>
                <mxCell id="7" value="" style="shape=flexArrow;endArrow=classic;html=1;fillColor=#FF4242;" edge="1" parent="1">
                    <mxGeometry width="50" height="50" relative="1" as="geometry">
                        <mxPoint x="29" y="874" as="sourcePoint"/>
                        <mxPoint x="109" y="874" as="targetPoint"/>
                    </mxGeometry>
                </mxCell>
                <mxCell id="8" value="" style="shape=flexArrow;endArrow=classic;html=1;fillColor=#FF4242;" edge="1" parent="1">
                    <mxGeometry width="50" height="50" relative="1" as="geometry">
                        <mxPoint x="29" y="909" as="sourcePoint"/>
                        <mxPoint x="109" y="909" as="targetPoint"/>
                    </mxGeometry>
                </mxCell>
                <mxCell id="9" value="" style="shape=image;verticalLabelPosition=bottom;labelBackgroundColor=#ffffff;verticalAlign=top;aspect=fixed;imageAspect=0;image=https://www.embedded.com/wp-content/uploads/media-1076196-0706esdsamek02.gif;" vertex="1" parent="1">
                    <mxGeometry x="1020" y="340" width="500" height="257" as="geometry"/>
                </mxCell>
                <mxCell id="10" value="&lt;h1&gt;Task scheduler&lt;/h1&gt;&lt;p&gt;Con: executes task inside ISR(?)&lt;/p&gt;&lt;p&gt;https://www.embedded.com/build-a-super-simple-tasker/&lt;br&gt;&lt;/p&gt;" style="text;html=1;strokeColor=none;fillColor=none;spacing=5;spacingTop=-20;whiteSpace=wrap;overflow=hidden;rounded=0;" vertex="1" parent="1">
                    <mxGeometry x="1040" y="80" width="420" height="190" as="geometry"/>
                </mxCell>
                <mxCell id="11" value="" style="shape=image;verticalLabelPosition=bottom;labelBackgroundColor=#ffffff;verticalAlign=top;aspect=fixed;imageAspect=0;image=https://www.embedded.com/wp-content/uploads/media-1076197-0706esdsamek03.gif;" vertex="1" parent="1">
                    <mxGeometry x="1020" y="597" width="500" height="269" as="geometry"/>
                </mxCell>
                <mxCell id="12" value="&lt;h1&gt;Process flow&lt;/h1&gt;&lt;p&gt;attiny814&lt;/p&gt;" style="text;html=1;strokeColor=none;fillColor=none;spacing=5;spacingTop=-20;whiteSpace=wrap;overflow=hidden;rounded=0;" vertex="1" parent="1">
                    <mxGeometry x="-1000" y="30" width="420" height="160" as="geometry"/>
                </mxCell>
                <mxCell id="19" style="edgeStyle=orthogonalEdgeStyle;rounded=0;orthogonalLoop=1;jettySize=auto;html=1;exitX=0;exitY=0.5;exitDx=0;exitDy=0;fillColor=#FF4242;endArrow=none;endFill=0;startArrow=classic;startFill=1;" edge="1" parent="1" source="15">
                    <mxGeometry relative="1" as="geometry">
                        <mxPoint x="-1340" y="340.3333333333335" as="targetPoint"/>
                    </mxGeometry>
                </mxCell>
                <mxCell id="25" value="" style="edgeStyle=orthogonalEdgeStyle;rounded=0;orthogonalLoop=1;jettySize=auto;html=1;startArrow=none;startFill=0;endArrow=classic;endFill=1;fillColor=#FF4242;" edge="1" parent="1" source="15" target="24">
                    <mxGeometry relative="1" as="geometry"/>
                </mxCell>
                <mxCell id="15" value="Initialize system" style="rounded=1;whiteSpace=wrap;html=1;strokeWidth=2;arcSize=14;" vertex="1" parent="1">
                    <mxGeometry x="-1290" y="310" width="120" height="60" as="geometry"/>
                </mxCell>
                <mxCell id="28" value="" style="edgeStyle=orthogonalEdgeStyle;rounded=0;orthogonalLoop=1;jettySize=auto;html=1;startArrow=none;startFill=0;endArrow=classic;endFill=1;fillColor=#FF4242;" edge="1" parent="1" source="24" target="27">
                    <mxGeometry relative="1" as="geometry"/>
                </mxCell>
                <mxCell id="39" style="edgeStyle=orthogonalEdgeStyle;rounded=0;orthogonalLoop=1;jettySize=auto;html=1;exitX=1;exitY=0.5;exitDx=0;exitDy=0;entryX=0;entryY=0.5;entryDx=0;entryDy=0;startArrow=classic;startFill=1;endArrow=none;endFill=0;fillColor=#FF4242;dashed=1;" edge="1" parent="1" source="24" target="36">
                    <mxGeometry relative="1" as="geometry"/>
                </mxCell>
                <mxCell id="24" value="J = pop job from queue" style="whiteSpace=wrap;html=1;rounded=1;strokeWidth=2;arcSize=14;" vertex="1" parent="1">
                    <mxGeometry x="-1140" y="310" width="120" height="60" as="geometry"/>
                </mxCell>
                <mxCell id="29" value="" style="edgeStyle=orthogonalEdgeStyle;rounded=0;orthogonalLoop=1;jettySize=auto;html=1;startArrow=none;startFill=0;endArrow=classic;endFill=1;fillColor=#FF4242;entryX=0;entryY=1;entryDx=0;entryDy=0;exitX=0;exitY=0.5;exitDx=0;exitDy=0;" edge="1" parent="1" source="27" target="24">
                    <mxGeometry relative="1" as="geometry"/>
                </mxCell>
                <mxCell id="30" value="Yes" style="edgeLabel;html=1;align=center;verticalAlign=middle;resizable=0;points=[];" vertex="1" connectable="0" parent="29">
                    <mxGeometry x="-0.347" relative="1" as="geometry">
                        <mxPoint x="-29" y="-10" as="offset"/>
                    </mxGeometry>
                </mxCell>
                <mxCell id="33" value="" style="edgeStyle=orthogonalEdgeStyle;rounded=0;orthogonalLoop=1;jettySize=auto;html=1;startArrow=none;startFill=0;endArrow=classic;endFill=1;fillColor=#FF4242;" edge="1" parent="1" source="27" target="32">
                    <mxGeometry relative="1" as="geometry"/>
                </mxCell>
                <mxCell id="27" value="J is empty?" style="rhombus;whiteSpace=wrap;html=1;rounded=1;strokeWidth=2;arcSize=14;" vertex="1" parent="1">
                    <mxGeometry x="-1120" y="400" width="80" height="80" as="geometry"/>
                </mxCell>
                <mxCell id="32" value="Run J" style="whiteSpace=wrap;html=1;rounded=1;strokeWidth=2;arcSize=14;" vertex="1" parent="1">
                    <mxGeometry x="-1140" y="520" width="120" height="60" as="geometry"/>
                </mxCell>
                <mxCell id="34" value="" style="swimlane;startSize=0;" vertex="1" parent="1">
                    <mxGeometry x="-800" y="230" width="190" height="410" as="geometry"/>
                </mxCell>
                <mxCell id="35" value="&lt;font&gt;&lt;span style=&quot;font-size: 18px&quot;&gt;Queue&lt;/span&gt;&lt;br&gt;&lt;font style=&quot;font-size: 11px&quot;&gt;LinkedList&lt;/font&gt;&lt;br&gt;&lt;/font&gt;" style="text;html=1;align=center;verticalAlign=middle;resizable=0;points=[];autosize=1;strokeColor=none;" vertex="1" parent="34">
                    <mxGeometry x="60" width="70" height="40" as="geometry"/>
                </mxCell>
                <mxCell id="36" value="&lt;div&gt;&lt;span&gt;TASK: blink_led&lt;br&gt;PRIORITY: 1&lt;/span&gt;&lt;/div&gt;" style="rounded=0;whiteSpace=wrap;html=1;align=left;" vertex="1" parent="34">
                    <mxGeometry y="115" width="190" height="60" as="geometry"/>
                </mxCell>
                <mxCell id="37" value="&lt;div&gt;&lt;span&gt;TASK: sleep&lt;br&gt;PRIORITY: 0&lt;/span&gt;&lt;/div&gt;" style="rounded=0;whiteSpace=wrap;html=1;align=left;" vertex="1" parent="34">
                    <mxGeometry y="235" width="190" height="60" as="geometry"/>
                </mxCell>
                <mxCell id="38" value="&lt;div&gt;&lt;span&gt;TASK: send_ping&lt;br&gt;PRIORITY: 1&lt;/span&gt;&lt;/div&gt;" style="rounded=0;whiteSpace=wrap;html=1;align=left;" vertex="1" parent="34">
                    <mxGeometry y="175" width="190" height="60" as="geometry"/>
                </mxCell>
                <mxCell id="45" value="&lt;span style=&quot;color: rgb(0 , 0 , 0) ; font-family: &amp;#34;helvetica&amp;#34; ; font-size: 11px ; font-style: normal ; font-weight: 400 ; letter-spacing: normal ; text-indent: 0px ; text-transform: none ; word-spacing: 0px ; background-color: rgb(255 , 255 , 255) ; display: inline ; float: none&quot;&gt;Will queue itself when finished&lt;/span&gt;" style="edgeStyle=orthogonalEdgeStyle;rounded=0;orthogonalLoop=1;jettySize=auto;html=1;exitX=1;exitY=0.25;exitDx=0;exitDy=0;entryX=1;entryY=0.75;entryDx=0;entryDy=0;startArrow=none;startFill=0;endArrow=classic;endFill=1;fillColor=#FF4242;align=left;" edge="1" parent="34" source="37" target="37">
                    <mxGeometry relative="1" as="geometry">
                        <Array as="points">
                            <mxPoint x="210" y="250"/>
                            <mxPoint x="210" y="280"/>
                        </Array>
                    </mxGeometry>
                </mxCell>
                <mxCell id="43" value="TWI Interrupt fires" style="edgeStyle=orthogonalEdgeStyle;rounded=0;orthogonalLoop=1;jettySize=auto;html=1;startArrow=none;startFill=0;endArrow=classic;endFill=1;fillColor=#FF4242;" edge="1" parent="1" source="41" target="42">
                    <mxGeometry relative="1" as="geometry"/>
                </mxCell>
                <mxCell id="41" value="" style="verticalLabelPosition=bottom;verticalAlign=top;html=1;shape=mxgraph.basic.flash" vertex="1" parent="1">
                    <mxGeometry x="-310" y="100" width="60" height="100" as="geometry"/>
                </mxCell>
                <mxCell id="47" style="edgeStyle=orthogonalEdgeStyle;rounded=0;orthogonalLoop=1;jettySize=auto;html=1;startArrow=none;startFill=0;endArrow=classic;endFill=1;fillColor=#FF4242;" edge="1" parent="1" source="42" target="46">
                    <mxGeometry relative="1" as="geometry"/>
                </mxCell>
                <mxCell id="42" value="Queue TWI Interrupt" style="rounded=1;whiteSpace=wrap;html=1;strokeWidth=2;arcSize=14;" vertex="1" parent="1">
                    <mxGeometry x="-340" y="285" width="120" height="60" as="geometry"/>
                </mxCell>
                <mxCell id="46" value="&lt;div&gt;&lt;span&gt;TASK: twi_int&lt;br&gt;PRIORITY: 255&lt;/span&gt;&lt;/div&gt;" style="rounded=0;whiteSpace=wrap;html=1;align=left;" vertex="1" parent="1">
                    <mxGeometry x="-690" y="285" width="190" height="60" as="geometry"/>
                </mxCell>
            </root>
        </mxGraphModel>
    </diagram>
</mxfile>